FiraSans-Light.ufo
<glyph name="exclam" format="2">
  <advance width="234"/>
  <unicode hex="0021"/>
  <outline>
    <contour>
      <point x="118" y="680" type="line"/>
      <point x="116" y="680" type="line"/>
      <point x="116" y="188" type="line"/>
      <point x="118" y="188" type="line"/>
    </contour>
    <contour>
      <point x="117" y="10" type="curve" smooth="yes"/>
      <point x="113" y="10"/>
      <point x="110" y="7"/>
      <point x="110" y="3" type="curve" smooth="yes"/>
      <point x="110" y="-1"/>
      <point x="113" y="-4"/>
      <point x="117" y="-4" type="curve" smooth="yes"/>
      <point x="121" y="-4"/>
      <point x="124" y="-1"/>
      <point x="124" y="3" type="curve"/>
      <point x="124" y="7"/>
      <point x="121" y="10"/>
    </contour>
  </outline>
</glyph>
<glyph name="quotesingle" format="2">
  <advance width="182"/>
  <unicode hex="0027"/>
  <outline>
    <contour>
      <point x="90" y="446" type="line"/>
      <point x="92" y="446" type="line"/>
      <point x="92" y="680" type="line"/>
      <point x="90" y="680" type="line"/>
    </contour>
  </outline>
</glyph>
<glyph name="question" format="2">
  <advance width="448"/>
  <unicode hex="003F"/>
  <outline>
    <contour>
      <point x="235" y="690" type="curve"/>
      <point x="167" y="690"/>
      <point x="115" y="663"/>
      <point x="70" y="610" type="curve"/>
      <point x="72" y="608" type="line"/>
      <point x="116" y="661"/>
      <point x="167" y="688"/>
      <point x="235" y="688" type="curve"/>
      <point x="317" y="688"/>
      <point x="376" y="634"/>
      <point x="376" y="556" type="curve"/>
      <point x="376" y="412"/>
      <point x="191" y="434"/>
      <point x="191" y="271" type="curve"/>
      <point x="191" y="188" type="line"/>
      <point x="193" y="188" type="line"/>
      <point x="193" y="271" type="line"/>
      <point x="193" y="432"/>
      <point x="378" y="412"/>
      <point x="378" y="556" type="curve"/>
      <point x="378" y="635"/>
      <point x="317" y="690"/>
    </contour>
    <contour>
      <point x="192" y="10" type="curve" smooth="yes"/>
      <point x="188" y="10"/>
      <point x="185" y="7"/>
      <point x="185" y="3" type="curve" smooth="yes"/>
      <point x="185" y="-1"/>
      <point x="188" y="-4"/>
      <point x="192" y="-4" type="curve" smooth="yes"/>
      <point x="196" y="-4"/>
      <point x="199" y="-1"/>
      <point x="199" y="3" type="curve"/>
      <point x="199" y="7"/>
      <point x="196" y="10"/>
    </contour>
  </outline>
</glyph>
<glyph name="at" format="2">
  <advance width="1020"/>
  <unicode hex="0040"/>
  <outline>
    <contour>
      <point x="528" y="691" type="curve"/>
      <point x="275" y="691"/>
      <point x="108" y="482"/>
      <point x="108" y="244" type="curve"/>
      <point x="108" y="-36"/>
      <point x="289" y="-192"/>
      <point x="526" y="-192" type="curve"/>
      <point x="586" y="-192"/>
      <point x="656" y="-180"/>
      <point x="705" y="-161" type="curve"/>
      <point x="705" y="-159" type="line"/>
      <point x="656" y="-178"/>
      <point x="586" y="-190"/>
      <point x="526" y="-190" type="curve"/>
      <point x="290" y="-190"/>
      <point x="110" y="-35"/>
      <point x="110" y="244" type="curve"/>
      <point x="110" y="481"/>
      <point x="276" y="689"/>
      <point x="528" y="689" type="curve"/>
      <point x="786" y="689"/>
      <point x="910" y="507"/>
      <point x="910" y="309" type="curve"/>
      <point x="910" y="81"/>
      <point x="831" y="16"/>
      <point x="755" y="16" type="curve"/>
      <point x="687" y="16"/>
      <point x="643" y="72"/>
      <point x="643" y="175" type="curve"/>
      <point x="641" y="175" type="line"/>
      <point x="641" y="72"/>
      <point x="686" y="14"/>
      <point x="755" y="14" type="curve"/>
      <point x="832" y="14"/>
      <point x="912" y="80"/>
      <point x="912" y="309" type="curve"/>
      <point x="912" y="508"/>
      <point x="787" y="691"/>
    </contour>
    <contour>
      <point x="520" y="474" type="curve"/>
      <point x="425" y="474"/>
      <point x="334" y="403"/>
      <point x="334" y="231" type="curve"/>
      <point x="334" y="87"/>
      <point x="401" y="16"/>
      <point x="491" y="16" type="curve"/>
      <point x="563" y="16"/>
      <point x="615" y="70"/>
      <point x="643" y="169" type="curve"/>
      <point x="641" y="169" type="line"/>
      <point x="613" y="72"/>
      <point x="563" y="18"/>
      <point x="491" y="18" type="curve"/>
      <point x="402" y="18"/>
      <point x="336" y="88"/>
      <point x="336" y="231" type="curve"/>
      <point x="336" y="402"/>
      <point x="426" y="472"/>
      <point x="520" y="472" type="curve"/>
      <point x="575" y="472"/>
      <point x="616" y="455"/>
      <point x="641" y="441" type="curve"/>
      <point x="641" y="175" type="line"/>
      <point x="642" y="174" type="line"/>
      <point x="643" y="175" type="line"/>
      <point x="643" y="442" type="line"/>
      <point x="616" y="457"/>
      <point x="575" y="474"/>
    </contour>
  </outline>
</glyph>
<glyph name="A" format="2">
  <advance width="556"/>
  <unicode hex="0041"/>
  <anchor x="278" y="0" name="bottom"/>
  <anchor x="531" y="0" name="ogonek"/>
  <anchor x="278" y="680" name="top"/>
  <anchor x="170" y="680" name="topleft"/>
  <outline>
    <contour>
      <point x="278" y="680" type="line"/>
      <point x="276" y="680" type="line"/>
      <point x="35" y="0" type="line"/>
      <point x="37" y="0" type="line"/>
      <point x="277" y="678" type="line"/>
      <point x="519" y="0" type="line"/>
      <point x="521" y="0" type="line"/>
    </contour>
    <contour>
      <point x="443" y="215" type="line"/>
      <point x="112" y="215" type="line"/>
      <point x="112" y="213" type="line"/>
      <point x="443" y="213" type="line"/>
    </contour>
  </outline>
</glyph>
<glyph name="D" format="2">
  <advance width="613"/>
  <unicode hex="0044"/>
  <anchor x="310" y="0" name="bottom"/>
  <anchor x="309" y="340" name="center"/>
  <anchor x="289" y="680" name="top"/>
  <outline>
    <contour>
      <point x="234" y="680" type="curve" smooth="yes"/>
      <point x="130" y="680" type="line"/>
      <point x="130" y="0" type="line"/>
      <point x="241" y="0" type="line" smooth="yes"/>
      <point x="380" y="0"/>
      <point x="528" y="69"/>
      <point x="528" y="348" type="curve" smooth="yes"/>
      <point x="528" y="626"/>
      <point x="378" y="680"/>
    </contour>
    <contour>
      <point x="234" y="678" type="line" smooth="yes"/>
      <point x="377" y="678"/>
      <point x="526" y="624"/>
      <point x="526" y="348" type="curve" smooth="yes"/>
      <point x="526" y="71"/>
      <point x="380" y="2"/>
      <point x="241" y="2" type="curve" smooth="yes"/>
      <point x="132" y="2" type="line"/>
      <point x="132" y="678" type="line"/>
    </contour>
  </outline>
</glyph>
<glyph name="E" format="2">
  <advance width="495"/>
  <unicode hex="0045"/>
  <anchor x="284" y="0" name="bottom"/>
  <anchor x="425" y="0" name="ogonek"/>
  <anchor x="284" y="680" name="top"/>
  <anchor x="80" y="680" name="topleft"/>
  <outline>
    <contour>
      <point x="435" y="680" type="line"/>
      <point x="130" y="680" type="line"/>
      <point x="130" y="0" type="line"/>
      <point x="445" y="0" type="line"/>
      <point x="445" y="2" type="line"/>
      <point x="132" y="2" type="line"/>
      <point x="132" y="360" type="line"/>
      <point x="392" y="360" type="line"/>
      <point x="392" y="362" type="line"/>
      <point x="132" y="362" type="line"/>
      <point x="132" y="678" type="line"/>
      <point x="435" y="678" type="line"/>
    </contour>
  </outline>
</glyph>
<glyph name="H" format="2">
  <advance width="654"/>
  <unicode hex="0048"/>
  <anchor x="327" y="0" name="bottom"/>
  <anchor x="534" y="0" name="bottomright"/>
  <anchor x="326" y="340" name="center"/>
  <anchor x="326" y="680" name="top"/>
  <anchor x="80" y="680" name="topleft"/>
  <outline>
    <contour>
      <point x="522" y="0" type="line"/>
      <point x="524" y="0" type="line"/>
      <point x="524" y="680" type="line"/>
      <point x="522" y="680" type="line"/>
      <point x="522" y="362" type="line"/>
      <point x="132" y="362" type="line"/>
      <point x="132" y="680" type="line"/>
      <point x="130" y="680" type="line"/>
      <point x="130" y="0" type="line"/>
      <point x="132" y="0" type="line"/>
      <point x="132" y="360" type="line"/>
      <point x="522" y="360" type="line"/>
    </contour>
  </outline>
</glyph>
<glyph name="I" format="2">
  <advance width="262"/>
  <unicode hex="0049"/>
  <anchor x="131" y="0" name="bottom"/>
  <anchor x="142" y="0" name="ogonek"/>
  <anchor x="131" y="680" name="top"/>
  <anchor x="80" y="680" name="topleft"/>
  <outline>
    <contour>
      <point x="132" y="680" type="line"/>
      <point x="130" y="680" type="line"/>
      <point x="130" y="0" type="line"/>
      <point x="132" y="0" type="line"/>
    </contour>
  </outline>
</glyph>
<glyph name="J" format="2">
  <advance width="273.5"/>
  <unicode hex="004A"/>
  <anchor x="136.75" y="-188" name="bottom"/>
  <anchor x="150" y="680" name="top"/>
  <outline>
    <contour>
      <point x="150" y="680" type="line"/>
      <point x="148" y="680" type="line"/>
      <point x="148" y="85" type="line" smooth="yes"/>
      <point x="148" y="-6"/>
      <point x="129" y="-49"/>
      <point x="30" y="-89" type="curve"/>
      <point x="31" y="-91" type="line"/>
      <point x="131" y="-50"/>
      <point x="150" y="-7"/>
      <point x="150" y="85" type="curve" smooth="yes"/>
    </contour>
  </outline>
</glyph>
<glyph name="K" format="2">
  <advance width="504"/>
  <unicode hex="004B"/>
  <anchor x="284" y="0" name="bottom"/>
  <anchor x="284" y="680" name="top"/>
  <outline>
    <contour>
      <point x="473" y="680" type="line"/>
      <point x="470" y="680" type="line"/>
      <point x="135" y="366" type="line"/>
      <point x="486" y="0" type="line"/>
      <point x="489" y="0" type="line"/>
      <point x="138" y="366" type="line"/>
    </contour>
    <contour>
      <point x="132" y="680" type="line"/>
      <point x="130" y="680" type="line"/>
      <point x="130" y="1" type="line"/>
      <point x="132" y="1" type="line"/>
    </contour>
  </outline>
</glyph>
<glyph name="L" format="2">
  <advance width="445"/>
  <unicode hex="004C"/>
  <anchor x="275" y="0" name="bottom"/>
  <anchor x="350" y="355" name="center"/>
  <anchor x="131" y="680" name="top"/>
  <anchor x="182" y="680" name="topright"/>
  <outline>
    <contour>
      <point x="132" y="680" type="line"/>
      <point x="130" y="680" type="line"/>
      <point x="130" y="0" type="line"/>
      <point x="420" y="0" type="line"/>
      <point x="420" y="2" type="line"/>
      <point x="132" y="2" type="line"/>
    </contour>
  </outline>
</glyph>
<glyph name="N" format="2">
  <advance width="654"/>
  <unicode hex="004E"/>
  <anchor x="321" y="0" name="bottom"/>
  <anchor x="331" y="680" name="top"/>
  <outline>
    <contour>
      <point x="524" y="680" type="line"/>
      <point x="522" y="680" type="line"/>
      <point x="522" y="136" type="line"/>
      <point x="522" y="95"/>
      <point x="522" y="43"/>
      <point x="522" y="2" type="curve"/>
      <point x="133" y="680" type="line"/>
      <point x="130" y="680" type="line"/>
      <point x="130" y="0" type="line"/>
      <point x="132" y="0" type="line"/>
      <point x="132" y="575" type="line"/>
      <point x="132" y="622"/>
      <point x="132" y="655"/>
      <point x="132" y="678" type="curve"/>
      <point x="521" y="0" type="line"/>
      <point x="524" y="0" type="line"/>
    </contour>
  </outline>
</glyph>
<glyph name="T" format="2">
  <advance width="472"/>
  <unicode hex="0054"/>
  <anchor x="236" y="0" name="bottom"/>
  <anchor x="247" y="0" name="bottomright"/>
  <anchor x="236" y="340" name="center"/>
  <anchor x="236" y="680" name="top"/>
  <outline>
    <contour>
      <point x="452" y="680" type="line"/>
      <point x="20" y="680" type="line"/>
      <point x="20" y="678" type="line"/>
      <point x="235" y="678" type="line"/>
      <point x="235" y="0" type="line"/>
      <point x="237" y="0" type="line"/>
      <point x="237" y="678" type="line"/>
      <point x="452" y="678" type="line"/>
    </contour>
  </outline>
</glyph>
<glyph name="V" format="2">
  <advance width="523"/>
  <unicode hex="0056"/>
  <anchor x="261.5" y="0" name="bottom"/>
  <anchor x="261.5" y="680" name="top"/>
  <outline>
    <contour>
      <point x="488" y="680" type="line"/>
      <point x="486" y="680" type="line"/>
      <point x="263" y="2" type="line"/>
      <point x="37" y="680" type="line"/>
      <point x="35" y="680" type="line"/>
      <point x="262" y="0" type="line"/>
      <point x="264" y="0" type="line"/>
    </contour>
  </outline>
</glyph>
<glyph name="Z" format="2">
  <advance width="504"/>
  <unicode hex="005A"/>
  <anchor x="258" y="0" name="bottom"/>
  <anchor x="254" y="680" name="top"/>
  <outline>
    <contour>
      <point x="454" y="680" type="line"/>
      <point x="82" y="680" type="line"/>
      <point x="82" y="678" type="line"/>
      <point x="451" y="678" type="line"/>
      <point x="45" y="2" type="line"/>
      <point x="45" y="0" type="line"/>
      <point x="437" y="0" type="line"/>
      <point x="437" y="2" type="line"/>
      <point x="48" y="2" type="line"/>
      <point x="454" y="678" type="line"/>
    </contour>
  </outline>
</glyph>
<glyph name="b" format="2">
  <advance width="567"/>
  <unicode hex="0062"/>
  <anchor x="284" y="0" name="bottom"/>
  <anchor x="289" y="727" name="top"/>
  <outline>
    <contour>
      <point x="304" y="527" type="curve" smooth="yes"/>
      <point x="421" y="527"/>
      <point x="482" y="430"/>
      <point x="482" y="264" type="curve" smooth="yes"/>
      <point x="482" y="96"/>
      <point x="420" y="-9"/>
      <point x="300" y="-9" type="curve" smooth="yes"/>
      <point x="220" y="-9"/>
      <point x="167" y="36"/>
      <point x="126" y="100" type="curve"/>
      <point x="126" y="103" type="line"/>
      <point x="168" y="37"/>
      <point x="221" y="-7"/>
      <point x="300" y="-7" type="curve" smooth="yes"/>
      <point x="419" y="-7"/>
      <point x="480" y="97"/>
      <point x="480" y="264" type="curve" smooth="yes"/>
      <point x="480" y="429"/>
      <point x="420" y="525"/>
      <point x="304" y="525" type="curve" smooth="yes"/>
      <point x="223" y="525"/>
      <point x="172" y="482"/>
      <point x="126" y="417" type="curve"/>
      <point x="126" y="420" type="line"/>
      <point x="169" y="481"/>
      <point x="221" y="527"/>
    </contour>
    <contour>
      <point x="127" y="730" type="line"/>
      <point x="127" y="101" type="line"/>
      <point x="127" y="0" type="line"/>
      <point x="125" y="0" type="line"/>
      <point x="125" y="730" type="line"/>
    </contour>
  </outline>
</glyph>
<glyph name="d" format="2">
  <advance width="572"/>
  <unicode hex="0064"/>
  <anchor x="288" y="0" name="bottom"/>
  <anchor x="289" y="259" name="center"/>
  <anchor x="280" y="727" name="top"/>
  <anchor x="497" y="727" name="topright"/>
  <outline>
    <contour>
      <point x="282" y="527" type="curve" smooth="yes"/>
      <point x="158" y="527"/>
      <point x="85" y="416"/>
      <point x="85" y="257" type="curve" smooth="yes"/>
      <point x="85" y="88"/>
      <point x="159" y="-9"/>
      <point x="276" y="-9" type="curve" smooth="yes"/>
      <point x="364" y="-9"/>
      <point x="412" y="40"/>
      <point x="446" y="102" type="curve"/>
      <point x="446" y="106" type="line"/>
      <point x="411" y="42"/>
      <point x="364" y="-7"/>
      <point x="276" y="-7" type="curve" smooth="yes"/>
      <point x="160" y="-7"/>
      <point x="87" y="89"/>
      <point x="87" y="257" type="curve" smooth="yes"/>
      <point x="87" y="415"/>
      <point x="159" y="525"/>
      <point x="282" y="525" type="curve" smooth="yes"/>
      <point x="368" y="525"/>
      <point x="420" y="471"/>
      <point x="446" y="419" type="curve"/>
      <point x="446" y="422" type="line"/>
      <point x="422" y="472"/>
      <point x="369" y="527"/>
    </contour>
    <contour>
      <point x="445" y="730" type="line"/>
      <point x="445" y="104" type="line" smooth="yes"/>
      <point x="445" y="102" type="line"/>
      <point x="445" y="0" type="line"/>
      <point x="447" y="0" type="line"/>
      <point x="447" y="730" type="line"/>
    </contour>
  </outline>
</glyph>
<glyph name="n" format="2">
  <advance width="580"/>
  <unicode hex="006E"/>
  <anchor x="287" y="0" name="bottom"/>
  <anchor x="295" y="517" name="top"/>
  <anchor x="115" y="517" name="topleft"/>
  <outline>
    <contour>
      <point x="326" y="527" type="curve" smooth="yes"/>
      <point x="238" y="527"/>
      <point x="174" y="475"/>
      <point x="126" y="389" type="curve"/>
      <point x="127" y="387" type="line"/>
      <point x="175" y="473"/>
      <point x="239" y="525"/>
      <point x="326" y="525" type="curve" smooth="yes"/>
      <point x="420" y="525"/>
      <point x="458" y="466"/>
      <point x="458" y="368" type="curve" smooth="yes"/>
      <point x="458" y="0" type="line"/>
      <point x="460" y="0" type="line"/>
      <point x="460" y="368" type="line" smooth="yes"/>
      <point x="460" y="467"/>
      <point x="421" y="527"/>
    </contour>
    <contour>
      <point x="127" y="517" type="line"/>
      <point x="125" y="517" type="line"/>
      <point x="125" y="0" type="line"/>
      <point x="127" y="0" type="line"/>
      <point x="127" y="389" type="line"/>
    </contour>
  </outline>
</glyph>
<glyph name="o" format="2">
  <advance width="559"/>
  <unicode hex="006F"/>
  <anchor x="280" y="0" name="bottom"/>
  <anchor x="348" y="0" name="ogonek"/>
  <anchor x="280" y="517" name="top"/>
  <anchor x="431" y="517" name="topright"/>
  <outline>
    <contour>
      <point x="281" y="527" type="curve" smooth="yes"/>
      <point x="160" y="527"/>
      <point x="80" y="431"/>
      <point x="80" y="258" type="curve" smooth="yes"/>
      <point x="80" y="91"/>
      <point x="155" y="-9"/>
      <point x="279" y="-9" type="curve" smooth="yes"/>
      <point x="402" y="-9"/>
      <point x="479" y="89"/>
      <point x="479" y="262" type="curve" smooth="yes"/>
      <point x="479" y="429"/>
      <point x="403" y="527"/>
    </contour>
    <contour>
      <point x="281" y="525" type="curve" smooth="yes"/>
      <point x="402" y="525"/>
      <point x="477" y="428"/>
      <point x="477" y="262" type="curve" smooth="yes"/>
      <point x="477" y="90"/>
      <point x="401" y="-7"/>
      <point x="279" y="-7" type="curve" smooth="yes"/>
      <point x="156" y="-7"/>
      <point x="82" y="92"/>
      <point x="82" y="258" type="curve" smooth="yes"/>
      <point x="82" y="430"/>
      <point x="161" y="525"/>
    </contour>
  </outline>
</glyph>
<glyph name="t" format="2">
  <advance width="322"/>
  <unicode hex="0074"/>
  <anchor x="225" y="0" name="bottom"/>
  <anchor x="145" y="259" name="center"/>
  <anchor x="118" y="651" name="top"/>
  <anchor x="157" y="730" name="topright"/>
  <outline>
    <contour>
      <point x="119" y="651" type="line"/>
      <point x="117" y="651" type="line"/>
      <point x="117" y="113" type="line" smooth="yes"/>
      <point x="117" y="35"/>
      <point x="155" y="-9"/>
      <point x="220" y="-9" type="curve" smooth="yes"/>
      <point x="262" y="-9"/>
      <point x="289" y="4"/>
      <point x="314" y="19" type="curve"/>
      <point x="313" y="21" type="line"/>
      <point x="290" y="6"/>
      <point x="262" y="-7"/>
      <point x="220" y="-7" type="curve" smooth="yes"/>
      <point x="156" y="-7"/>
      <point x="119" y="37"/>
      <point x="119" y="113" type="curve" smooth="yes"/>
    </contour>
    <contour>
      <point x="265" y="517" type="line"/>
      <point x="30" y="517" type="line"/>
      <point x="30" y="515" type="line"/>
      <point x="265" y="515" type="line"/>
    </contour>
  </outline>
</glyph>
<glyph name="u" format="2">
  <advance width="575"/>
  <unicode hex="0075"/>
  <anchor x="290" y="0" name="bottom"/>
  <anchor x="460" y="0" name="ogonek"/>
  <anchor x="290" y="517" name="top"/>
  <anchor x="460" y="517" name="topright"/>
  <outline>
    <contour>
      <point x="450" y="517" type="line"/>
      <point x="448" y="517" type="line"/>
      <point x="448" y="120" type="line"/>
      <point x="407" y="45"/>
      <point x="348" y="-7"/>
      <point x="261" y="-7" type="curve" smooth="yes"/>
      <point x="175" y="-7"/>
      <point x="122" y="48"/>
      <point x="122" y="150" type="curve" smooth="yes"/>
      <point x="122" y="517" type="line"/>
      <point x="120" y="517" type="line"/>
      <point x="120" y="150" type="line" smooth="yes"/>
      <point x="120" y="46"/>
      <point x="174" y="-9"/>
      <point x="261" y="-9" type="curve" smooth="yes"/>
      <point x="347" y="-9"/>
      <point x="406" y="40"/>
      <point x="448" y="116" type="curve"/>
      <point x="448" y="0" type="line"/>
      <point x="450" y="0" type="line"/>
    </contour>
  </outline>
</glyph>
<glyph name="v" format="2">
  <advance width="435"/>
  <unicode hex="0076"/>
  <anchor x="223" y="0" name="bottom"/>
  <anchor x="218" y="517" name="top"/>
  <outline>
    <contour>
      <point x="405" y="517" type="line"/>
      <point x="403" y="517" type="line"/>
      <point x="223" y="2" type="line"/>
      <point x="32" y="517" type="line"/>
      <point x="30" y="517" type="line"/>
      <point x="222" y="0" type="line"/>
      <point x="224" y="0" type="line"/>
    </contour>
  </outline>
</glyph>
<glyph name="w" format="2">
  <advance width="672"/>
  <unicode hex="0077"/>
  <anchor x="336" y="0" name="bottom"/>
  <anchor x="336" y="517" name="top"/>
  <outline>
    <contour>
      <point x="632" y="517" type="line"/>
      <point x="630" y="517" type="line"/>
      <point x="490" y="2" type="line"/>
      <point x="337" y="517" type="line"/>
      <point x="335" y="517" type="line"/>
      <point x="182" y="2" type="line"/>
      <point x="42" y="517" type="line"/>
      <point x="40" y="517" type="line"/>
      <point x="181" y="0" type="line"/>
      <point x="183" y="0" type="line"/>
      <point x="336" y="515" type="line"/>
      <point x="489" y="0" type="line"/>
      <point x="491" y="0" type="line"/>
    </contour>
  </outline>
</glyph>
<glyph name="x" format="2">
  <advance width="424"/>
  <unicode hex="0078"/>
  <anchor x="212" y="0" name="bottom"/>
  <anchor x="407" y="0" name="bottomright"/>
  <anchor x="212" y="517" name="top"/>
  <outline>
    <contour>
      <point x="54" y="517" type="line"/>
      <point x="52" y="517" type="line"/>
      <point x="209" y="278" type="line"/>
      <point x="210" y="277" type="line"/>
      <point x="397" y="0" type="line"/>
      <point x="399" y="0" type="line"/>
      <point x="211" y="278" type="line"/>
      <point x="210" y="279" type="line"/>
    </contour>
    <contour>
      <point x="372" y="517" type="line"/>
      <point x="370" y="517" type="line"/>
      <point x="210" y="279" type="line"/>
      <point x="209" y="278" type="line"/>
      <point x="25" y="0" type="line"/>
      <point x="27" y="0" type="line"/>
      <point x="210" y="277" type="line"/>
      <point x="211" y="278" type="line"/>
    </contour>
  </outline>
</glyph>
<glyph name="y" format="2">
  <advance width="434"/>
  <unicode hex="0079"/>
  <anchor x="226" y="-188" name="bottom"/>
  <anchor x="217" y="517" name="top"/>
  <outline>
    <contour>
      <point x="404" y="517" type="line"/>
      <point x="402" y="517" type="line"/>
      <point x="224" y="0" type="line"/>
      <point x="32" y="517" type="line"/>
      <point x="30" y="517" type="line"/>
      <point x="222" y="0" type="line"/>
      <point x="224" y="0" type="line"/>
      <point x="185" y="-112"/>
      <point x="163" y="-157"/>
      <point x="61" y="-187" type="curve"/>
      <point x="61" y="-189" type="line"/>
      <point x="165" y="-159"/>
      <point x="187" y="-112"/>
      <point x="226" y="0" type="curve" smooth="yes"/>
    </contour>
  </outline>
</glyph>
<glyph name="z" format="2">
  <advance width="410"/>
  <unicode hex="007A"/>
  <anchor x="207" y="0" name="bottom"/>
  <anchor x="215" y="517" name="top"/>
  <outline>
    <contour>
      <point x="370" y="517" type="line"/>
      <point x="66" y="517" type="line"/>
      <point x="66" y="515" type="line"/>
      <point x="367" y="515" type="line"/>
      <point x="35" y="2" type="line"/>
      <point x="35" y="0" type="line"/>
      <point x="359" y="0" type="line"/>
      <point x="359" y="2" type="line"/>
      <point x="38" y="2" type="line"/>
      <point x="370" y="515" type="line"/>
    </contour>
  </outline>
</glyph>
<glyph name="cent" format="2">
  <advance width="469"/>
  <unicode hex="00A2"/>
  <anchor x="285" y="-1" name="bottom"/>
  <anchor x="269" y="517" name="top"/>
  <outline>
    <contour>
      <point x="283" y="672" type="line"/>
      <point x="281" y="672" type="line"/>
      <point x="281" y="526" type="line"/>
      <point x="283" y="526" type="line"/>
    </contour>
    <contour>
      <point x="275" y="-8" type="line"/>
      <point x="275" y="-144" type="line"/>
      <point x="277" y="-144" type="line"/>
      <point x="277" y="-8" type="line"/>
    </contour>
    <component base="c"/>
  </outline>
</glyph>
<glyph name="section" format="2">
  <advance width="531"/>
  <unicode hex="00A7"/>
  <outline>
    <contour>
      <point x="272" y="670" type="curve"/>
      <point x="202" y="670"/>
      <point x="135" y="624"/>
      <point x="135" y="552" type="curve" smooth="yes"/>
      <point x="135" y="492"/>
      <point x="165" y="462"/>
      <point x="280" y="424" type="curve" smooth="yes"/>
      <point x="382" y="390"/>
      <point x="419" y="358"/>
      <point x="419" y="284" type="curve"/>
      <point x="419" y="224"/>
      <point x="382" y="184"/>
      <point x="333" y="157" type="curve"/>
      <point x="335" y="156" type="line"/>
      <point x="384" y="183"/>
      <point x="421" y="224"/>
      <point x="421" y="284" type="curve"/>
      <point x="421" y="359"/>
      <point x="384" y="391"/>
      <point x="280" y="426" type="curve" smooth="yes"/>
      <point x="167" y="464"/>
      <point x="137" y="493"/>
      <point x="137" y="552" type="curve" smooth="yes"/>
      <point x="137" y="623"/>
      <point x="202" y="668"/>
      <point x="272" y="668" type="curve"/>
      <point x="327" y="668"/>
      <point x="366" y="655"/>
      <point x="409" y="628" type="curve"/>
      <point x="410" y="630" type="line"/>
      <point x="366" y="657"/>
      <point x="327" y="670"/>
    </contour>
    <contour>
      <point x="205" y="455" type="line"/>
      <point x="140" y="415"/>
      <point x="110" y="375"/>
      <point x="110" y="321" type="curve"/>
      <point x="110" y="248"/>
      <point x="152" y="218"/>
      <point x="257" y="185" type="curve" smooth="yes"/>
      <point x="364" y="151"/>
      <point x="396" y="124"/>
      <point x="396" y="61" type="curve" smooth="yes"/>
      <point x="396" y="-12"/>
      <point x="338" y="-57"/>
      <point x="261" y="-57" type="curve"/>
      <point x="201" y="-57"/>
      <point x="157" y="-44"/>
      <point x="117" y="-16" type="curve"/>
      <point x="115" y="-18" type="line"/>
      <point x="157" y="-46"/>
      <point x="201" y="-59"/>
      <point x="261" y="-59" type="curve"/>
      <point x="340" y="-59"/>
      <point x="398" y="-12"/>
      <point x="398" y="61" type="curve" smooth="yes"/>
      <point x="398" y="124"/>
      <point x="366" y="153"/>
      <point x="257" y="187" type="curve" smooth="yes"/>
      <point x="152" y="220"/>
      <point x="112" y="250"/>
      <point x="112" y="321" type="curve"/>
      <point x="112" y="375"/>
      <point x="142" y="413"/>
      <point x="206" y="454" type="curve"/>
    </contour>
  </outline>
</glyph>
<glyph name="copyright" format="2">
  <advance width="810"/>
  <unicode hex="00A9"/>
  <outline>
    <contour>
      <point x="405" y="711" type="curve"/>
      <point x="250" y="711"/>
      <point x="138" y="596"/>
      <point x="138" y="435" type="curve"/>
      <point x="138" y="271"/>
      <point x="250" y="159"/>
      <point x="405" y="159" type="curve"/>
      <point x="560" y="159"/>
      <point x="672" y="274"/>
      <point x="672" y="435" type="curve"/>
      <point x="672" y="599"/>
      <point x="560" y="711"/>
    </contour>
    <contour>
      <point x="403" y="602" type="curve"/>
      <point x="347" y="602"/>
      <point x="277" y="557"/>
      <point x="277" y="437" type="curve" smooth="yes"/>
      <point x="277" y="323"/>
      <point x="333" y="271"/>
      <point x="401" y="271" type="curve"/>
      <point x="446" y="271"/>
      <point x="473" y="285"/>
      <point x="491" y="301" type="curve"/>
      <point x="490" y="303" type="line"/>
      <point x="471" y="287"/>
      <point x="446" y="273"/>
      <point x="401" y="273" type="curve"/>
      <point x="334" y="273"/>
      <point x="279" y="324"/>
      <point x="279" y="437" type="curve" smooth="yes"/>
      <point x="279" y="556"/>
      <point x="348" y="600"/>
      <point x="403" y="600" type="curve"/>
      <point x="440" y="600"/>
      <point x="462" y="588"/>
      <point x="479" y="574" type="curve"/>
      <point x="480" y="576" type="line"/>
      <point x="463" y="590"/>
      <point x="440" y="602"/>
    </contour>
    <contour>
      <point x="405" y="709" type="curve"/>
      <point x="559" y="709"/>
      <point x="670" y="598"/>
      <point x="670" y="435" type="curve"/>
      <point x="670" y="275"/>
      <point x="559" y="161"/>
      <point x="405" y="161" type="curve"/>
      <point x="251" y="161"/>
      <point x="140" y="272"/>
      <point x="140" y="435" type="curve"/>
      <point x="140" y="595"/>
      <point x="251" y="709"/>
    </contour>
  </outline>
</glyph>
<glyph name="degree" format="2">
  <advance width="521"/>
  <unicode hex="00B0"/>
  <outline>
    <contour>
      <point x="220" y="423" type="curve"/>
      <point x="149" y="423"/>
      <point x="97" y="476"/>
      <point x="97" y="556" type="curve"/>
      <point x="97" y="632"/>
      <point x="148" y="688"/>
      <point x="220" y="688" type="curve"/>
      <point x="298" y="688"/>
      <point x="344" y="632"/>
      <point x="344" y="555" type="curve"/>
      <point x="344" y="476"/>
      <point x="298" y="423"/>
    </contour>
    <contour>
      <point x="220" y="421" type="curve"/>
      <point x="299" y="421"/>
      <point x="346" y="475"/>
      <point x="346" y="555" type="curve"/>
      <point x="346" y="633"/>
      <point x="299" y="690"/>
      <point x="220" y="690" type="curve"/>
      <point x="147" y="690"/>
      <point x="95" y="633"/>
      <point x="95" y="556" type="curve"/>
      <point x="95" y="475"/>
      <point x="148" y="421"/>
    </contour>
  </outline>
</glyph>
<glyph name="Eth" format="2">
  <advance width="607"/>
  <unicode hex="00D0"/>
  <anchor x="304" y="0" name="bottom"/>
  <anchor x="303" y="340" name="center"/>
  <anchor x="283" y="680" name="top"/>
  <outline>
    <contour>
      <point x="322" y="354" type="line"/>
      <point x="124" y="354" type="line"/>
      <point x="30" y="354" type="line"/>
      <point x="30" y="352" type="line"/>
      <point x="322" y="352" type="line"/>
    </contour>
    <component base="D" xOffset="-6"/>
  </outline>
</glyph>
<glyph name="dcroat" format="2">
  <advance width="577"/>
  <unicode hex="0111"/>
  <anchor x="288" y="0" name="bottom"/>
  <anchor x="289" y="259" name="center"/>
  <anchor x="280" y="727" name="top"/>
  <anchor x="497" y="727" name="topright"/>
  <outline>
    <contour>
      <point x="522" y="640" type="line"/>
      <point x="265" y="640" type="line"/>
      <point x="265" y="638" type="line"/>
      <point x="447" y="638" type="line"/>
      <point x="522" y="638" type="line"/>
    </contour>
    <component base="d"/>
  </outline>
</glyph>
<glyph name="hbar" format="2">
  <advance width="585"/>
  <unicode hex="0127"/>
  <anchor x="298" y="0" name="bottom"/>
  <anchor x="298" y="260" name="center"/>
  <anchor x="298" y="727" name="top"/>
  <outline>
    <contour>
      <point x="323" y="640" type="line"/>
      <point x="55" y="640" type="line"/>
      <point x="55" y="638" type="line"/>
      <point x="130" y="638" type="line"/>
      <point x="323" y="638" type="line"/>
    </contour>
    <component base="h" xOffset="5"/>
  </outline>
</glyph>
<glyph name="dotlessi" format="2">
  <advance width="252"/>
  <unicode hex="0131"/>
  <anchor x="126" y="0" name="bottom"/>
  <anchor x="137" y="0" name="ogonek"/>
  <anchor x="126" y="517" name="top"/>
  <outline>
    <contour>
      <point x="127" y="517" type="line"/>
      <point x="125" y="517" type="line"/>
      <point x="125" y="0" type="line"/>
      <point x="127" y="0" type="line"/>
    </contour>
  </outline>
</glyph>
<glyph name="kgreenlandic" format="2">
  <advance width="446"/>
  <unicode hex="0138"/>
  <anchor x="223" y="0" name="bottom"/>
  <anchor x="223" y="517" name="top"/>
  <outline>
    <contour>
      <point x="394" y="517" type="line"/>
      <point x="391" y="517" type="line"/>
      <point x="131" y="273" type="line"/>
      <point x="418" y="0" type="line"/>
      <point x="421" y="0" type="line"/>
      <point x="134" y="273" type="line"/>
    </contour>
    <contour>
      <point x="127" y="517" type="line"/>
      <point x="125" y="517" type="line"/>
      <point x="125" y="0" type="line"/>
      <point x="127" y="0" type="line"/>
    </contour>
  </outline>
</glyph>
<glyph name="Lslash" format="2">
  <advance width="447"/>
  <unicode hex="0141"/>
  <anchor x="277" y="0" name="bottom"/>
  <anchor x="352" y="355" name="center"/>
  <anchor x="133" y="680" name="top"/>
  <anchor x="184" y="680" name="topright"/>
  <outline>
    <contour>
      <point x="341" y="456" type="line"/>
      <point x="132" y="327" type="line"/>
      <point x="52" y="278" type="line"/>
      <point x="53" y="276" type="line"/>
      <point x="342" y="454" type="line"/>
    </contour>
    <component base="L" xOffset="2"/>
  </outline>
</glyph>
<glyph name="lslash" format="2">
  <advance width="288"/>
  <unicode hex="0142"/>
  <anchor x="180" y="0" name="bottom"/>
  <anchor x="262" y="375" name="center"/>
  <anchor x="127" y="730" name="top"/>
  <anchor x="188" y="727" name="topright"/>
  <outline>
    <contour>
      <point x="56" y="317" type="line"/>
      <point x="238" y="432" type="line"/>
      <point x="237" y="434" type="line"/>
      <point x="126" y="364" type="line"/>
      <point x="55" y="319" type="line"/>
    </contour>
    <component base="l" xOffset="6"/>
  </outline>
</glyph>
<glyph name="napostrophe" format="2">
  <advance width="632"/>
  <unicode hex="0149"/>
  <anchor x="339" y="0" name="bottom"/>
  <anchor x="347" y="517" name="top"/>
  <anchor x="167" y="517" name="topleft"/>
  <outline>
    <contour>
      <point x="94" y="733" type="curve" smooth="yes"/>
      <point x="91" y="733"/>
      <point x="89" y="731"/>
      <point x="89" y="728" type="curve" smooth="yes"/>
      <point x="89" y="725"/>
      <point x="91" y="723"/>
      <point x="95" y="723" type="curve"/>
      <point x="72" y="601" type="line"/>
      <point x="73" y="601" type="line"/>
      <point x="98" y="720" type="line" smooth="yes"/>
      <point x="99" y="725"/>
      <point x="99" y="726"/>
      <point x="99" y="728" type="curve"/>
      <point x="99" y="731"/>
      <point x="97" y="733"/>
    </contour>
    <component base="n" xOffset="52"/>
  </outline>
</glyph>
<glyph name="Tbar" format="2">
  <advance width="472"/>
  <unicode hex="0166"/>
  <anchor x="236" y="0" name="bottom"/>
  <anchor x="247" y="0" name="bottomright"/>
  <anchor x="236" y="340" name="center"/>
  <anchor x="236" y="680" name="top"/>
  <outline>
    <contour>
      <point x="359" y="376" type="line"/>
      <point x="111" y="376" type="line"/>
      <point x="111" y="374" type="line"/>
      <point x="235" y="374" type="line"/>
      <point x="359" y="374" type="line"/>
    </contour>
    <component base="T"/>
  </outline>
</glyph>
<glyph name="tbar" format="2">
  <advance width="322"/>
  <unicode hex="0167"/>
  <anchor x="225" y="0" name="bottom"/>
  <anchor x="145" y="259" name="center"/>
  <anchor x="118" y="651" name="top"/>
  <anchor x="157" y="730" name="topright"/>
  <outline>
    <contour>
      <point x="265" y="335" type="line"/>
      <point x="117" y="335" type="line"/>
      <point x="30" y="335" type="line"/>
      <point x="30" y="333" type="line"/>
      <point x="265" y="333" type="line"/>
    </contour>
    <component base="t"/>
  </outline>
</glyph>
<glyph name="bstroke" format="2">
  <advance width="572"/>
  <unicode hex="0180"/>
  <anchor x="289" y="0" name="bottom"/>
  <anchor x="294" y="727" name="top"/>
  <outline>
    <contour>
      <point x="323" y="640" type="line"/>
      <point x="55" y="640" type="line"/>
      <point x="55" y="638" type="line"/>
      <point x="130" y="638" type="line"/>
      <point x="323" y="638" type="line"/>
    </contour>
    <component base="b" xOffset="5"/>
  </outline>
</glyph>
<glyph name="Dtopbar" format="2">
  <advance width="564"/>
  <unicode hex="018B"/>
  <anchor x="282" y="0" name="bottom"/>
  <anchor x="282" y="680" name="top"/>
  <outline>
    <contour>
      <point x="136" y="680" type="line"/>
      <point x="136" y="678" type="line"/>
      <point x="433" y="678" type="line"/>
      <point x="434" y="680" type="line"/>
    </contour>
    <component base="Komide-cy" xOffset="15"/>
  </outline>
</glyph>
<glyph name="Iotaafrican" format="2">
  <advance width="323"/>
  <unicode hex="0196"/>
  <anchor x="192" y="0" name="bottom"/>
  <anchor x="121" y="680" name="top"/>
  <outline>
    <contour>
      <point x="122" y="680" type="line"/>
      <point x="120" y="680" type="line"/>
      <point x="120" y="181" type="line"/>
      <point x="122" y="181" type="line"/>
    </contour>
    <component base="hookHELPER.case" xScale="-1" xOffset="326" yOffset="183"/>
  </outline>
</glyph>
<glyph name="khook" format="2">
  <advance width="448"/>
  <unicode hex="0199"/>
  <outline>
    <contour>
      <point x="396" y="517" type="line"/>
      <point x="393" y="517" type="line"/>
      <point x="133" y="283" type="line"/>
      <point x="420" y="0" type="line"/>
      <point x="423" y="0" type="line"/>
      <point x="136" y="283" type="line"/>
    </contour>
    <contour>
      <point x="127" y="517" type="line"/>
      <point x="125" y="517" type="line"/>
      <point x="125" y="0" type="line"/>
      <point x="127" y="0" type="line"/>
    </contour>
    <component base="hookaboveHELPER" xOffset="82"/>
  </outline>
</glyph>
<glyph name="Nhookleft" format="2">
  <advance width="654"/>
  <unicode hex="019D"/>
  <anchor x="321" y="0" name="bottom"/>
  <anchor x="331" y="680" name="top"/>
  <outline>
    <contour>
      <point x="48" y="-192" type="curve" smooth="yes"/>
      <point x="98" y="-192"/>
      <point x="132" y="-159"/>
      <point x="132" y="-97" type="curve" smooth="yes"/>
      <point x="132" y="1" type="line"/>
      <point x="130" y="1" type="line"/>
      <point x="130" y="-97" type="line" smooth="yes"/>
      <point x="130" y="-158"/>
      <point x="97" y="-190"/>
      <point x="48" y="-190" type="curve" smooth="yes"/>
      <point x="11" y="-190"/>
      <point x="-11" y="-178"/>
      <point x="-30" y="-162" type="curve"/>
      <point x="-31" y="-164" type="line"/>
      <point x="-13" y="-179"/>
      <point x="10" y="-192"/>
    </contour>
    <component base="N"/>
  </outline>
</glyph>
<glyph name="nlegrightlong" format="2">
  <advance width="580"/>
  <unicode hex="019E"/>
  <anchor x="287" y="0" name="bottom"/>
  <anchor x="295" y="517" name="top"/>
  <anchor x="115" y="517" name="topleft"/>
  <outline>
    <contour>
      <point x="460" y="1" type="line"/>
      <point x="458" y="1" type="line"/>
      <point x="458" y="-190" type="line"/>
      <point x="460" y="-190" type="line"/>
    </contour>
    <component base="n"/>
  </outline>
</glyph>
<glyph name="Zstroke" format="2">
  <advance width="504"/>
  <unicode hex="01B5"/>
  <anchor x="252" y="0" name="bottom"/>
  <anchor x="252" y="680" name="top"/>
  <outline>
    <contour>
      <point x="454" y="680" type="line"/>
      <point x="82" y="680" type="line"/>
      <point x="82" y="678" type="line"/>
      <point x="451" y="678" type="line"/>
      <point x="45" y="2" type="line"/>
      <point x="45" y="0" type="line"/>
      <point x="437" y="0" type="line"/>
      <point x="437" y="2" type="line"/>
      <point x="48" y="2" type="line"/>
      <point x="454" y="678" type="line"/>
    </contour>
    <component base="hyphen" xScale="1.1" xOffset="32" yOffset="30"/>
  </outline>
</glyph>
<glyph name="zstroke" format="2">
  <advance width="410"/>
  <unicode hex="01B6"/>
  <anchor x="205" y="0" name="bottom"/>
  <anchor x="205" y="517" name="top"/>
  <outline>
    <contour>
      <point x="370" y="517" type="line"/>
      <point x="66" y="517" type="line"/>
      <point x="66" y="515" type="line"/>
      <point x="367" y="515" type="line"/>
      <point x="35" y="2" type="line"/>
      <point x="35" y="0" type="line"/>
      <point x="359" y="0" type="line"/>
      <point x="359" y="2" type="line"/>
      <point x="38" y="2" type="line"/>
      <point x="370" y="515" type="line"/>
    </contour>
    <component base="hyphen" xOffset="10" yOffset="-45"/>
  </outline>
</glyph>
<glyph name="Wynn" format="2">
  <advance width="552"/>
  <unicode hex="01F7"/>
  <anchor x="276" y="0" name="bottom"/>
  <anchor x="276" y="680" name="top"/>
  <outline>
    <contour>
      <point x="131" y="600" type="curve"/>
      <point x="131" y="597" type="line"/>
      <point x="174" y="645"/>
      <point x="229" y="688"/>
      <point x="317" y="688" type="curve" smooth="yes"/>
      <point x="417" y="688"/>
      <point x="485" y="621"/>
      <point x="485" y="515" type="curve" smooth="yes"/>
      <point x="485" y="377"/>
      <point x="386" y="319"/>
      <point x="249" y="273" type="curve" smooth="yes"/>
      <point x="131" y="233" type="line"/>
      <point x="131" y="231" type="line"/>
      <point x="249" y="271" type="line" smooth="yes"/>
      <point x="388" y="318"/>
      <point x="487" y="376"/>
      <point x="487" y="515" type="curve" smooth="yes"/>
      <point x="487" y="622"/>
      <point x="418" y="690"/>
      <point x="317" y="690" type="curve" smooth="yes"/>
      <point x="228" y="690"/>
      <point x="172" y="646"/>
    </contour>
    <contour>
      <point x="132" y="680" type="line"/>
      <point x="130" y="680" type="line"/>
      <point x="130" y="0" type="line"/>
      <point x="132" y="0" type="line"/>
    </contour>
  </outline>
</glyph>
<glyph name="dotlessj" format="2">
  <advance width="252"/>
  <unicode hex="0237"/>
  <anchor x="126" y="-188" name="bottom"/>
  <anchor x="126" y="517" name="top"/>
  <outline>
    <contour>
      <point x="127" y="517" type="line"/>
      <point x="125" y="517" type="line"/>
      <point x="125" y="1" type="line" smooth="yes"/>
      <point x="125" y="-117"/>
      <point x="96" y="-153"/>
      <point x="28" y="-189" type="curve"/>
      <point x="29" y="-191" type="line"/>
      <point x="98" y="-154"/>
      <point x="127" y="-118"/>
      <point x="127" y="1" type="curve" smooth="yes"/>
    </contour>
  </outline>
</glyph>
<glyph name="Cstroke" format="2">
  <advance width="529"/>
  <unicode hex="023B"/>
  <anchor x="264.5" y="0" name="bottom"/>
  <anchor x="323" y="341" name="center"/>
  <anchor x="264.5" y="680" name="top"/>
  <outline>
    <contour>
      <point x="413" y="728" type="line"/>
      <point x="207" y="-57" type="line"/>
      <point x="209" y="-57" type="line"/>
      <point x="415" y="728" type="line"/>
    </contour>
    <component base="C"/>
  </outline>
</glyph>
<glyph name="cstroke" format="2">
  <advance width="469"/>
  <unicode hex="023C"/>
  <anchor x="285" y="-1" name="bottom"/>
  <anchor x="269" y="517" name="top"/>
  <outline>
    <contour>
      <point x="347" y="580" type="line"/>
      <point x="172" y="-57" type="line"/>
      <point x="174" y="-57" type="line"/>
      <point x="349" y="580" type="line"/>
    </contour>
    <component base="c"/>
  </outline>
</glyph>
<glyph name="Tdiagonalstroke" format="2">
  <advance width="472"/>
  <unicode hex="023E"/>
  <anchor x="236" y="0" name="bottom"/>
  <anchor x="236" y="680" name="top"/>
  <outline>
    <contour>
      <point x="235" y="0" type="line"/>
      <point x="237" y="0" type="line"/>
      <point x="237" y="678" type="line"/>
      <point x="452" y="678" type="line"/>
      <point x="452" y="680" type="line"/>
      <point x="20" y="680" type="line"/>
      <point x="20" y="678" type="line"/>
      <point x="235" y="678" type="line"/>
    </contour>
    <contour>
      <point x="119" y="-57" type="line"/>
      <point x="345" y="728" type="line"/>
      <point x="343" y="728" type="line"/>
      <point x="117" y="-57" type="line"/>
    </contour>
  </outline>
</glyph>
<glyph name="Bstroke" format="2">
  <advance width="575"/>
  <unicode hex="0243"/>
  <anchor x="304" y="0" name="bottom"/>
  <anchor x="275" y="680" name="top"/>
  <outline>
    <contour>
      <point x="322" y="194" type="line"/>
      <point x="124" y="194" type="line"/>
      <point x="30" y="194" type="line"/>
      <point x="30" y="192" type="line"/>
      <point x="322" y="192" type="line"/>
    </contour>
    <component base="B" xOffset="-6"/>
  </outline>
</glyph>
<glyph name="Ubar" format="2">
  <advance width="670"/>
  <unicode hex="0244"/>
  <anchor x="335" y="0" name="bottom"/>
  <anchor x="415" y="0" name="ogonek"/>
  <anchor x="335" y="680" name="top"/>
  <anchor x="542" y="680" name="topright"/>
  <outline>
    <contour>
      <point x="585" y="528" type="line"/>
      <point x="532" y="528" type="line"/>
      <point x="85" y="528" type="line"/>
      <point x="85" y="526" type="line"/>
      <point x="138" y="526" type="line"/>
      <point x="585" y="526" type="line"/>
    </contour>
    <component base="U" xOffset="18"/>
  </outline>
</glyph>
<glyph name="Estroke" format="2">
  <advance width="495"/>
  <unicode hex="0246"/>
  <anchor x="247.5" y="0" name="bottom"/>
  <anchor x="425" y="0" name="ogonek"/>
  <anchor x="247.5" y="680" name="top"/>
  <anchor x="80" y="680" name="topleft"/>
  <outline>
    <contour>
      <point x="383" y="728" type="line"/>
      <point x="177" y="-57" type="line"/>
      <point x="179" y="-57" type="line"/>
      <point x="385" y="728" type="line"/>
    </contour>
    <component base="E"/>
  </outline>
</glyph>
<glyph name="Qhooktail" format="2">
  <advance width="639"/>
  <unicode hex="024A"/>
  <anchor x="319.5" y="-188" name="bottom"/>
  <anchor x="319.5" y="680" name="top"/>
  <outline>
    <contour>
      <point x="323" y="-9" type="curve" smooth="yes"/>
      <point x="407" y="-9"/>
      <point x="466" y="28"/>
      <point x="508" y="97" type="curve"/>
      <point x="508" y="100" type="line"/>
      <point x="465" y="30"/>
      <point x="407" y="-7"/>
      <point x="323" y="-7" type="curve" smooth="yes"/>
      <point x="185" y="-7"/>
      <point x="87" y="114"/>
      <point x="87" y="328" type="curve" smooth="yes"/>
      <point x="87" y="555"/>
      <point x="189" y="688"/>
      <point x="331" y="688" type="curve" smooth="yes"/>
      <point x="414" y="688"/>
      <point x="472" y="647"/>
      <point x="508" y="597" type="curve"/>
      <point x="508" y="600" type="line"/>
      <point x="473" y="649"/>
      <point x="414" y="690"/>
      <point x="331" y="690" type="curve" smooth="yes"/>
      <point x="188" y="690"/>
      <point x="85" y="557"/>
      <point x="85" y="328" type="curve" smooth="yes"/>
      <point x="85" y="112"/>
      <point x="184" y="-9"/>
    </contour>
    <contour>
      <point x="507" y="0" type="line"/>
      <point x="509" y="0" type="line"/>
      <point x="509" y="680" type="line"/>
      <point x="507" y="680" type="line"/>
      <point x="507" y="600" type="line"/>
      <point x="507" y="98" type="line"/>
    </contour>
    <component base="hookHELPER.case" xScale="-1" xOffset="713"/>
  </outline>
</glyph>
<glyph name="Rstroke" format="2">
  <advance width="555"/>
  <unicode hex="024C"/>
  <anchor x="295" y="0" name="bottom"/>
  <anchor x="275" y="680" name="top"/>
  <outline>
    <contour>
      <point x="206" y="334" type="line"/>
      <point x="200" y="336" type="line"/>
      <point x="124" y="336" type="line"/>
      <point x="30" y="336" type="line"/>
      <point x="30" y="334" type="line"/>
    </contour>
    <component base="R" xOffset="-6"/>
  </outline>
</glyph>
<glyph name="Ystroke" format="2">
  <advance width="479"/>
  <unicode hex="024E"/>
  <anchor x="239.5" y="0" name="bottom"/>
  <anchor x="239.5" y="680" name="top"/>
  <outline>
    <contour>
      <point x="454" y="578" type="line"/>
      <point x="400" y="578" type="line"/>
      <point x="79" y="578" type="line"/>
      <point x="25" y="578" type="line"/>
      <point x="25" y="576" type="line"/>
      <point x="454" y="576" type="line"/>
    </contour>
    <contour>
      <point x="454" y="680" type="line"/>
      <point x="452" y="680" type="line"/>
      <point x="240" y="273" type="line"/>
      <point x="27" y="680" type="line"/>
      <point x="25" y="680" type="line"/>
      <point x="239" y="271" type="line"/>
      <point x="239" y="0" type="line"/>
      <point x="241" y="0" type="line"/>
      <point x="241" y="271" type="line"/>
    </contour>
  </outline>
</glyph>
<glyph name="ystroke" format="2">
  <advance width="424"/>
  <unicode hex="024F"/>
  <anchor x="221" y="-188" name="bottom"/>
  <anchor x="212" y="517" name="top"/>
  <outline>
    <contour>
      <point x="29" y="380" type="line"/>
      <point x="399" y="380" type="line"/>
      <point x="399" y="382" type="line"/>
      <point x="353" y="382" type="line"/>
      <point x="76" y="382" type="line"/>
      <point x="29" y="382" type="line"/>
    </contour>
    <component base="y" xOffset="-5"/>
  </outline>
</glyph>
<glyph name="jdotlessstroke" format="2">
  <advance width="280"/>
  <unicode hex="025F"/>
  <anchor x="144" y="-188" name="bottom"/>
  <anchor x="144" y="517" name="top"/>
  <outline>
    <contour>
      <point x="25" y="243" type="line"/>
      <point x="255" y="243" type="line"/>
      <point x="255" y="245" type="line"/>
      <point x="25" y="245" type="line"/>
    </contour>
    <component base="dotlessj" xOffset="18"/>
  </outline>
</glyph>
<glyph name="hturned" format="2">
  <advance width="580"/>
  <unicode hex="0265"/>
  <anchor x="290" y="-188" name="bottom"/>
  <anchor x="290" y="517" name="top"/>
  <outline>
    <contour>
      <point x="254" y="-10" type="curve" smooth="yes"/>
      <point x="342" y="-10"/>
      <point x="406" y="42"/>
      <point x="454" y="128" type="curve"/>
      <point x="453" y="130" type="line"/>
      <point x="405" y="44"/>
      <point x="341" y="-8"/>
      <point x="254" y="-8" type="curve" smooth="yes"/>
      <point x="161" y="-8"/>
      <point x="122" y="53"/>
      <point x="122" y="149" type="curve" smooth="yes"/>
      <point x="122" y="517" type="line"/>
      <point x="120" y="517" type="line"/>
      <point x="120" y="149" type="line" smooth="yes"/>
      <point x="120" y="52"/>
      <point x="160" y="-10"/>
    </contour>
    <contour>
      <point x="453" y="-190" type="line"/>
      <point x="455" y="-190" type="line"/>
      <point x="455" y="517" type="line"/>
      <point x="453" y="517" type="line"/>
    </contour>
  </outline>
</glyph>
<glyph name="hhook" format="2">
  <advance width="580"/>
  <unicode hex="0266"/>
  <anchor x="290" y="0" name="bottom"/>
  <anchor x="290" y="727" name="top"/>
  <outline>
    <contour>
      <point x="326" y="527" type="curve" smooth="yes"/>
      <point x="238" y="527"/>
      <point x="174" y="475"/>
      <point x="126" y="389" type="curve"/>
      <point x="127" y="387" type="line"/>
      <point x="175" y="473"/>
      <point x="239" y="525"/>
      <point x="326" y="525" type="curve" smooth="yes"/>
      <point x="419" y="525"/>
      <point x="458" y="464"/>
      <point x="458" y="368" type="curve" smooth="yes"/>
      <point x="458" y="0" type="line"/>
      <point x="460" y="0" type="line"/>
      <point x="460" y="368" type="line" smooth="yes"/>
      <point x="460" y="465"/>
      <point x="420" y="527"/>
    </contour>
    <contour>
      <point x="127" y="517" type="line"/>
      <point x="125" y="517" type="line"/>
      <point x="125" y="0" type="line"/>
      <point x="127" y="0" type="line"/>
    </contour>
    <component base="hookaboveHELPER" xOffset="82"/>
  </outline>
</glyph>
<glyph name="Ismall" format="2">
  <advance width="310"/>
  <unicode hex="026A"/>
  <anchor x="155" y="0" name="bottom"/>
  <anchor x="155" y="517" name="top"/>
  <outline>
    <contour>
      <point x="154" y="0" type="line"/>
      <point x="156" y="0" type="line"/>
      <point x="156" y="517" type="line"/>
      <point x="154" y="517" type="line"/>
    </contour>
    <contour>
      <point x="40" y="0" type="line"/>
      <point x="270" y="0" type="line"/>
      <point x="270" y="2" type="line"/>
      <point x="40" y="2" type="line"/>
    </contour>
    <contour>
      <point x="40" y="515" type="line"/>
      <point x="270" y="515" type="line"/>
      <point x="270" y="517" type="line"/>
      <point x="40" y="517" type="line"/>
    </contour>
  </outline>
</glyph>
<glyph name="lbelt" format="2">
  <advance width="296"/>
  <unicode hex="026C"/>
  <anchor x="195" y="0" name="bottom"/>
  <anchor x="277" y="375" name="center"/>
  <anchor x="142" y="730" name="top"/>
  <anchor x="203" y="727" name="topright"/>
  <outline>
    <contour>
      <point x="141" y="290" type="curve"/>
      <point x="143" y="290" type="line"/>
      <point x="177" y="291"/>
      <point x="196" y="293"/>
      <point x="223" y="298" type="curve"/>
      <point x="223" y="300" type="line"/>
      <point x="196" y="295"/>
      <point x="177" y="293"/>
      <point x="143" y="292" type="curve"/>
      <point x="141" y="292" type="line"/>
      <point x="74" y="292"/>
      <point x="37" y="316"/>
      <point x="37" y="365" type="curve" smooth="yes"/>
      <point x="37" y="410"/>
      <point x="69" y="433"/>
      <point x="114" y="433" type="curve" smooth="yes"/>
      <point x="125" y="433"/>
      <point x="134" y="432"/>
      <point x="142" y="431" type="curve"/>
      <point x="142" y="433" type="line"/>
      <point x="134" y="434"/>
      <point x="125" y="435"/>
      <point x="114" y="435" type="curve" smooth="yes"/>
      <point x="68" y="435"/>
      <point x="35" y="411"/>
      <point x="35" y="365" type="curve" smooth="yes"/>
      <point x="35" y="315"/>
      <point x="73" y="290"/>
    </contour>
    <component base="l" xOffset="21"/>
  </outline>
</glyph>
<glyph name="lhookretroflex" format="2">
  <advance width="252"/>
  <unicode hex="026D"/>
  <anchor x="209" y="-188" name="bottom"/>
  <anchor x="126" y="727" name="top"/>
  <outline>
    <contour>
      <point x="125" y="0" type="line"/>
      <point x="127" y="0" type="line"/>
      <point x="127" y="730" type="line"/>
      <point x="125" y="730" type="line"/>
    </contour>
    <component base="hookHELPER" xScale="-1" xOffset="331"/>
  </outline>
</glyph>
<glyph name="mlonglegturned" format="2">
  <advance width="845"/>
  <unicode hex="0270"/>
  <anchor x="419" y="517" name="top"/>
  <anchor x="424" y="-188" name="bottom"/>
  <outline>
    <contour>
      <point x="718" y="128" type="line"/>
      <point x="718" y="-190" type="line"/>
      <point x="720" y="-190" type="line"/>
      <point x="720" y="128" type="line"/>
    </contour>
    <component base="mturned"/>
  </outline>
</glyph>
<glyph name="Nsmall" format="2">
  <advance width="578"/>
  <unicode hex="0274"/>
  <anchor x="289" y="0" name="bottom"/>
  <anchor x="289" y="517" name="top"/>
  <outline>
    <contour>
      <point x="453" y="517" type="line"/>
      <point x="451" y="517" type="line"/>
      <point x="451" y="113" type="line"/>
      <point x="451" y="79"/>
      <point x="451" y="36"/>
      <point x="451" y="3" type="curve"/>
      <point x="128" y="517" type="line"/>
      <point x="125" y="517" type="line"/>
      <point x="125" y="0" type="line"/>
      <point x="127" y="0" type="line"/>
      <point x="127" y="430" type="line"/>
      <point x="127" y="469"/>
      <point x="127" y="496"/>
      <point x="127" y="515" type="curve"/>
      <point x="450" y="0" type="line"/>
      <point x="453" y="0" type="line"/>
    </contour>
  </outline>
</glyph>
<glyph name="rlonglegturned" format="2">
  <advance width="361"/>
  <unicode hex="027A"/>
  <anchor x="235" y="727" name="top"/>
  <anchor x="157" y="0" name="bottom"/>
  <outline>
    <contour>
      <point x="234" y="516" type="line"/>
      <point x="236" y="516" type="line"/>
      <point x="236" y="730" type="line"/>
      <point x="234" y="730" type="line"/>
    </contour>
    <component base="rturned"/>
  </outline>
</glyph>
<glyph name="rfishhook" format="2">
  <advance width="313"/>
  <unicode hex="027E"/>
  <anchor x="121" y="0" name="bottom"/>
  <anchor x="204" y="517" name="top"/>
  <outline>
    <contour>
      <point x="122" y="328" type="line"/>
      <point x="120" y="328" type="line"/>
      <point x="120" y="0" type="line"/>
      <point x="122" y="0" type="line"/>
    </contour>
    <component base="hookHELPER" xScale="-1" yScale="-1" xOffset="326" yOffset="328"/>
  </outline>
</glyph>
<glyph name="esh" format="2">
  <advance width="256"/>
  <unicode hex="0283"/>
  <anchor x="45" y="-188" name="bottom"/>
  <anchor x="218" y="727" name="top"/>
  <outline>
    <contour>
      <point x="129" y="517" type="line"/>
      <point x="127" y="517" type="line"/>
      <point x="127" y="0" type="line"/>
      <point x="129" y="0" type="line"/>
    </contour>
    <component base="hookaboveHELPER2" xOffset="84"/>
    <component base="hookHELPER" xOffset="-77"/>
  </outline>
</glyph>
<glyph name="tretroflexhook" format="2">
  <advance width="322"/>
  <unicode hex="0288"/>
  <anchor x="201" y="-188" name="bottom"/>
  <anchor x="118" y="651" name="top"/>
  <outline>
    <contour>
      <point x="117" y="0" type="line"/>
      <point x="119" y="0" type="line"/>
      <point x="119" y="651" type="line"/>
      <point x="117" y="651" type="line"/>
    </contour>
    <contour>
      <point x="30" y="515" type="line"/>
      <point x="265" y="515" type="line"/>
      <point x="265" y="517" type="line"/>
      <point x="30" y="517" type="line"/>
    </contour>
    <component base="hookHELPER" xScale="-1" xOffset="323"/>
  </outline>
</glyph>
<glyph name="Ysmall" format="2">
  <advance width="392"/>
  <unicode hex="028F"/>
  <anchor x="196" y="0" name="bottom"/>
  <anchor x="196" y="517" name="top"/>
  <outline>
    <contour>
      <point x="372" y="517" type="line"/>
      <point x="370" y="517" type="line"/>
      <point x="197" y="214" type="line"/>
      <point x="22" y="517" type="line"/>
      <point x="20" y="517" type="line"/>
      <point x="196" y="212" type="line"/>
      <point x="196" y="0" type="line"/>
      <point x="198" y="0" type="line"/>
      <point x="198" y="212" type="line"/>
    </contour>
  </outline>
</glyph>
<glyph name="bilabialclick" format="2">
  <advance width="787"/>
  <unicode hex="0298"/>
  <anchor x="393" y="336" name="_center"/>
  <anchor x="393.5" y="680" name="top"/>
  <anchor x="393.5" y="0" name="bottom"/>
  <outline>
    <contour>
      <point x="393" y="689" type="curve" smooth="yes"/>
      <point x="208" y="689"/>
      <point x="85" y="554"/>
      <point x="85" y="337" type="curve" smooth="yes"/>
      <point x="85" y="121"/>
      <point x="204" y="-9"/>
      <point x="393" y="-9" type="curve" smooth="yes"/>
      <point x="590" y="-9"/>
      <point x="702" y="122"/>
      <point x="702" y="339" type="curve" smooth="yes"/>
      <point x="702" y="560"/>
      <point x="584" y="689"/>
    </contour>
    <contour>
      <point x="393" y="687" type="curve" smooth="yes"/>
      <point x="583" y="687"/>
      <point x="700" y="558"/>
      <point x="700" y="339" type="curve" smooth="yes"/>
      <point x="700" y="124"/>
      <point x="589" y="-7"/>
      <point x="393" y="-7" type="curve" smooth="yes"/>
      <point x="205" y="-7"/>
      <point x="87" y="123"/>
      <point x="87" y="337" type="curve" smooth="yes"/>
      <point x="87" y="552"/>
      <point x="209" y="687"/>
    </contour>
    <component base="dotaccentcomb" xOffset="357" yOffset="-364"/>
  </outline>
</glyph>
<glyph name="Lsmall" format="2">
  <advance width="396"/>
  <unicode hex="029F"/>
  <anchor x="251" y="0" name="bottom"/>
  <anchor x="126" y="517" name="top"/>
  <outline>
    <contour>
      <point x="127" y="517" type="line"/>
      <point x="125" y="517" type="line"/>
      <point x="125" y="0" type="line"/>
      <point x="376" y="0" type="line"/>
      <point x="376" y="2" type="line"/>
      <point x="127" y="2" type="line"/>
    </contour>
  </outline>
</glyph>
<glyph name="glottalstopstroke" format="2">
  <advance width="419"/>
  <unicode hex="02A1"/>
  <anchor x="139" y="0" name="bottom"/>
  <anchor x="186" y="727" name="top"/>
  <outline>
    <contour>
      <point x="66" y="200" type="line"/>
      <point x="66" y="198" type="line"/>
      <point x="139" y="198" type="line"/>
      <point x="261" y="198" type="line"/>
      <point x="261" y="200" type="line"/>
    </contour>
    <component base="glottalstop"/>
  </outline>
</glyph>
<glyph name="glottalstopstrokereversed" format="2">
  <advance width="419"/>
  <unicode hex="02A2"/>
  <anchor x="280" y="0" name="bottom"/>
  <anchor x="239" y="727" name="top"/>
  <outline>
    <contour>
      <point x="359" y="200" type="line"/>
      <point x="164" y="200" type="line"/>
      <point x="164" y="198" type="line"/>
      <point x="286" y="198" type="line"/>
      <point x="359" y="198" type="line"/>
    </contour>
    <component base="glottalstopreversed"/>
  </outline>
</glyph>
<glyph name="dzaltone" format="2">
  <advance width="841"/>
  <unicode hex="02A3"/>
  <anchor x="420.5" y="0" name="bottom"/>
  <anchor x="289" y="259" name="center"/>
  <anchor x="420.5" y="727" name="top"/>
  <anchor x="497" y="727" name="topright"/>
  <outline>
    <contour>
      <point x="801" y="517" type="line"/>
      <point x="446" y="517" type="line"/>
      <point x="446" y="515" type="line"/>
      <point x="798" y="515" type="line"/>
      <point x="446" y="2" type="line"/>
      <point x="446" y="0" type="line"/>
      <point x="790" y="0" type="line"/>
      <point x="790" y="2" type="line"/>
      <point x="449" y="2" type="line"/>
      <point x="801" y="515" type="line"/>
    </contour>
    <component base="d"/>
  </outline>
</glyph>
<glyph name="tesh" format="2">
  <advance width="535"/>
  <unicode hex="02A7"/>
  <anchor x="265" y="-188" name="bottom"/>
  <anchor x="261" y="727" name="top"/>
  <outline>
    <contour>
      <point x="119" y="651" type="line"/>
      <point x="117" y="651" type="line"/>
      <point x="117" y="133" type="line" smooth="yes"/>
      <point x="117" y="40"/>
      <point x="162" y="-9"/>
      <point x="256" y="-9" type="curve" smooth="yes"/>
      <point x="315" y="-9"/>
      <point x="357" y="4"/>
      <point x="407" y="23" type="curve"/>
      <point x="407" y="25" type="line"/>
      <point x="358" y="6"/>
      <point x="314" y="-7"/>
      <point x="256" y="-7" type="curve" smooth="yes"/>
      <point x="163" y="-7"/>
      <point x="119" y="42"/>
      <point x="119" y="133" type="curve" smooth="yes"/>
    </contour>
    <contour>
      <point x="407" y="517" type="line"/>
      <point x="30" y="517" type="line"/>
      <point x="30" y="515" type="line"/>
      <point x="407" y="515" type="line"/>
    </contour>
    <component base="esh" xOffset="279"/>
  </outline>
</glyph>
<glyph name="primemod" format="2">
  <advance width="272"/>
  <unicode hex="02B9"/>
  <outline>
    <contour>
      <point x="90" y="446" type="line"/>
      <point x="92" y="446" type="line"/>
      <point x="182" y="680" type="line"/>
      <point x="180" y="680" type="line"/>
    </contour>
  </outline>
</glyph>
<glyph name="circumflexcomb" format="2">
  <unicode hex="0302"/>
  <anchor x="139" y="517" name="_top"/>
  <anchor x="141" y="745" name="top"/>
  <outline>
    <contour>
      <point x="32" y="660" type="line"/>
      <point x="140" y="743" type="line"/>
      <point x="246" y="660" type="line"/>
      <point x="248" y="661" type="line"/>
      <point x="141" y="745" type="line"/>
      <point x="139" y="745" type="line"/>
      <point x="30" y="661" type="line"/>
    </contour>
  </outline>
</glyph>
<glyph name="macroncomb" format="2">
  <unicode hex="0304"/>
  <anchor x="125" y="517" name="_top"/>
  <anchor x="127" y="691" name="top"/>
  <outline>
    <contour>
      <point x="220" y="689" type="line"/>
      <point x="220" y="691" type="line"/>
      <point x="30" y="691" type="line"/>
      <point x="30" y="689" type="line"/>
    </contour>
  </outline>
</glyph>
<glyph name="dotaccentcomb" format="2">
  <unicode hex="0307"/>
  <anchor x="36" y="700" name="_center"/>
  <anchor x="36" y="517" name="_top"/>
  <anchor x="36" y="706" name="top"/>
  <outline>
    <contour>
      <point x="36" y="706" type="curve" smooth="yes"/>
      <point x="32" y="706"/>
      <point x="30" y="703"/>
      <point x="30" y="700" type="curve" smooth="yes"/>
      <point x="30" y="697"/>
      <point x="32" y="694"/>
      <point x="36" y="694" type="curve"/>
      <point x="40" y="694"/>
      <point x="42" y="697"/>
      <point x="42" y="700" type="curve" smooth="yes"/>
      <point x="42" y="703"/>
      <point x="40" y="706"/>
    </contour>
  </outline>
</glyph>
<glyph name="hungarumlautcomb" format="2">
  <unicode hex="030B"/>
  <anchor x="88" y="517" name="_top"/>
  <outline>
    <contour>
      <point x="197" y="785" type="line"/>
      <point x="131" y="662" type="line"/>
      <point x="133" y="661" type="line"/>
      <point x="199" y="784" type="line"/>
    </contour>
    <contour>
      <point x="91" y="782" type="line"/>
      <point x="30" y="664" type="line"/>
      <point x="32" y="663" type="line"/>
      <point x="93" y="781" type="line"/>
    </contour>
  </outline>
</glyph>
<glyph name="caroncomb" format="2">
  <unicode hex="030C"/>
  <anchor x="138" y="517" name="_top"/>
  <anchor x="141" y="733" name="top"/>
  <outline>
    <contour>
      <point x="246" y="733" type="line"/>
      <point x="138" y="650" type="line"/>
      <point x="32" y="733" type="line"/>
      <point x="30" y="732" type="line"/>
      <point x="137" y="648" type="line"/>
      <point x="139" y="648" type="line"/>
      <point x="248" y="732" type="line"/>
    </contour>
  </outline>
</glyph>
<glyph name="verticallineabovecomb" format="2">
  <unicode hex="030D"/>
  <anchor x="31" y="517" name="_top"/>
  <anchor x="33" y="838" name="top"/>
  <outline>
    <contour>
      <point x="30" y="644" type="line"/>
      <point x="32" y="644" type="line"/>
      <point x="32" y="838" type="line"/>
      <point x="30" y="838" type="line"/>
    </contour>
  </outline>
</glyph>
<glyph name="lefttackbelowcomb" format="2">
  <unicode hex="0318"/>
  <anchor x="101" y="0" name="_bottom"/>
  <anchor x="103" y="-316" name="bottom"/>
  <outline>
    <contour>
      <point x="170" y="-77" type="line"/>
      <point x="170" y="-196" type="line"/>
      <point x="30" y="-196" type="line"/>
      <point x="30" y="-198" type="line"/>
      <point x="170" y="-198" type="line"/>
      <point x="170" y="-316" type="line"/>
      <point x="172" y="-316" type="line"/>
      <point x="172" y="-77" type="line"/>
    </contour>
  </outline>
</glyph>
<glyph name="leftangleabovecomb" format="2">
  <unicode hex="031A"/>
  <anchor x="100" y="517" name="_top"/>
  <anchor x="102" y="738" name="top"/>
  <outline>
    <contour>
      <point x="30" y="738" type="line"/>
      <point x="30" y="736" type="line"/>
      <point x="167" y="736" type="line"/>
      <point x="167" y="588" type="line"/>
      <point x="169" y="588" type="line"/>
      <point x="169" y="738" type="line"/>
    </contour>
  </outline>
</glyph>
<glyph name="commaaccentcomb" format="2">
  <unicode hex="0326"/>
  <anchor x="52" y="0" name="_bottom"/>
  <outline>
    <contour>
      <point x="52" y="-107" type="curve" smooth="yes"/>
      <point x="49" y="-107"/>
      <point x="47" y="-109"/>
      <point x="47" y="-112" type="curve" smooth="yes"/>
      <point x="47" y="-115"/>
      <point x="49" y="-117"/>
      <point x="53" y="-117" type="curve"/>
      <point x="30" y="-239" type="line"/>
      <point x="31" y="-239" type="line"/>
      <point x="56" y="-120" type="line" smooth="yes"/>
      <point x="57" y="-115"/>
      <point x="57" y="-114"/>
      <point x="57" y="-112" type="curve"/>
      <point x="57" y="-109"/>
      <point x="55" y="-107"/>
    </contour>
  </outline>
</glyph>
<glyph name="cedillacomb" format="2">
  <unicode hex="0327"/>
  <anchor x="80" y="0" name="_bottom"/>
  <anchor x="97" y="-202" name="bottom"/>
  <outline>
    <contour>
      <point x="73" y="-8" type="line"/>
      <point x="71" y="-8" type="line"/>
      <point x="67" y="-84" type="line"/>
      <point x="131" y="-85"/>
      <point x="157" y="-104"/>
      <point x="157" y="-141" type="curve" smooth="yes"/>
      <point x="157" y="-185"/>
      <point x="124" y="-200"/>
      <point x="91" y="-200" type="curve" smooth="yes"/>
      <point x="64" y="-200"/>
      <point x="48" y="-195"/>
      <point x="31" y="-184" type="curve"/>
      <point x="30" y="-186" type="line"/>
      <point x="46" y="-196"/>
      <point x="62" y="-202"/>
      <point x="91" y="-202" type="curve" smooth="yes"/>
      <point x="125" y="-202"/>
      <point x="159" y="-186"/>
      <point x="159" y="-141" type="curve" smooth="yes"/>
      <point x="159" y="-98"/>
      <point x="124" y="-83"/>
      <point x="69" y="-82" type="curve"/>
    </contour>
  </outline>
</glyph>
<glyph name="ogonekcomb" format="2">
  <unicode hex="0328"/>
  <anchor x="177" y="0" name="_ogonek"/>
  <outline>
    <contour>
      <point x="166" y="1" type="line"/>
      <point x="105" y="-21"/>
      <point x="30" y="-57"/>
      <point x="30" y="-124" type="curve" smooth="yes"/>
      <point x="30" y="-169"/>
      <point x="60" y="-194"/>
      <point x="107" y="-194" type="curve" smooth="yes"/>
      <point x="126" y="-194"/>
      <point x="138" y="-192"/>
      <point x="160" y="-186" type="curve"/>
      <point x="160" y="-184" type="line"/>
      <point x="138" y="-190"/>
      <point x="125" y="-192"/>
      <point x="107" y="-192" type="curve" smooth="yes"/>
      <point x="61" y="-192"/>
      <point x="32" y="-168"/>
      <point x="32" y="-124" type="curve" smooth="yes"/>
      <point x="32" y="-57"/>
      <point x="111" y="-20"/>
      <point x="167" y="0" type="curve"/>
    </contour>
  </outline>
</glyph>
<glyph name="bridgebelowcomb" format="2">
  <unicode hex="032A"/>
  <anchor x="145" y="0" name="_bottom"/>
  <anchor x="147" y="-206" name="bottom"/>
  <outline>
    <contour>
      <point x="30" y="-204" type="line"/>
      <point x="32" y="-204" type="line"/>
      <point x="32" y="-114" type="line"/>
      <point x="257" y="-114" type="line"/>
      <point x="257" y="-206" type="line"/>
      <point x="259" y="-206" type="line"/>
      <point x="259" y="-112" type="line"/>
      <point x="30" y="-112" type="line"/>
    </contour>
  </outline>
</glyph>
<glyph name="circumflexbelowcomb" format="2">
  <unicode hex="032D"/>
  <anchor x="139" y="0" name="_bottom"/>
  <anchor x="141" y="-180" name="bottom"/>
  <outline>
    <contour>
      <point x="32" y="-170" type="line"/>
      <point x="140" y="-87" type="line"/>
      <point x="246" y="-170" type="line"/>
      <point x="248" y="-169" type="line"/>
      <point x="141" y="-85" type="line"/>
      <point x="139" y="-85" type="line"/>
      <point x="30" y="-169" type="line"/>
    </contour>
  </outline>
</glyph>
<glyph name="squarebelowcomb" format="2">
  <unicode hex="033B"/>
  <anchor x="140" y="0" name="_bottom"/>
  <anchor x="142" y="-202" name="bottom"/>
  <outline>
    <contour>
      <point x="30" y="-202" type="line"/>
      <point x="249" y="-202" type="line"/>
      <point x="249" y="-88" type="line"/>
      <point x="30" y="-88" type="line"/>
    </contour>
    <contour>
      <point x="32" y="-200" type="line"/>
      <point x="32" y="-90" type="line"/>
      <point x="247" y="-90" type="line"/>
      <point x="247" y="-200" type="line"/>
    </contour>
  </outline>
</glyph>
<glyph name="Heta" format="2">
  <advance width="525"/>
  <unicode hex="0370"/>
  <anchor x="262.5" y="0" name="bottom"/>
  <anchor x="262.5" y="680" name="top"/>
  <outline>
    <contour>
      <point x="485" y="360" type="line"/>
      <point x="485" y="362" type="line"/>
      <point x="132" y="362" type="line"/>
      <point x="132" y="680" type="line"/>
      <point x="130" y="680" type="line"/>
      <point x="130" y="0" type="line"/>
      <point x="132" y="0" type="line"/>
      <point x="132" y="360" type="line"/>
    </contour>
  </outline>
</glyph>
<glyph name="heta" format="2">
  <advance width="481"/>
  <unicode hex="0371"/>
  <anchor x="240.5" y="0" name="bottom"/>
  <anchor x="240.5" y="517" name="top"/>
  <outline>
    <contour>
      <point x="431" y="271" type="line"/>
      <point x="431" y="273" type="line"/>
      <point x="126" y="273" type="line"/>
      <point x="126" y="271" type="line"/>
    </contour>
    <contour>
      <point x="107" y="517" type="curve"/>
      <point x="105" y="517" type="line"/>
      <point x="118" y="480"/>
      <point x="124" y="434"/>
      <point x="124" y="385" type="curve" smooth="yes"/>
      <point x="124" y="0" type="line"/>
      <point x="126" y="0" type="line"/>
      <point x="126" y="390" type="line"/>
      <point x="126" y="435"/>
      <point x="120" y="480"/>
    </contour>
  </outline>
</glyph>
<glyph name="Archaicsampi" format="2">
  <advance width="494"/>
  <unicode hex="0372"/>
  <anchor x="247" y="0" name="bottom"/>
  <anchor x="247" y="680" name="top"/>
  <outline>
    <contour>
      <point x="245" y="0" type="line"/>
      <point x="247" y="0" type="line"/>
      <point x="247" y="678" type="line"/>
      <point x="472" y="678" type="line"/>
      <point x="472" y="680" type="line"/>
      <point x="20" y="680" type="line"/>
      <point x="20" y="678" type="line"/>
      <point x="245" y="678" type="line"/>
    </contour>
    <contour>
      <point x="20" y="480" type="line"/>
      <point x="22" y="480" type="line"/>
      <point x="22" y="680" type="line"/>
      <point x="20" y="680" type="line"/>
    </contour>
    <contour>
      <point x="472" y="480" type="line"/>
      <point x="474" y="480" type="line"/>
      <point x="474" y="680" type="line"/>
      <point x="472" y="680" type="line"/>
    </contour>
  </outline>
</glyph>
<glyph name="Delta" format="2">
  <advance width="566"/>
  <unicode hex="0394"/>
  <anchor x="283" y="0" name="bottom"/>
  <anchor x="283" y="680" name="top"/>
  <outline>
    <contour>
      <point x="283" y="678" type="line"/>
      <point x="528" y="2" type="line"/>
      <point x="38" y="2" type="line"/>
    </contour>
    <contour>
      <point x="284" y="680" type="line"/>
      <point x="282" y="680" type="line"/>
      <point x="35" y="0" type="line"/>
      <point x="531" y="0" type="line"/>
    </contour>
  </outline>
</glyph>
<glyph name="Lambda" format="2">
  <advance width="556"/>
  <unicode hex="039B"/>
  <anchor x="284" y="0" name="bottom"/>
  <anchor x="278" y="680" name="top"/>
  <outline>
    <contour>
      <point x="278" y="680" type="line"/>
      <point x="276" y="680" type="line"/>
      <point x="35" y="0" type="line"/>
      <point x="37" y="0" type="line"/>
      <point x="277" y="678" type="line"/>
      <point x="519" y="0" type="line"/>
      <point x="521" y="0" type="line"/>
    </contour>
  </outline>
</glyph>
<glyph name="Xi" format="2">
  <advance width="485"/>
  <unicode hex="039E"/>
  <anchor x="242.5" y="0" name="bottom"/>
  <anchor x="242.5" y="680" name="top"/>
  <outline>
    <contour>
      <point x="415" y="2" type="line"/>
      <point x="60" y="2" type="line"/>
      <point x="60" y="0" type="line"/>
      <point x="415" y="0" type="line"/>
    </contour>
    <contour>
      <point x="362" y="362" type="line"/>
      <point x="115" y="362" type="line"/>
      <point x="115" y="360" type="line"/>
      <point x="362" y="360" type="line"/>
    </contour>
    <contour>
      <point x="406" y="680" type="line"/>
      <point x="60" y="680" type="line"/>
      <point x="60" y="678" type="line"/>
      <point x="406" y="678" type="line"/>
    </contour>
  </outline>
</glyph>
<glyph name="Sigma" format="2">
  <advance width="481"/>
  <unicode hex="03A3"/>
  <anchor x="240.5" y="0" name="bottom"/>
  <anchor x="240.5" y="680" name="top"/>
  <outline>
    <contour>
      <point x="421" y="680" type="line"/>
      <point x="60" y="680" type="line"/>
      <point x="60" y="677" type="line"/>
      <point x="303" y="339" type="line"/>
      <point x="60" y="3" type="line"/>
      <point x="60" y="0" type="line"/>
      <point x="421" y="0" type="line"/>
      <point x="421" y="2" type="line"/>
      <point x="62" y="2" type="line"/>
      <point x="305" y="338" type="line"/>
      <point x="305" y="340" type="line"/>
      <point x="62" y="678" type="line"/>
      <point x="421" y="678" type="line"/>
    </contour>
  </outline>
</glyph>
<glyph name="iota" format="2">
  <advance width="252"/>
  <unicode hex="03B9"/>
  <anchor x="126" y="0" name="bottom"/>
  <anchor x="121" y="517" name="top"/>
  <outline>
    <contour>
      <point x="122" y="517" type="line"/>
      <point x="120" y="517" type="line"/>
      <point x="120" y="97" type="line" smooth="yes"/>
      <point x="120" y="39"/>
      <point x="131" y="16"/>
      <point x="176" y="-4" type="curve"/>
      <point x="177" y="-2" type="line"/>
      <point x="133" y="16"/>
      <point x="122" y="41"/>
      <point x="122" y="97" type="curve" smooth="yes"/>
    </contour>
  </outline>
</glyph>
<glyph name="rho" format="2">
  <advance width="556"/>
  <unicode hex="03C1"/>
  <anchor x="278" y="-188" name="bottom"/>
  <anchor x="294" y="517" name="top"/>
  <outline>
    <contour>
      <point x="294" y="527" type="curve" smooth="yes"/>
      <point x="176" y="527"/>
      <point x="115" y="434"/>
      <point x="115" y="299" type="curve" smooth="yes"/>
      <point x="115" y="-190" type="line"/>
      <point x="117" y="-190" type="line"/>
      <point x="117" y="299" type="line" smooth="yes"/>
      <point x="117" y="433"/>
      <point x="177" y="525"/>
      <point x="294" y="525" type="curve" smooth="yes"/>
      <point x="407" y="525"/>
      <point x="469" y="427"/>
      <point x="469" y="264" type="curve" smooth="yes"/>
      <point x="469" y="84"/>
      <point x="393" y="-7"/>
      <point x="289" y="-7" type="curve"/>
      <point x="212" y="-7"/>
      <point x="156" y="37"/>
      <point x="116" y="113" type="curve"/>
      <point x="116" y="109" type="line"/>
      <point x="155" y="36"/>
      <point x="211" y="-9"/>
      <point x="289" y="-9" type="curve"/>
      <point x="394" y="-9"/>
      <point x="471" y="83"/>
      <point x="471" y="264" type="curve" smooth="yes"/>
      <point x="471" y="428"/>
      <point x="408" y="527"/>
    </contour>
  </outline>
</glyph>
<glyph name="KaiSymbol" format="2">
  <advance width="549"/>
  <unicode hex="03CF"/>
  <anchor x="274.5" y="-188" name="bottom"/>
  <anchor x="284" y="680" name="top"/>
  <outline>
    <contour>
      <point x="486" y="2" type="line"/>
      <point x="486" y="0" type="line"/>
      <point x="539" y="0" type="line"/>
      <point x="539" y="2" type="line"/>
    </contour>
    <component base="Kappa"/>
    <component base="hookHELPER.case" xOffset="333"/>
  </outline>
</glyph>
<glyph name="KoppaArchaic" format="2">
  <advance width="687"/>
  <unicode hex="03D8"/>
  <anchor x="343.5" y="-188" name="bottom"/>
  <anchor x="422" y="0" name="ogonek"/>
  <anchor x="344" y="680" name="top"/>
  <anchor x="102" y="680" name="topleft"/>
  <anchor x="517" y="680" name="topright"/>
  <outline>
    <contour>
      <point x="343" y="-188" type="line"/>
      <point x="345" y="-188" type="line"/>
      <point x="345" y="-8" type="line"/>
      <point x="343" y="-8" type="line"/>
    </contour>
    <component base="O"/>
  </outline>
</glyph>
<glyph name="koppaArchaic" format="2">
  <advance width="559"/>
  <unicode hex="03D9"/>
  <anchor x="279.5" y="-188" name="bottom"/>
  <anchor x="348" y="0" name="ogonek"/>
  <anchor x="280" y="517" name="top"/>
  <anchor x="431" y="517" name="topright"/>
  <outline>
    <contour>
      <point x="281" y="-8" type="line"/>
      <point x="279" y="-8" type="line"/>
      <point x="279" y="-190" type="line"/>
      <point x="281" y="-190" type="line"/>
    </contour>
    <component base="o"/>
  </outline>
</glyph>
<glyph name="Digamma" format="2">
  <advance width="541"/>
  <unicode hex="03DC"/>
  <anchor x="131" y="0" name="bottom"/>
  <anchor x="142" y="0" name="bottomright"/>
  <anchor x="330" y="680" name="top"/>
  <outline>
    <contour>
      <point x="427" y="340" type="curve"/>
      <point x="428" y="342" type="line"/>
      <point x="409" y="352"/>
      <point x="389" y="359"/>
      <point x="359" y="359" type="curve" smooth="yes"/>
      <point x="130" y="359" type="line"/>
      <point x="130" y="357" type="line"/>
      <point x="359" y="357" type="line" smooth="yes"/>
      <point x="388" y="357"/>
      <point x="409" y="350"/>
    </contour>
    <component base="Gamma"/>
  </outline>
</glyph>
<glyph name="Koppa" format="2">
  <advance width="439"/>
  <unicode hex="03DE"/>
  <anchor x="219.5" y="0" name="bottom"/>
  <anchor x="219.5" y="680" name="top"/>
  <outline>
    <contour>
      <point x="193" y="0" type="line"/>
      <point x="196" y="0" type="line"/>
      <point x="389" y="340" type="line"/>
      <point x="387" y="341" type="line"/>
    </contour>
    <contour>
      <point x="51" y="340" type="line"/>
      <point x="389" y="340" type="line"/>
      <point x="388" y="342" type="line"/>
      <point x="50" y="342" type="line"/>
    </contour>
    <contour>
      <point x="52" y="341" type="line"/>
      <point x="245" y="680" type="line"/>
      <point x="242" y="680" type="line"/>
      <point x="50" y="342" type="line"/>
    </contour>
  </outline>
</glyph>
<glyph name="Sampi" format="2">
  <advance width="556"/>
  <unicode hex="03E0"/>
  <anchor x="278" y="0" name="bottom"/>
  <anchor x="278" y="680" name="top"/>
  <outline>
    <contour>
      <point x="519" y="0" type="line"/>
      <point x="521" y="0" type="line"/>
      <point x="253" y="680" type="line"/>
      <point x="251" y="680" type="line"/>
      <point x="280" y="607" type="line"/>
    </contour>
    <contour>
      <point x="35" y="0" type="line"/>
      <point x="37" y="0" type="line"/>
      <point x="281" y="607" type="line"/>
      <point x="280" y="609" type="line"/>
    </contour>
    <contour>
      <point x="246" y="0" type="line"/>
      <point x="248" y="0" type="line"/>
      <point x="375" y="368" type="line"/>
      <point x="374" y="370" type="line"/>
    </contour>
  </outline>
</glyph>
<glyph name="sampi" format="2">
  <advance width="581"/>
  <unicode hex="03E1"/>
  <anchor x="290.5" y="-188" name="bottom"/>
  <anchor x="290.5" y="727" name="top"/>
  <outline>
    <contour>
      <point x="25" y="0" type="line"/>
      <point x="27" y="0" type="line"/>
      <point x="319" y="570" type="line"/>
      <point x="317" y="570" type="line"/>
    </contour>
    <contour>
      <point x="256" y="0" type="line"/>
      <point x="258" y="0" type="line"/>
      <point x="441" y="396" type="line"/>
      <point x="439" y="396" type="line"/>
    </contour>
    <contour>
      <point x="473" y="-195" type="curve"/>
      <point x="475" y="-195" type="line"/>
      <point x="488" y="-122"/>
      <point x="501" y="-31"/>
      <point x="501" y="68" type="curve" smooth="yes"/>
      <point x="501" y="399"/>
      <point x="378" y="578"/>
      <point x="107" y="735" type="curve"/>
      <point x="106" y="733" type="line"/>
      <point x="376" y="577"/>
      <point x="499" y="398"/>
      <point x="499" y="68" type="curve" smooth="yes"/>
      <point x="499" y="-30"/>
      <point x="486" y="-122"/>
    </contour>
  </outline>
</glyph>
<glyph name="rhoStrokeSymbol" format="2">
  <advance width="556"/>
  <unicode hex="03FC"/>
  <anchor x="278" y="-188" name="bottom"/>
  <anchor x="294" y="517" name="top"/>
  <outline>
    <contour>
      <point x="40" y="-90" type="line"/>
      <point x="40" y="-92" type="line"/>
      <point x="115" y="-92" type="line"/>
      <point x="297" y="-92" type="line"/>
      <point x="297" y="-90" type="line"/>
    </contour>
    <component base="rho"/>
  </outline>
</glyph>
<glyph name="Tshe-cy" format="2">
  <advance width="692"/>
  <unicode hex="040B"/>
  <anchor x="398.5" y="0.0" name="bottom"/>
  <anchor x="622" y="0" name="bottomright"/>
  <anchor x="398.5" y="680.0" name="top"/>
  <outline>
    <contour>
      <point x="452" y="680" type="line"/>
      <point x="20" y="680" type="line"/>
      <point x="20" y="678" type="line"/>
      <point x="452" y="678" type="line"/>
    </contour>
    <component base="Shha-cy" xOffset="105"/>
  </outline>
</glyph>
<glyph name="Ge-cy" format="2">
  <advance width="521"/>
  <unicode hex="0413"/>
  <anchor x="131" y="0" name="bottom"/>
  <anchor x="142" y="0" name="bottomright"/>
  <anchor x="330" y="680" name="top"/>
  <outline>
    <contour>
      <point x="130" y="680" type="line"/>
      <point x="130" y="0" type="line"/>
      <point x="132" y="0" type="line"/>
      <point x="132" y="679" type="line"/>
    </contour>
    <contour>
      <point x="501" y="680" type="line"/>
      <point x="130" y="680" type="line"/>
      <point x="131" y="678" type="line"/>
      <point x="501" y="678" type="line"/>
    </contour>
  </outline>
</glyph>
<glyph name="Zhe-cy" format="2">
  <advance width="716"/>
  <unicode hex="0416"/>
  <anchor x="358" y="0" name="bottom"/>
  <anchor x="683" y="0" name="bottomright"/>
  <anchor x="358" y="680" name="top"/>
  <outline>
    <contour>
      <point x="660" y="680" type="line"/>
      <point x="657" y="680" type="line"/>
      <point x="479" y="361" type="line"/>
      <point x="359" y="361" type="line"/>
      <point x="359" y="680" type="line"/>
      <point x="357" y="680" type="line"/>
      <point x="357" y="361" type="line"/>
      <point x="242" y="361" type="line"/>
      <point x="59" y="680" type="line"/>
      <point x="56" y="680" type="line"/>
      <point x="240" y="360" type="line"/>
      <point x="40" y="0" type="line"/>
      <point x="43" y="0" type="line"/>
      <point x="242" y="359" type="line"/>
      <point x="357" y="359" type="line"/>
      <point x="357" y="1" type="line"/>
      <point x="359" y="1" type="line"/>
      <point x="359" y="359" type="line"/>
      <point x="479" y="359" type="line"/>
      <point x="673" y="0" type="line"/>
      <point x="676" y="0" type="line"/>
      <point x="481" y="360" type="line"/>
    </contour>
  </outline>
</glyph>
<glyph name="Ii-cy" format="2">
  <advance width="653"/>
  <unicode hex="0418"/>
  <anchor x="326.5" y="0" name="bottom"/>
  <anchor x="533" y="0" name="bottomright"/>
  <anchor x="334" y="680" name="top"/>
  <outline>
    <contour>
      <point x="523" y="680" type="line"/>
      <point x="520" y="680" type="line"/>
      <point x="132" y="2" type="line"/>
      <point x="132" y="13"/>
      <point x="132" y="25"/>
      <point x="132" y="36" type="curve"/>
      <point x="132" y="680" type="line"/>
      <point x="130" y="680" type="line"/>
      <point x="130" y="0" type="line"/>
      <point x="133" y="0" type="line"/>
      <point x="521" y="678" type="line"/>
      <point x="521" y="661"/>
      <point x="521" y="642"/>
      <point x="521" y="625" type="curve"/>
      <point x="521" y="0" type="line"/>
      <point x="523" y="0" type="line"/>
    </contour>
  </outline>
</glyph>
<glyph name="Ka-cy" format="2">
  <advance width="532"/>
  <unicode hex="041A"/>
  <anchor x="266" y="0" name="bottom"/>
  <anchor x="504" y="0" name="bottomright"/>
  <anchor x="295" y="680" name="top"/>
  <outline>
    <contour>
      <point x="479" y="680" type="line"/>
      <point x="476" y="680" type="line"/>
      <point x="262" y="361" type="line"/>
      <point x="132" y="361" type="line"/>
      <point x="132" y="680" type="line"/>
      <point x="130" y="680" type="line"/>
      <point x="130" y="1" type="line"/>
      <point x="132" y="1" type="line"/>
      <point x="132" y="359" type="line"/>
      <point x="262" y="359" type="line"/>
      <point x="494" y="0" type="line"/>
      <point x="497" y="0" type="line"/>
      <point x="264" y="360" type="line"/>
    </contour>
  </outline>
</glyph>
<glyph name="Pe-cy" format="2">
  <advance width="654"/>
  <unicode hex="041F"/>
  <anchor x="327" y="0" name="bottom"/>
  <anchor x="534" y="0" name="bottomright"/>
  <anchor x="327" y="680" name="top"/>
  <outline>
    <contour>
      <point x="524" y="680" type="line"/>
      <point x="130" y="680" type="line"/>
      <point x="130" y="0" type="line"/>
      <point x="132" y="0" type="line"/>
      <point x="132" y="678" type="line"/>
      <point x="522" y="678" type="line"/>
      <point x="522" y="0" type="line"/>
      <point x="524" y="0" type="line"/>
    </contour>
  </outline>
</glyph>
<glyph name="U-cy" format="2">
  <advance width="484"/>
  <unicode hex="0423"/>
  <anchor x="242" y="0" name="bottom"/>
  <anchor x="252" y="680" name="top"/>
  <outline>
    <contour>
      <point x="469" y="680" type="line"/>
      <point x="467" y="680" type="line"/>
      <point x="251" y="196" type="line"/>
      <point x="22" y="680" type="line"/>
      <point x="20" y="680" type="line"/>
      <point x="250" y="195" type="line"/>
      <point x="250.5" y="195" type="line"/>
      <point x="182.5" y="43"/>
      <point x="180" y="18"/>
      <point x="101" y="-5" type="curve"/>
      <point x="102" y="-7" type="line"/>
      <point x="181" y="16"/>
      <point x="183" y="40"/>
      <point x="252" y="195" type="curve" smooth="yes"/>
    </contour>
  </outline>
</glyph>
<glyph name="Sha-cy" format="2">
  <advance width="888"/>
  <unicode hex="0428"/>
  <anchor x="444" y="0" name="bottom"/>
  <anchor x="768" y="0" name="bottomright"/>
  <anchor x="444" y="680" name="top"/>
  <outline>
    <contour>
      <point x="758" y="682" type="line"/>
      <point x="756" y="682" type="line"/>
      <point x="756" y="2" type="line"/>
      <point x="445" y="2" type="line"/>
      <point x="445" y="682" type="line"/>
      <point x="443" y="682" type="line"/>
      <point x="443" y="2" type="line"/>
      <point x="132" y="2" type="line"/>
      <point x="132" y="682" type="line"/>
      <point x="130" y="682" type="line"/>
      <point x="130" y="0" type="line"/>
      <point x="758" y="0" type="line"/>
    </contour>
  </outline>
</glyph>
<glyph name="Hardsign-cy" format="2">
  <advance width="577"/>
  <unicode hex="042A"/>
  <anchor x="302.5" y="0.0" name="bottom"/>
  <anchor x="302.5" y="680.0" name="top"/>
  <outline>
    <contour>
      <point x="158" y="678" type="line"/>
      <point x="160" y="680" type="line"/>
      <point x="0" y="680" type="line"/>
      <point x="0" y="678" type="line"/>
    </contour>
    <component base="Softsign-cy" xOffset="28"/>
  </outline>
</glyph>
<glyph name="ge-cy" format="2">
  <advance width="415"/>
  <unicode hex="0433"/>
  <anchor x="126" y="0" name="bottom"/>
  <anchor x="137" y="0" name="bottomright"/>
  <anchor x="263" y="517" name="top"/>
  <outline>
    <contour>
      <point x="127" y="0" type="line"/>
      <point x="127" y="515" type="line"/>
      <point x="399" y="515" type="line"/>
      <point x="400" y="517" type="line"/>
      <point x="125" y="517" type="line"/>
      <point x="125" y="0" type="line"/>
    </contour>
  </outline>
</glyph>
<glyph name="zhe-cy" format="2">
  <advance width="654"/>
  <unicode hex="0436"/>
  <anchor x="327" y="0" name="bottom"/>
  <anchor x="611" y="0" name="bottomright"/>
  <anchor x="327" y="517" name="top"/>
  <outline>
    <contour>
      <point x="574" y="517" type="line"/>
      <point x="571" y="517" type="line"/>
      <point x="444" y="278" type="line"/>
      <point x="328" y="278" type="line"/>
      <point x="328" y="517" type="line"/>
      <point x="326" y="517" type="line"/>
      <point x="326" y="278" type="line"/>
      <point x="210" y="278" type="line"/>
      <point x="83" y="517" type="line"/>
      <point x="80" y="517" type="line"/>
      <point x="208" y="277" type="line"/>
      <point x="50" y="0" type="line"/>
      <point x="53" y="0" type="line"/>
      <point x="210" y="276" type="line"/>
      <point x="326" y="276" type="line"/>
      <point x="326" y="0" type="line"/>
      <point x="328" y="0" type="line"/>
      <point x="328" y="276" type="line"/>
      <point x="444" y="276" type="line"/>
      <point x="601" y="0" type="line"/>
      <point x="604" y="0" type="line"/>
      <point x="446" y="277" type="line"/>
    </contour>
  </outline>
</glyph>
<glyph name="ka-cy" format="2">
  <advance width="468"/>
  <unicode hex="043A"/>
  <anchor x="234" y="0" name="bottom"/>
  <anchor x="435" y="0" name="bottomright"/>
  <anchor x="265" y="517" name="top"/>
  <outline>
    <contour>
      <point x="398" y="517" type="line"/>
      <point x="395" y="517" type="line"/>
      <point x="223" y="279" type="line"/>
      <point x="127" y="279" type="line"/>
      <point x="127" y="517" type="line"/>
      <point x="125" y="517" type="line"/>
      <point x="125" y="0" type="line"/>
      <point x="127" y="0" type="line"/>
      <point x="127" y="277" type="line"/>
      <point x="223" y="277" type="line"/>
      <point x="425" y="0" type="line"/>
      <point x="428" y="0" type="line"/>
      <point x="225" y="278" type="line"/>
    </contour>
  </outline>
</glyph>
<glyph name="el-cy" format="2">
  <advance width="555"/>
  <unicode hex="043B"/>
  <anchor x="277.5" y="0" name="bottom"/>
  <anchor x="440" y="0" name="bottomright"/>
  <anchor x="277.5" y="517" name="top"/>
  <outline>
    <contour>
      <point x="156" y="517" type="line"/>
      <point x="157" y="515" type="line"/>
      <point x="428" y="515" type="line"/>
      <point x="428" y="0" type="line"/>
      <point x="430" y="0" type="line"/>
      <point x="430" y="517" type="line"/>
    </contour>
    <contour>
      <point x="158" y="515" type="line"/>
      <point x="156" y="517" type="line"/>
      <point x="139" y="285" type="line" smooth="yes"/>
      <point x="123" y="67"/>
      <point x="115" y="23"/>
      <point x="53" y="1" type="curve"/>
      <point x="53" y="-1" type="line"/>
      <point x="117" y="22"/>
      <point x="125" y="65"/>
      <point x="141" y="285" type="curve" smooth="yes"/>
    </contour>
  </outline>
</glyph>
<glyph name="em-cy" format="2">
  <advance width="643"/>
  <unicode hex="043C"/>
  <anchor x="321.5" y="0" name="bottom"/>
  <anchor x="567" y="0" name="bottomright"/>
  <anchor x="321.5" y="517" name="top"/>
  <outline>
    <contour>
      <point x="513" y="517" type="line"/>
      <point x="510" y="517" type="line"/>
      <point x="322" y="84" type="line"/>
      <point x="133" y="517" type="line"/>
      <point x="130" y="517" type="line"/>
      <point x="85" y="0" type="line"/>
      <point x="87" y="0" type="line"/>
      <point x="129" y="478" type="line"/>
      <point x="130" y="490"/>
      <point x="131" y="503"/>
      <point x="132" y="514" type="curve"/>
      <point x="321" y="81" type="line"/>
      <point x="323" y="81" type="line"/>
      <point x="511" y="514" type="line"/>
      <point x="512" y="503"/>
      <point x="513" y="490"/>
      <point x="514" y="478" type="curve"/>
      <point x="556" y="0" type="line"/>
      <point x="558" y="0" type="line"/>
    </contour>
  </outline>
</glyph>
<glyph name="en-cy" format="2">
  <advance width="578"/>
  <unicode hex="043D"/>
  <anchor x="289" y="0" name="bottom"/>
  <anchor x="463" y="0" name="bottomright"/>
  <anchor x="284" y="517" name="top"/>
  <outline>
    <contour>
      <point x="451" y="0" type="line"/>
      <point x="453" y="0" type="line"/>
      <point x="453" y="517" type="line"/>
      <point x="451" y="517" type="line"/>
      <point x="451" y="273" type="line"/>
      <point x="127" y="273" type="line"/>
      <point x="127" y="517" type="line"/>
      <point x="125" y="517" type="line"/>
      <point x="125" y="0" type="line"/>
      <point x="127" y="0" type="line"/>
      <point x="127" y="271" type="line"/>
      <point x="451" y="271" type="line"/>
    </contour>
  </outline>
</glyph>
<glyph name="pe-cy" format="2">
  <advance width="573"/>
  <unicode hex="043F"/>
  <anchor x="286.5" y="0" name="bottom"/>
  <anchor x="458" y="0" name="bottomright"/>
  <anchor x="286.5" y="517" name="top"/>
  <outline>
    <contour>
      <point x="446" y="0" type="line"/>
      <point x="448" y="0" type="line"/>
      <point x="448" y="517" type="line"/>
      <point x="125" y="517" type="line"/>
      <point x="125" y="0" type="line"/>
      <point x="127" y="0" type="line"/>
      <point x="127" y="515" type="line"/>
      <point x="446" y="515" type="line"/>
    </contour>
  </outline>
</glyph>
<glyph name="sha-cy" format="2">
  <advance width="802"/>
  <unicode hex="0448"/>
  <anchor x="401" y="0" name="bottom"/>
  <anchor x="687" y="0" name="bottomright"/>
  <anchor x="401" y="517" name="top"/>
  <outline>
    <contour>
      <point x="677" y="516" type="line"/>
      <point x="675" y="516" type="line"/>
      <point x="675" y="2" type="line"/>
      <point x="402" y="2" type="line"/>
      <point x="402" y="516" type="line"/>
      <point x="400" y="516" type="line"/>
      <point x="400" y="2" type="line"/>
      <point x="127" y="2" type="line"/>
      <point x="127" y="516" type="line"/>
      <point x="125" y="516" type="line"/>
      <point x="125" y="0" type="line"/>
      <point x="677" y="0" type="line"/>
    </contour>
  </outline>
</glyph>
<glyph name="hardsign-cy" format="2">
  <advance width="527"/>
  <unicode hex="044A"/>
  <anchor x="281" y="0" name="bottom"/>
  <anchor x="281" y="517" name="top"/>
  <outline>
    <contour>
      <point x="160" y="515" type="line"/>
      <point x="161" y="517" type="line"/>
      <point x="10" y="517" type="line"/>
      <point x="10" y="515" type="line"/>
    </contour>
    <component base="softsign-cy" xOffset="35"/>
  </outline>
</glyph>
<glyph name="ereversed-cy" format="2">
  <advance width="465"/>
  <unicode hex="044D"/>
  <anchor x="232.5" y="0" name="bottom"/>
  <anchor x="211" y="517" name="top"/>
  <outline>
    <contour>
      <point x="202" y="527" type="curve" smooth="yes"/>
      <point x="143" y="527"/>
      <point x="98" y="506"/>
      <point x="60" y="474" type="curve"/>
      <point x="61" y="472" type="line"/>
      <point x="98" y="504"/>
      <point x="143" y="525"/>
      <point x="202" y="525" type="curve" smooth="yes"/>
      <point x="318" y="525"/>
      <point x="383" y="442"/>
      <point x="383" y="269" type="curve"/>
      <point x="383" y="268" type="line"/>
      <point x="383" y="96"/>
      <point x="323" y="-9"/>
      <point x="200" y="-9" type="curve" smooth="yes"/>
      <point x="136" y="-9"/>
      <point x="89" y="19"/>
      <point x="56" y="51" type="curve"/>
      <point x="55" y="49" type="line"/>
      <point x="88" y="17"/>
      <point x="136" y="-11"/>
      <point x="200" y="-11" type="curve" smooth="yes"/>
      <point x="323" y="-11"/>
      <point x="385" y="92"/>
      <point x="385" y="269" type="curve" smooth="yes"/>
      <point x="385" y="444"/>
      <point x="319" y="527"/>
    </contour>
    <contour>
      <point x="384" y="270" type="line"/>
      <point x="122" y="270" type="line"/>
      <point x="122" y="268" type="line"/>
      <point x="384" y="268" type="line"/>
    </contour>
  </outline>
</glyph>
<glyph name="yat-cy" format="2">
  <advance width="502"/>
  <unicode hex="0463"/>
  <anchor x="251" y="0" name="bottom"/>
  <anchor x="136" y="624" name="top"/>
  <outline>
    <contour>
      <point x="55" y="487" type="line"/>
      <point x="279" y="487" type="line"/>
      <point x="279" y="489" type="line"/>
      <point x="135" y="489" type="line"/>
      <point x="55" y="489" type="line"/>
    </contour>
    <contour>
      <point x="137" y="2" type="line"/>
      <point x="137" y="624" type="line"/>
      <point x="135" y="624" type="line"/>
      <point x="135" y="0" type="line"/>
      <point x="259" y="0" type="line" smooth="yes"/>
      <point x="382" y="0"/>
      <point x="447" y="60"/>
      <point x="447" y="171" type="curve" smooth="yes"/>
      <point x="447" y="269"/>
      <point x="389" y="332"/>
      <point x="254" y="332" type="curve" smooth="yes"/>
      <point x="136" y="332" type="line"/>
      <point x="136" y="330" type="line"/>
      <point x="254" y="330" type="line" smooth="yes"/>
      <point x="389" y="330"/>
      <point x="445" y="267"/>
      <point x="445" y="171" type="curve" smooth="yes"/>
      <point x="445" y="61"/>
      <point x="382" y="2"/>
      <point x="259" y="2" type="curve" smooth="yes"/>
    </contour>
  </outline>
</glyph>
<glyph name="Eiotified-cy" format="2">
  <advance width="726"/>
  <unicode hex="0464"/>
  <anchor x="363" y="0" name="bottom"/>
  <anchor x="363" y="680" name="top"/>
  <outline>
    <contour>
      <point x="132" y="680" type="line"/>
      <point x="130" y="680" type="line"/>
      <point x="130" y="0" type="line"/>
      <point x="132" y="0" type="line"/>
      <point x="132" y="356" type="line"/>
      <point x="264" y="356" type="line"/>
      <point x="264" y="358" type="line"/>
      <point x="132" y="358" type="line"/>
    </contour>
    <component base="E-cy" xOffset="178"/>
  </outline>
</glyph>
<glyph name="eiotified-cy" format="2">
  <advance width="667"/>
  <unicode hex="0465"/>
  <anchor x="333.5" y="0" name="bottom"/>
  <anchor x="333.5" y="517" name="top"/>
  <outline>
    <contour>
      <point x="127" y="517" type="line"/>
      <point x="125" y="517" type="line"/>
      <point x="125" y="0" type="line"/>
      <point x="127" y="0" type="line"/>
      <point x="127" y="267" type="line"/>
      <point x="274" y="267" type="line"/>
      <point x="274" y="269" type="line"/>
      <point x="127" y="269" type="line"/>
    </contour>
    <component base="e-cy" xOffset="193"/>
  </outline>
</glyph>
<glyph name="Yuslittleiotified-cy" format="2">
  <advance width="743"/>
  <unicode hex="0468"/>
  <anchor x="371.5" y="0" name="bottom"/>
  <anchor x="371.5" y="680" name="top"/>
  <outline>
    <contour>
      <point x="374" y="361" type="line"/>
      <point x="374" y="363" type="line"/>
      <point x="132" y="363" type="line"/>
      <point x="132" y="680" type="line"/>
      <point x="130" y="680" type="line"/>
      <point x="130" y="0" type="line"/>
      <point x="132" y="0" type="line"/>
      <point x="132" y="361" type="line"/>
    </contour>
    <component base="Yuslittle-cy" xOffset="187"/>
  </outline>
</glyph>
<glyph name="yusbigiotified-cy" format="2">
  <advance width="702"/>
  <unicode hex="046D"/>
  <anchor x="351" y="0" name="bottom"/>
  <anchor x="351" y="517" name="top"/>
  <outline>
    <contour>
      <point x="178" y="0" type="line"/>
      <point x="180" y="0" type="line"/>
      <point x="308" y="276" type="line"/>
      <point x="414" y="276" type="line"/>
      <point x="414" y="0" type="line"/>
      <point x="416" y="0" type="line"/>
      <point x="416" y="276" type="line"/>
      <point x="522" y="276" type="line"/>
      <point x="650" y="0" type="line"/>
      <point x="652" y="0" type="line"/>
      <point x="523" y="278" type="line"/>
      <point x="307" y="278" type="line"/>
    </contour>
    <contour>
      <point x="125" y="0" type="line"/>
      <point x="127" y="0" type="line"/>
      <point x="127" y="276" type="line"/>
      <point x="324" y="276" type="line"/>
      <point x="324" y="278" type="line"/>
      <point x="127" y="278" type="line"/>
      <point x="127" y="517" type="line"/>
      <point x="125" y="517" type="line"/>
    </contour>
    <contour>
      <point x="414" y="276" type="line"/>
      <point x="416" y="276" type="line"/>
      <point x="575" y="515" type="line"/>
      <point x="575" y="517" type="line"/>
      <point x="573" y="515" type="line"/>
      <point x="415" y="278" type="line"/>
      <point x="244" y="515" type="line"/>
      <point x="242" y="517" type="line"/>
      <point x="242" y="515" type="line"/>
    </contour>
    <contour>
      <point x="242" y="515" type="line"/>
      <point x="575" y="515" type="line"/>
      <point x="575" y="517" type="line"/>
      <point x="242" y="517" type="line"/>
    </contour>
  </outline>
</glyph>
<glyph name="Izhitsa-cy" format="2">
  <advance width="543"/>
  <unicode hex="0474"/>
  <anchor x="271.5" y="0" name="bottom"/>
  <anchor x="263" y="680" name="top"/>
  <outline>
    <contour>
      <point x="262" y="0" type="line"/>
      <point x="264" y="0" type="line"/>
      <point x="455" y="615" type="line" smooth="yes"/>
      <point x="471" y="666"/>
      <point x="501" y="688"/>
      <point x="539" y="688" type="curve" smooth="yes"/>
      <point x="572" y="688"/>
      <point x="592" y="674"/>
      <point x="612" y="650" type="curve"/>
      <point x="613" y="652" type="line"/>
      <point x="594" y="675"/>
      <point x="573" y="690"/>
      <point x="539" y="690" type="curve" smooth="yes"/>
      <point x="500" y="690"/>
      <point x="469" y="668"/>
      <point x="453" y="616" type="curve" smooth="yes"/>
      <point x="263" y="2" type="line"/>
      <point x="37" y="680" type="line"/>
      <point x="35" y="680" type="line"/>
    </contour>
  </outline>
</glyph>
<glyph name="Gheupturn-cy" format="2">
  <advance width="521"/>
  <unicode hex="0490"/>
  <anchor x="131" y="0" name="bottom"/>
  <anchor x="142" y="0" name="bottomright"/>
  <anchor x="330" y="680" name="top"/>
  <outline>
    <contour>
      <point x="499" y="679" type="line"/>
      <point x="501" y="680" type="line"/>
      <point x="501" y="779" type="line"/>
      <point x="499" y="779" type="line"/>
    </contour>
    <component base="Ge-cy"/>
  </outline>
</glyph>
<glyph name="gheupturn-cy" format="2">
  <advance width="415"/>
  <unicode hex="0491"/>
  <anchor x="126" y="0" name="bottom"/>
  <anchor x="137" y="0" name="bottomright"/>
  <anchor x="263" y="517" name="top"/>
  <outline>
    <contour>
      <point x="398" y="516" type="line"/>
      <point x="400" y="517" type="line"/>
      <point x="400" y="610" type="line"/>
      <point x="398" y="610" type="line"/>
    </contour>
    <component base="ge-cy"/>
  </outline>
</glyph>
<glyph name="Ghestroke-cy" format="2">
  <advance width="524"/>
  <unicode hex="0492"/>
  <anchor x="134" y="0" name="bottom"/>
  <anchor x="145" y="0" name="bottomright"/>
  <anchor x="333" y="680" name="top"/>
  <outline>
    <contour>
      <point x="299" y="379" type="line"/>
      <point x="35" y="379" type="line"/>
      <point x="35" y="377" type="line"/>
      <point x="133" y="377" type="line"/>
      <point x="299" y="377" type="line"/>
    </contour>
    <component base="Ge-cy" xOffset="3"/>
  </outline>
</glyph>
<glyph name="ghestroke-cy" format="2">
  <advance width="415"/>
  <unicode hex="0493"/>
  <anchor x="126" y="0" name="bottom"/>
  <anchor x="137" y="0" name="bottomright"/>
  <anchor x="263" y="517" name="top"/>
  <outline>
    <contour>
      <point x="266" y="293" type="line"/>
      <point x="125" y="293" type="line"/>
      <point x="58" y="293" type="line"/>
      <point x="58" y="291" type="line"/>
      <point x="266" y="291" type="line"/>
    </contour>
    <component base="ge-cy"/>
  </outline>
</glyph>
<glyph name="Kaverticalstroke-cy" format="2">
  <advance width="537"/>
  <unicode hex="049C"/>
  <anchor x="268.5" y="0" name="bottom"/>
  <anchor x="268.5" y="680" name="top"/>
  <outline>
    <contour>
      <point x="479" y="680" type="line"/>
      <point x="476" y="680" type="line"/>
      <point x="262" y="361" type="line"/>
      <point x="132" y="361" type="line"/>
      <point x="132" y="680" type="line"/>
      <point x="130" y="680" type="line"/>
      <point x="130" y="1" type="line"/>
      <point x="132" y="1" type="line"/>
      <point x="132" y="359" type="line"/>
      <point x="262" y="359" type="line"/>
      <point x="494" y="0" type="line"/>
      <point x="497" y="0" type="line"/>
      <point x="264" y="360" type="line"/>
    </contour>
    <contour>
      <point x="213" y="551" type="line"/>
      <point x="211" y="551" type="line"/>
      <point x="211" y="169" type="line"/>
      <point x="213" y="169" type="line"/>
    </contour>
  </outline>
</glyph>
<glyph name="kaverticalstroke-cy" format="2">
  <advance width="488"/>
  <unicode hex="049D"/>
  <anchor x="244" y="0" name="bottom"/>
  <anchor x="244" y="517" name="top"/>
  <outline>
    <contour>
      <point x="398" y="517" type="line"/>
      <point x="395" y="517" type="line"/>
      <point x="258" y="279" type="line"/>
      <point x="127" y="279" type="line"/>
      <point x="127" y="517" type="line"/>
      <point x="125" y="517" type="line"/>
      <point x="125" y="0" type="line"/>
      <point x="127" y="0" type="line"/>
      <point x="127" y="277" type="line"/>
      <point x="258" y="277" type="line"/>
      <point x="425" y="0" type="line"/>
      <point x="428" y="0" type="line"/>
      <point x="260" y="278" type="line"/>
    </contour>
    <contour>
      <point x="196" y="393" type="line"/>
      <point x="194" y="393" type="line"/>
      <point x="194" y="126" type="line"/>
      <point x="196" y="126" type="line"/>
    </contour>
  </outline>
</glyph>
<glyph name="Kastroke-cy" format="2">
  <advance width="526"/>
  <unicode hex="049E"/>
  <anchor x="260" y="0" name="bottom"/>
  <anchor x="498" y="0" name="bottomright"/>
  <anchor x="289" y="680" name="top"/>
  <outline>
    <contour>
      <point x="30" y="572" type="line"/>
      <point x="262" y="572" type="line"/>
      <point x="262" y="574" type="line"/>
      <point x="124" y="574" type="line"/>
      <point x="30" y="574" type="line"/>
    </contour>
    <component base="Ka-cy" xOffset="-6"/>
  </outline>
</glyph>
<glyph name="Kabashkir-cy" format="2">
  <advance width="560"/>
  <unicode hex="04A0"/>
  <anchor x="294" y="0" name="bottom"/>
  <anchor x="532" y="0" name="bottomright"/>
  <anchor x="323" y="680" name="top"/>
  <outline>
    <contour>
      <point x="159" y="680" type="line"/>
      <point x="0" y="680" type="line"/>
      <point x="0" y="678" type="line"/>
      <point x="159" y="678" type="line"/>
    </contour>
    <component base="Ka-cy" xOffset="28"/>
  </outline>
</glyph>
<glyph name="kabashkir-cy" format="2">
  <advance width="503"/>
  <unicode hex="04A1"/>
  <anchor x="269" y="0" name="bottom"/>
  <anchor x="470" y="0" name="bottomright"/>
  <anchor x="300" y="517" name="top"/>
  <outline>
    <contour>
      <point x="160" y="515" type="line"/>
      <point x="162" y="517" type="line"/>
      <point x="10" y="517" type="line"/>
      <point x="10" y="515" type="line"/>
    </contour>
    <component base="ka-cy" xOffset="35"/>
  </outline>
</glyph>
<glyph name="Enghe-cy" format="2">
  <advance width="682"/>
  <unicode hex="04A4"/>
  <anchor x="327" y="0" name="bottom"/>
  <anchor x="534" y="0" name="bottomright"/>
  <anchor x="326" y="340" name="center"/>
  <anchor x="326" y="680" name="top"/>
  <anchor x="80" y="680" name="topleft"/>
  <outline>
    <contour>
      <point x="523" y="680" type="line"/>
      <point x="523" y="678" type="line"/>
      <point x="682" y="678" type="line"/>
      <point x="682" y="680" type="line"/>
    </contour>
    <component base="H"/>
  </outline>
</glyph>
<glyph name="enghe-cy" format="2">
  <advance width="613"/>
  <unicode hex="04A5"/>
  <anchor x="289" y="0" name="bottom"/>
  <anchor x="463" y="0" name="bottomright"/>
  <anchor x="284" y="517" name="top"/>
  <outline>
    <contour>
      <point x="453" y="515" type="line"/>
      <point x="603" y="515" type="line"/>
      <point x="603" y="517" type="line"/>
      <point x="451" y="517" type="line"/>
    </contour>
    <component base="en-cy"/>
  </outline>
</glyph>
<glyph name="Pemiddlehook-cy" format="2">
  <advance width="980"/>
  <unicode hex="04A6"/>
  <anchor x="490" y="-188" name="bottom"/>
  <anchor x="534" y="0" name="bottomright"/>
  <anchor x="490" y="680" name="top"/>
  <outline>
    <contour>
      <point x="734" y="410" type="curve" smooth="yes"/>
      <point x="644" y="410"/>
      <point x="580" y="369"/>
      <point x="524" y="295" type="curve"/>
      <point x="524" y="292" type="line"/>
      <point x="582" y="368"/>
      <point x="644" y="408"/>
      <point x="734" y="408" type="curve" smooth="yes"/>
      <point x="852" y="408"/>
      <point x="898" y="336"/>
      <point x="898" y="244" type="curve" smooth="yes"/>
      <point x="898" y="0" type="line"/>
      <point x="900" y="0" type="line"/>
      <point x="900" y="244" type="line" smooth="yes"/>
      <point x="900" y="339"/>
      <point x="851" y="410"/>
    </contour>
    <component base="Pe-cy"/>
    <component base="hookHELPER.case" xOffset="694"/>
  </outline>
</glyph>
<glyph name="ustrait-cy" format="2">
  <advance width="435"/>
  <unicode hex="04AF"/>
  <anchor x="217.5" y="-188" name="bottom"/>
  <anchor x="217.5" y="517" name="top"/>
  <outline>
    <contour>
      <point x="405" y="517" type="line"/>
      <point x="403" y="517" type="line"/>
      <point x="224" y="22" type="line"/>
      <point x="32" y="517" type="line"/>
      <point x="30" y="517" type="line"/>
      <point x="223" y="20" type="line"/>
      <point x="223" y="-190" type="line"/>
      <point x="225" y="-190" type="line"/>
      <point x="225" y="20" type="line"/>
    </contour>
  </outline>
</glyph>
<glyph name="Ustraitstroke-cy" format="2">
  <advance width="479"/>
  <unicode hex="04B0"/>
  <anchor x="240" y="0" name="bottom"/>
  <anchor x="240" y="680" name="top"/>
  <anchor x="15" y="680" name="topleft"/>
  <outline>
    <contour>
      <point x="359" y="272" type="line"/>
      <point x="239" y="272" type="line"/>
      <point x="121" y="272" type="line"/>
      <point x="121" y="270" type="line"/>
      <point x="241" y="270" type="line"/>
      <point x="359" y="270" type="line"/>
    </contour>
    <component base="Y"/>
  </outline>
</glyph>
<glyph name="ustraitstroke-cy" format="2">
  <advance width="435"/>
  <unicode hex="04B1"/>
  <anchor x="217.5" y="-188.0" name="bottom"/>
  <anchor x="217.5" y="517.0" name="top"/>
  <outline>
    <contour>
      <point x="218" y="20" type="line"/>
      <point x="220" y="20" type="line"/>
      <point x="333" y="20" type="line"/>
      <point x="333" y="22" type="line"/>
      <point x="105" y="22" type="line"/>
      <point x="105" y="20" type="line"/>
    </contour>
    <component base="ustrait-cy"/>
  </outline>
</glyph>
<glyph name="Tetse-cy" format="2">
  <advance width="765"/>
  <unicode hex="04B4"/>
  <anchor x="382.5" y="-188" name="bottom"/>
  <anchor x="635" y="0" name="bottomright"/>
  <anchor x="382.5" y="680" name="top"/>
  <outline>
    <contour>
      <point x="452" y="680" type="line"/>
      <point x="20" y="680" type="line"/>
      <point x="20" y="678" type="line"/>
      <point x="235" y="678" type="line"/>
      <point x="237" y="678" type="line"/>
      <point x="452" y="678" type="line"/>
    </contour>
    <component base="Tse-cy" xOffset="105"/>
  </outline>
</glyph>
<glyph name="tetse-cy" format="2">
  <advance width="646"/>
  <unicode hex="04B5"/>
  <anchor x="323" y="-188" name="bottom"/>
  <anchor x="531" y="0" name="bottomright"/>
  <anchor x="323" y="517" name="top"/>
  <outline>
    <contour>
      <point x="395" y="517" type="line"/>
      <point x="15" y="517" type="line"/>
      <point x="15" y="515" type="line"/>
      <point x="204" y="515" type="line"/>
      <point x="206" y="515" type="line"/>
      <point x="395" y="515" type="line"/>
    </contour>
    <component base="tse-cy" xOffset="79"/>
  </outline>
</glyph>
<glyph name="Cheverticalstroke-cy" format="2">
  <advance width="566"/>
  <unicode hex="04B8"/>
  <anchor x="283" y="0" name="bottom"/>
  <anchor x="414" y="0" name="bottomleft"/>
  <anchor x="446" y="0" name="bottomright"/>
  <anchor x="248" y="680" name="top"/>
  <outline>
    <contour>
      <point x="248" y="512" type="line"/>
      <point x="246" y="512" type="line"/>
      <point x="246" y="111" type="line"/>
      <point x="248" y="111" type="line"/>
    </contour>
    <component base="Che-cy"/>
  </outline>
</glyph>
<glyph name="cheverticalstroke-cy" format="2">
  <advance width="520"/>
  <unicode hex="04B9"/>
  <anchor x="260" y="0" name="bottom"/>
  <anchor x="373" y="0" name="bottomleft"/>
  <anchor x="405" y="0" name="bottomright"/>
  <anchor x="235" y="517" name="top"/>
  <outline>
    <contour>
      <point x="218" y="368" type="line"/>
      <point x="216" y="368" type="line"/>
      <point x="216" y="101" type="line"/>
      <point x="218" y="101" type="line"/>
    </contour>
    <component base="che-cy"/>
  </outline>
</glyph>
<glyph name="shha-cy" format="2">
  <advance width="575"/>
  <unicode hex="04BB"/>
  <anchor x="287.5" y="0" name="bottom"/>
  <anchor x="470" y="0" name="bottomright"/>
  <anchor x="287.5" y="727" name="top"/>
  <outline>
    <contour>
      <point x="127" y="0" type="line"/>
      <point x="127" y="730" type="line"/>
      <point x="125" y="730" type="line"/>
      <point x="125" y="0" type="line"/>
    </contour>
    <contour>
      <point x="326" y="467" type="curve" smooth="yes"/>
      <point x="238" y="467"/>
      <point x="174" y="415"/>
      <point x="126" y="329" type="curve"/>
      <point x="127" y="327" type="line"/>
      <point x="175" y="413"/>
      <point x="239" y="465"/>
      <point x="326" y="465" type="curve" smooth="yes"/>
      <point x="420" y="465"/>
      <point x="458" y="406"/>
      <point x="458" y="308" type="curve" smooth="yes"/>
      <point x="458" y="0" type="line"/>
      <point x="460" y="0" type="line"/>
      <point x="460" y="308" type="line" smooth="yes"/>
      <point x="460" y="407"/>
      <point x="421" y="467"/>
    </contour>
  </outline>
</glyph>
<glyph name="cheabkhasian-cy" format="2">
  <advance width="588"/>
  <unicode hex="04BD"/>
  <anchor x="336" y="0" name="bottom"/>
  <anchor x="424" y="4" name="ogonek"/>
  <anchor x="336" y="517" name="top"/>
  <outline>
    <contour>
      <point x="25" y="336" type="curve" smooth="yes"/>
      <point x="25" y="282"/>
      <point x="58" y="252"/>
      <point x="123" y="252" type="curve" smooth="yes"/>
      <point x="141" y="252" type="line"/>
      <point x="141" y="254" type="line"/>
      <point x="123" y="254" type="line" smooth="yes"/>
      <point x="59" y="254"/>
      <point x="27" y="283"/>
      <point x="27" y="336" type="curve" smooth="yes"/>
      <point x="27" y="371"/>
      <point x="39" y="392"/>
      <point x="55" y="414" type="curve"/>
      <point x="53" y="415" type="line"/>
      <point x="38" y="394"/>
      <point x="25" y="372"/>
    </contour>
    <component base="e" xOffset="60"/>
  </outline>
</glyph>
<glyph name="Kahook-cy" format="2">
  <advance width="577"/>
  <unicode hex="04C3"/>
  <anchor x="288.5" y="-188" name="bottom"/>
  <anchor x="288.5" y="680" name="top"/>
  <outline>
    <contour>
      <point x="130" y="1" type="line"/>
      <point x="132" y="1" type="line"/>
      <point x="132" y="349" type="line"/>
      <point x="283" y="349" type="line"/>
      <point x="284" y="350" type="line"/>
      <point x="479" y="680" type="line"/>
      <point x="476" y="680" type="line"/>
      <point x="282" y="351" type="line"/>
      <point x="132" y="351" type="line"/>
      <point x="132" y="680" type="line"/>
      <point x="130" y="680" type="line"/>
    </contour>
    <contour>
      <point x="495" y="0" type="line"/>
      <point x="497" y="0" type="line"/>
      <point x="497" y="146" type="line" smooth="yes"/>
      <point x="497" y="289"/>
      <point x="442" y="351"/>
      <point x="283" y="351" type="curve"/>
      <point x="283" y="349" type="line"/>
      <point x="441" y="349"/>
      <point x="495" y="288"/>
      <point x="495" y="146" type="curve" smooth="yes"/>
    </contour>
    <component base="hookHELPER.case" xOffset="291"/>
  </outline>
</glyph>
<glyph name="kahook-cy" format="2">
  <advance width="484"/>
  <unicode hex="04C4"/>
  <anchor x="242" y="-188" name="bottom"/>
  <anchor x="242" y="517" name="top"/>
  <outline>
    <contour>
      <point x="398" y="517" type="line"/>
      <point x="395" y="517" type="line"/>
      <point x="243" y="268" type="line"/>
      <point x="127" y="268" type="line"/>
      <point x="127" y="517" type="line"/>
      <point x="125" y="517" type="line"/>
      <point x="125" y="0" type="line"/>
      <point x="127" y="0" type="line"/>
      <point x="127" y="266" type="line"/>
      <point x="245" y="266" type="line"/>
      <point x="245" y="267" type="line"/>
    </contour>
    <contour>
      <point x="245" y="268" type="curve"/>
      <point x="245" y="266" type="line"/>
      <point x="363" y="266"/>
      <point x="402" y="217"/>
      <point x="402" y="118" type="curve" smooth="yes"/>
      <point x="402" y="0" type="line"/>
      <point x="404" y="0" type="line"/>
      <point x="404" y="118" type="line" smooth="yes"/>
      <point x="404" y="218"/>
      <point x="364" y="268"/>
    </contour>
    <component base="hookHELPER" xOffset="198"/>
  </outline>
</glyph>
<glyph name="gestrokehook-cy" format="2">
  <advance width="415"/>
  <unicode hex="04FB"/>
  <anchor x="207.5" y="-188" name="bottom"/>
  <anchor x="137" y="0" name="bottomright"/>
  <anchor x="207.5" y="517" name="top"/>
  <outline>
    <contour>
      <point x="126" y="2" type="line"/>
      <point x="126" y="0" type="line"/>
      <point x="180" y="0" type="line"/>
      <point x="180" y="2" type="line"/>
    </contour>
    <component base="ghestroke-cy"/>
    <component base="hookHELPER" xOffset="-26"/>
  </outline>
</glyph>
<glyph name="Hahook-cy" format="2">
  <advance width="494"/>
  <unicode hex="04FC"/>
  <anchor x="233.5" y="0.0" name="bottom"/>
  <anchor x="454" y="0" name="bottomright"/>
  <anchor x="233.5" y="680.0" name="top"/>
  <outline>
    <contour>
      <point x="445" y="2" type="line"/>
      <point x="446" y="0" type="line"/>
      <point x="499" y="0" type="line"/>
      <point x="499" y="2" type="line"/>
    </contour>
    <component base="hookHELPER.case" xOffset="293"/>
    <component base="X"/>
  </outline>
</glyph>
<glyph name="hahook-cy" format="2">
  <advance width="457"/>
  <unicode hex="04FD"/>
  <anchor x="228.5" y="-188" name="bottom"/>
  <anchor x="407" y="0" name="bottomright"/>
  <anchor x="228.5" y="517" name="top"/>
  <outline>
    <contour>
      <point x="397" y="2" type="line"/>
      <point x="397" y="0" type="line"/>
      <point x="452" y="0" type="line"/>
      <point x="452" y="2" type="line"/>
    </contour>
    <component base="hookHELPER" xOffset="246"/>
    <component base="x"/>
  </outline>
</glyph>
<glyph name="Hastroke-cy" format="2">
  <advance width="467"/>
  <unicode hex="04FE"/>
  <anchor x="233.5" y="0" name="bottom"/>
  <anchor x="233.5" y="680" name="top"/>
  <outline>
    <contour>
      <point x="53" y="680" type="line"/>
      <point x="51" y="680" type="line"/>
      <point x="231" y="370" type="line"/>
      <point x="233" y="369" type="line"/>
      <point x="445" y="0" type="line"/>
      <point x="447" y="0" type="line"/>
      <point x="235" y="370" type="line"/>
      <point x="233" y="371" type="line"/>
    </contour>
    <contour>
      <point x="416" y="680" type="line"/>
      <point x="414" y="680" type="line"/>
      <point x="233" y="371" type="line"/>
      <point x="231" y="370" type="line"/>
      <point x="20" y="0" type="line"/>
      <point x="22" y="0" type="line"/>
      <point x="233" y="369" type="line"/>
      <point x="235" y="370" type="line"/>
    </contour>
    <component base="hyphen" xScale="1.5" xOffset="-67" yOffset="58"/>
  </outline>
</glyph>
<glyph name="hastroke-cy" format="2">
  <advance width="424"/>
  <unicode hex="04FF"/>
  <anchor x="212" y="0" name="bottom"/>
  <anchor x="212" y="517" name="top"/>
  <outline>
    <contour>
      <point x="54" y="517" type="line"/>
      <point x="52" y="517" type="line"/>
      <point x="209" y="278" type="line"/>
      <point x="210" y="277" type="line"/>
      <point x="397" y="0" type="line"/>
      <point x="399" y="0" type="line"/>
      <point x="211" y="278" type="line"/>
      <point x="210" y="279" type="line"/>
    </contour>
    <contour>
      <point x="372" y="517" type="line"/>
      <point x="370" y="517" type="line"/>
      <point x="210" y="279" type="line"/>
      <point x="209" y="278" type="line"/>
      <point x="25" y="0" type="line"/>
      <point x="27" y="0" type="line"/>
      <point x="210" y="277" type="line"/>
      <point x="211" y="278" type="line"/>
    </contour>
    <component base="hyphen" xScale="1.3" xOffset="-48" yOffset="-34"/>
  </outline>
</glyph>
<glyph name="Komidzje-cy" format="2">
  <advance width="483"/>
  <unicode hex="0506"/>
  <anchor x="487" y="0" name="_bottom"/>
  <anchor x="241.5" y="-188" name="bottom"/>
  <anchor x="241.5" y="680" name="top"/>
  <outline>
    <contour>
      <point x="197" y="680" type="curve" smooth="yes"/>
      <point x="80" y="680" type="line"/>
      <point x="80" y="678" type="line"/>
      <point x="197" y="678" type="line" smooth="yes"/>
      <point x="356" y="678"/>
      <point x="410" y="611"/>
      <point x="410" y="506" type="curve" smooth="yes"/>
      <point x="410" y="383"/>
      <point x="322" y="336"/>
      <point x="236" y="336" type="curve" smooth="yes"/>
      <point x="111" y="336" type="line"/>
      <point x="111" y="334" type="line"/>
      <point x="242" y="334" type="line"/>
      <point x="323" y="336"/>
      <point x="412" y="382"/>
      <point x="412" y="506" type="curve" smooth="yes"/>
      <point x="412" y="612"/>
      <point x="357" y="680"/>
    </contour>
    <contour>
      <point x="243" y="335" type="line"/>
      <point x="241" y="335" type="line"/>
      <point x="433" y="0" type="line"/>
      <point x="436" y="0" type="line"/>
    </contour>
    <component base="descStraight-cy.case" xOffset="423"/>
  </outline>
</glyph>
<glyph name="Lha-cy" format="2">
  <advance width="770"/>
  <unicode hex="0514"/>
  <anchor x="385" y="0" name="bottom"/>
  <anchor x="757" y="0" name="bottomright"/>
  <anchor x="385" y="680" name="top"/>
  <outline>
    <contour>
      <point x="61" y="-1" type="line"/>
      <point x="130" y="28"/>
      <point x="142" y="54"/>
      <point x="159" y="299" type="curve" smooth="yes"/>
      <point x="185" y="678" type="line"/>
      <point x="183" y="680" type="line"/>
      <point x="157" y="300" type="line" smooth="yes"/>
      <point x="140" y="56"/>
      <point x="128" y="29"/>
      <point x="61" y="1" type="curve"/>
    </contour>
    <contour>
      <point x="184" y="678" type="line"/>
      <point x="356" y="678" type="line"/>
      <point x="356" y="680" type="line"/>
      <point x="183" y="680" type="line"/>
    </contour>
    <component base="X" xOffset="303"/>
  </outline>
</glyph>
<glyph name="Aleutka-cy" format="2">
  <advance width="532"/>
  <unicode hex="051E"/>
  <anchor x="266" y="0" name="bottom"/>
  <anchor x="504" y="0" name="bottomright"/>
  <anchor x="295" y="680" name="top"/>
  <outline>
    <contour>
      <point x="248" y="610" type="line"/>
      <point x="498" y="441" type="line"/>
      <point x="500" y="443" type="line"/>
      <point x="250" y="612" type="line"/>
    </contour>
    <component base="Ka-cy"/>
  </outline>
</glyph>
<glyph name="aleutka-cy" format="2">
  <advance width="468"/>
  <unicode hex="051F"/>
  <anchor x="234" y="0" name="bottom"/>
  <anchor x="435" y="0" name="bottomright"/>
  <anchor x="234" y="517" name="top"/>
  <outline>
    <contour>
      <point x="207" y="477" type="line"/>
      <point x="419" y="333" type="line"/>
      <point x="421" y="335" type="line"/>
      <point x="209" y="479" type="line"/>
    </contour>
    <component base="ka-cy"/>
  </outline>
</glyph>
<glyph name="Enmiddlehook-cy" format="2">
  <advance width="980"/>
  <unicode hex="0522"/>
  <anchor x="490" y="-188" name="bottom"/>
  <anchor x="534" y="0" name="bottomright"/>
  <anchor x="326" y="340" name="center"/>
  <anchor x="490" y="680" name="top"/>
  <anchor x="80" y="680" name="topleft"/>
  <outline>
    <contour>
      <point x="734" y="410" type="curve" smooth="yes"/>
      <point x="644" y="410"/>
      <point x="580" y="369"/>
      <point x="524" y="295" type="curve"/>
      <point x="524" y="292" type="line"/>
      <point x="582" y="368"/>
      <point x="644" y="408"/>
      <point x="734" y="408" type="curve" smooth="yes"/>
      <point x="852" y="408"/>
      <point x="898" y="336"/>
      <point x="898" y="244" type="curve" smooth="yes"/>
      <point x="898" y="0" type="line"/>
      <point x="900" y="0" type="line"/>
      <point x="900" y="244" type="line" smooth="yes"/>
      <point x="900" y="339"/>
      <point x="851" y="410"/>
    </contour>
    <component base="H"/>
    <component base="hookHELPER.case" xOffset="694"/>
  </outline>
</glyph>
<glyph name="enmiddlehook-cy" format="2">
  <advance width="876"/>
  <unicode hex="0523"/>
  <anchor x="438" y="-188" name="bottom"/>
  <anchor x="463" y="0" name="bottomright"/>
  <anchor x="438" y="517" name="top"/>
  <outline>
    <contour>
      <point x="784" y="0" type="line"/>
      <point x="786" y="0" type="line"/>
      <point x="786" y="178" type="line" smooth="yes"/>
      <point x="786" y="277"/>
      <point x="747" y="337"/>
      <point x="652" y="337" type="curve" smooth="yes"/>
      <point x="564" y="337"/>
      <point x="500" y="285"/>
      <point x="452" y="199" type="curve"/>
      <point x="453" y="197" type="line"/>
      <point x="501" y="283"/>
      <point x="565" y="335"/>
      <point x="652" y="335" type="curve" smooth="yes"/>
      <point x="746" y="335"/>
      <point x="784" y="276"/>
      <point x="784" y="178" type="curve" smooth="yes"/>
    </contour>
    <component base="en-cy"/>
    <component base="hookHELPER" xOffset="580"/>
  </outline>
</glyph>
<glyph name="Dzzhe-cy" format="2">
  <advance width="827"/>
  <unicode hex="052A"/>
  <anchor x="1" y="0" name="_bottom"/>
  <anchor x="413.5" y="-188" name="bottom"/>
  <anchor x="413.5" y="680" name="top"/>
  <outline>
    <contour>
      <point x="185" y="680" type="line"/>
      <point x="144" y="351" type="line" smooth="yes"/>
      <point x="112" y="95"/>
      <point x="89" y="43"/>
      <point x="32" y="2" type="curve"/>
      <point x="32" y="0" type="line"/>
      <point x="378" y="0" type="line"/>
      <point x="378" y="680" type="line"/>
    </contour>
    <contour>
      <point x="35" y="2" type="line"/>
      <point x="91" y="43"/>
      <point x="114" y="96"/>
      <point x="146" y="351" type="curve" smooth="yes"/>
      <point x="187" y="678" type="line"/>
      <point x="376" y="678" type="line"/>
      <point x="376" y="2" type="line"/>
    </contour>
    <contour>
      <point x="377" y="359" type="line"/>
      <point x="494" y="359" type="line"/>
      <point x="494" y="361" type="line"/>
      <point x="377" y="361" type="line"/>
    </contour>
    <contour>
      <point x="493" y="0" type="line"/>
      <point x="495" y="0" type="line"/>
      <point x="495" y="359" type="line"/>
      <point x="587" y="359" type="line"/>
      <point x="789" y="0" type="line"/>
      <point x="792" y="0" type="line"/>
      <point x="589" y="360" type="line"/>
      <point x="774" y="680" type="line"/>
      <point x="771" y="680" type="line"/>
      <point x="587" y="361" type="line"/>
      <point x="495" y="361" type="line"/>
      <point x="495" y="680" type="line"/>
      <point x="493" y="680" type="line"/>
    </contour>
    <contour>
      <point x="390" y="2" type="line"/>
      <point x="390" y="0" type="line"/>
      <point x="495" y="0" type="line"/>
      <point x="495" y="2" type="line"/>
    </contour>
    <component base="descStraight-cy.case" xScale="-1" xOffset="65"/>
    <component base="descStraight-cy.case" xOffset="345"/>
  </outline>
</glyph>
<glyph name="dzzhe-cy" format="2">
  <advance width="722"/>
  <unicode hex="052B"/>
  <anchor x="343" y="0" name="_bottom"/>
  <anchor x="361" y="-188" name="bottom"/>
  <anchor x="361" y="517" name="top"/>
  <outline>
    <contour>
      <point x="42" y="0" type="line"/>
      <point x="322" y="0" type="line"/>
      <point x="322" y="517" type="line"/>
      <point x="151" y="517" type="line"/>
      <point x="137" y="306" type="line" smooth="yes"/>
      <point x="122" y="87"/>
      <point x="94" y="36"/>
      <point x="42" y="2" type="curve"/>
      <point x="44" y="1" type="line"/>
      <point x="97" y="35"/>
      <point x="124" y="88"/>
      <point x="139" y="306" type="curve" smooth="yes"/>
      <point x="153" y="515" type="line"/>
      <point x="320" y="515" type="line"/>
      <point x="320" y="2" type="line"/>
      <point x="42" y="2" type="line"/>
    </contour>
    <contour>
      <point x="320" y="277" type="line"/>
      <point x="489" y="277" type="line"/>
      <point x="489" y="279" type="line"/>
      <point x="320" y="279" type="line"/>
    </contour>
    <contour>
      <point x="420" y="0" type="line"/>
      <point x="422" y="0" type="line"/>
      <point x="422" y="277" type="line"/>
      <point x="487" y="277" type="line"/>
      <point x="679" y="0" type="line"/>
      <point x="682" y="0" type="line"/>
      <point x="489" y="278" type="line"/>
      <point x="652" y="517" type="line"/>
      <point x="649" y="517" type="line"/>
      <point x="487" y="279" type="line"/>
      <point x="422" y="279" type="line"/>
      <point x="422" y="517" type="line"/>
      <point x="420" y="517" type="line"/>
    </contour>
    <contour>
      <point x="336" y="0" type="line"/>
      <point x="421" y="0" type="line"/>
      <point x="421" y="2" type="line"/>
      <point x="336" y="2" type="line"/>
    </contour>
    <component base="descStraight-cy" xOffset="279"/>
    <component base="descStraight-cy" xScale="-1" xOffset="80"/>
  </outline>
</glyph>
<glyph name="acutemacron" format="2">
  <unicode hex="1DC7"/>
  <anchor x="172" y="517" name="_top"/>
  <anchor x="174" y="711" name="top"/>
  <outline>
    <contour>
      <point x="31" y="614" type="line"/>
      <point x="164" y="709" type="line"/>
      <point x="163" y="711" type="line"/>
      <point x="30" y="616" type="line"/>
    </contour>
    <contour>
      <point x="164" y="709" type="line"/>
      <point x="314" y="709" type="line"/>
      <point x="314" y="711" type="line"/>
      <point x="163" y="711" type="line"/>
    </contour>
  </outline>
</glyph>
<glyph name="acutegraveacute" format="2">
  <unicode hex="1DC9"/>
  <anchor x="192" y="517" name="_top"/>
  <anchor x="194" y="765" name="top"/>
  <outline>
    <contour>
      <point x="245" y="695" type="line"/>
      <point x="354" y="763" type="line"/>
      <point x="353" y="765" type="line"/>
      <point x="245" y="697" type="line"/>
      <point x="149" y="765" type="line"/>
      <point x="30" y="700" type="line"/>
      <point x="31" y="699" type="line"/>
      <point x="149" y="763" type="line"/>
    </contour>
  </outline>
</glyph>
<glyph name="psilivaria" format="2">
  <advance width="163"/>
  <unicode hex="1FCD"/>
  <anchor x="87" y="517" name="_top"/>
  <outline>
    <contour>
      <point x="101" y="726" type="line"/>
      <point x="98" y="726" type="line"/>
      <point x="138" y="599" type="line"/>
      <point x="140" y="599" type="line"/>
    </contour>
    <component base="psili"/>
  </outline>
</glyph>
<glyph name="psiliperispomeni" format="2">
  <advance width="303"/>
  <unicode hex="1FCF"/>
  <anchor x="152" y="517" name="_top"/>
  <anchor x="244" y="718" name="_topleft"/>
  <anchor x="154" y="723" name="top"/>
  <outline>
    <contour>
      <point x="143" y="568" type="line"/>
      <point x="145" y="568" type="line"/>
      <point x="160" y="638" type="line" smooth="yes"/>
      <point x="161" y="643"/>
      <point x="161" y="644"/>
      <point x="161" y="646" type="curve"/>
      <point x="161" y="649"/>
      <point x="159" y="651"/>
      <point x="156" y="651" type="curve" smooth="yes"/>
      <point x="153" y="651"/>
      <point x="151" y="649"/>
      <point x="151" y="646" type="curve" smooth="yes"/>
      <point x="151" y="643"/>
      <point x="153" y="641"/>
      <point x="157" y="641" type="curve"/>
    </contour>
    <component base="perispomeni" yOffset="-9"/>
  </outline>
</glyph>
<glyph name="dasiavaria" format="2">
  <advance width="163"/>
  <unicode hex="1FDD"/>
  <anchor x="87" y="517" name="_top"/>
  <outline>
    <contour>
      <point x="101" y="726" type="line"/>
      <point x="98" y="726" type="line"/>
      <point x="138" y="599" type="line"/>
      <point x="140" y="599" type="line"/>
    </contour>
    <component base="dasia"/>
  </outline>
</glyph>
<glyph name="endash" format="2">
  <advance width="520"/>
  <unicode hex="2013"/>
  <outline>
    <contour>
      <point x="56" y="311" type="line"/>
      <point x="464" y="311" type="line"/>
      <point x="464" y="313" type="line"/>
      <point x="56" y="313" type="line"/>
    </contour>
  </outline>
</glyph>
<glyph name="drachma" format="2">
  <advance width="1064"/>
  <unicode hex="20AF"/>
  <anchor x="786" y="-188" name="bottom"/>
  <anchor x="802" y="517" name="top"/>
  <outline>
    <contour>
      <point x="86" y="0" type="line"/>
      <point x="237" y="0" type="line" smooth="yes"/>
      <point x="376" y="0"/>
      <point x="524" y="69"/>
      <point x="524" y="338" type="curve" smooth="yes"/>
      <point x="524" y="606"/>
      <point x="374" y="660"/>
      <point x="230" y="660" type="curve" smooth="yes"/>
      <point x="175" y="660" type="line"/>
      <point x="175" y="658" type="line"/>
      <point x="230" y="658" type="line" smooth="yes"/>
      <point x="373" y="658"/>
      <point x="522" y="604"/>
      <point x="522" y="338" type="curve" smooth="yes"/>
      <point x="522" y="71"/>
      <point x="376" y="2"/>
      <point x="237" y="2" type="curve" smooth="yes"/>
      <point x="87" y="2" type="line"/>
    </contour>
    <contour>
      <point x="86" y="0" type="line"/>
      <point x="91" y="2" type="line"/>
      <point x="144" y="23"/>
      <point x="167" y="52"/>
      <point x="167" y="118" type="curve" smooth="yes"/>
      <point x="167" y="486" type="line"/>
      <point x="165" y="486" type="line"/>
      <point x="165" y="118" type="line" smooth="yes"/>
      <point x="165" y="51"/>
      <point x="141" y="23"/>
      <point x="86" y="2" type="curve"/>
    </contour>
    <component base="rho" xOffset="508"/>
    <component base="hookaboveHELPER2.case" yOffset="-20"/>
  </outline>
</glyph>
<glyph name="rupeeIndian" format="2">
  <advance width="514"/>
  <unicode hex="20B9"/>
  <outline>
    <contour>
      <point x="81" y="304" type="line"/>
      <point x="222" y="304" type="line" smooth="yes"/>
      <point x="303" y="306"/>
      <point x="392" y="352"/>
      <point x="392" y="481" type="curve" smooth="yes"/>
      <point x="392" y="582"/>
      <point x="347" y="648"/>
      <point x="218" y="658" type="curve"/>
      <point x="474" y="658" type="line"/>
      <point x="474" y="660" type="line"/>
      <point x="80" y="660" type="line"/>
      <point x="80" y="658" type="line"/>
      <point x="177" y="658" type="line" smooth="yes"/>
      <point x="336" y="658"/>
      <point x="390" y="591"/>
      <point x="390" y="481" type="curve" smooth="yes"/>
      <point x="390" y="353"/>
      <point x="302" y="306"/>
      <point x="216" y="306" type="curve" smooth="yes"/>
      <point x="81" y="306" type="line"/>
    </contour>
    <contour>
      <point x="413" y="0" type="line"/>
      <point x="416" y="0" type="line"/>
      <point x="223" y="305" type="line"/>
      <point x="221" y="305" type="line"/>
    </contour>
    <contour>
      <point x="82" y="524" type="line"/>
      <point x="474" y="524" type="line"/>
      <point x="474" y="526" type="line"/>
      <point x="82" y="526" type="line"/>
    </contour>
  </outline>
</glyph>
<glyph name="numero" format="2">
  <advance width="1064"/>
  <unicode hex="2116"/>
  <anchor x="321" y="0" name="bottom"/>
  <anchor x="331" y="680" name="top"/>
  <outline>
    <contour>
      <point x="815" y="680" type="curve" smooth="yes"/>
      <point x="718" y="680"/>
      <point x="654" y="608"/>
      <point x="654" y="479" type="curve" smooth="yes"/>
      <point x="654" y="353"/>
      <point x="714" y="278"/>
      <point x="813" y="278" type="curve" smooth="yes"/>
      <point x="912" y="278"/>
      <point x="974" y="352"/>
      <point x="974" y="482" type="curve" smooth="yes"/>
      <point x="974" y="607"/>
      <point x="913" y="680"/>
    </contour>
    <contour>
      <point x="816" y="678" type="curve" smooth="yes"/>
      <point x="913" y="678"/>
      <point x="972" y="605"/>
      <point x="972" y="482" type="curve" smooth="yes"/>
      <point x="972" y="353"/>
      <point x="912" y="280"/>
      <point x="814" y="280" type="curve" smooth="yes"/>
      <point x="716" y="280"/>
      <point x="657" y="355"/>
      <point x="657" y="479" type="curve" smooth="yes"/>
      <point x="657" y="607"/>
      <point x="720" y="678"/>
    </contour>
    <component base="N"/>
    <component base="minus" xOffset="575" yOffset="-330"/>
  </outline>
</glyph>
<glyph name="arrowleft" format="2">
  <advance width="900"/>
  <unicode hex="2190"/>
  <outline>
    <contour>
      <point x="399" y="579" type="line"/>
      <point x="173" y="329" type="line"/>
      <point x="399" y="79" type="line"/>
      <point x="401" y="81" type="line"/>
      <point x="182" y="322" type="line" smooth="yes"/>
      <point x="180" y="324"/>
      <point x="178" y="326"/>
      <point x="176" y="328" type="curve"/>
      <point x="727" y="328" type="line"/>
      <point x="727" y="330" type="line"/>
      <point x="176" y="330" type="line"/>
      <point x="178" y="332"/>
      <point x="180" y="334"/>
      <point x="182" y="336" type="curve" smooth="yes"/>
      <point x="401" y="577" type="line"/>
    </contour>
  </outline>
</glyph>
<glyph name="Saltillo" format="2">
  <advance width="182"/>
  <unicode hex="A78B"/>
  <outline>
    <contour>
      <point x="90" y="366" type="line"/>
      <point x="92" y="366" type="line"/>
      <point x="92" y="680" type="line"/>
      <point x="90" y="680" type="line"/>
    </contour>
  </outline>
</glyph>
<glyph name="saltillo" format="2">
  <advance width="182"/>
  <unicode hex="A78C"/>
  <outline>
    <contour>
      <point x="90" y="406" type="line"/>
      <point x="92" y="406" type="line"/>
      <point x="92" y="680" type="line"/>
      <point x="90" y="680" type="line"/>
    </contour>
  </outline>
</glyph>
<glyph name="uniA7B3" format="2">
  <advance width="457"/>
  <unicode hex="A7B3"/>
  <anchor x="228.5" y="-188" name="bottom"/>
  <anchor x="228.5" y="680" name="top"/>
  <outline>
    <contour>
      <point x="53" y="680" type="line"/>
      <point x="51" y="680" type="line"/>
      <point x="226" y="325" type="line"/>
      <point x="228" y="324" type="line"/>
      <point x="435" y="-90" type="line"/>
      <point x="437" y="-90" type="line"/>
      <point x="230" y="325" type="line"/>
      <point x="228" y="326" type="line"/>
    </contour>
    <contour>
      <point x="406" y="680" type="line"/>
      <point x="404" y="680" type="line"/>
      <point x="228" y="326" type="line"/>
      <point x="226" y="325" type="line"/>
      <point x="20" y="-90" type="line"/>
      <point x="22" y="-90" type="line"/>
      <point x="228" y="324" type="line"/>
      <point x="230" y="325" type="line"/>
    </contour>
  </outline>
</glyph>
<glyph name="globeWithMeridians" format="2">
  <advance width="1200"/>
  <unicode hex="1F310"/>
  <outline>
    <contour>
      <point x="600" y="-192" type="curve" smooth="yes"/>
      <point x="864" y="-192"/>
      <point x="1075" y="22"/>
      <point x="1075" y="285" type="curve" smooth="yes"/>
      <point x="1075" y="548"/>
      <point x="864" y="762"/>
      <point x="600" y="762" type="curve" smooth="yes"/>
      <point x="336" y="762"/>
      <point x="125" y="548"/>
      <point x="125" y="285" type="curve" smooth="yes"/>
      <point x="125" y="22"/>
      <point x="336" y="-192"/>
    </contour>
    <contour>
      <point x="595" y="-190" type="curve"/>
      <point x="445" y="-189"/>
      <point x="312" y="-117"/>
      <point x="226" y="-7" type="curve"/>
      <point x="281" y="33"/>
      <point x="335" y="61"/>
      <point x="392" y="80" type="curve"/>
      <point x="432" y="-34"/>
      <point x="504" y="-132"/>
    </contour>
    <contour>
      <point x="225" y="-5" type="curve"/>
      <point x="164" y="75"/>
      <point x="127" y="175"/>
      <point x="127" y="284" type="curve"/>
      <point x="357" y="284" type="line"/>
      <point x="357" y="214"/>
      <point x="369" y="146"/>
      <point x="391" y="82" type="curve"/>
      <point x="334" y="63"/>
      <point x="281" y="34"/>
    </contour>
    <contour>
      <point x="599" y="-190" type="line"/>
      <point x="507" y="-132"/>
      <point x="434" y="-34"/>
      <point x="394" y="81" type="curve"/>
      <point x="456" y="102"/>
      <point x="523" y="111"/>
      <point x="599" y="111" type="curve"/>
    </contour>
    <contour>
      <point x="393" y="83" type="curve"/>
      <point x="371" y="146"/>
      <point x="359" y="215"/>
      <point x="359" y="284" type="curve"/>
      <point x="599" y="284" type="line"/>
      <point x="599" y="113" type="line"/>
      <point x="522" y="113"/>
      <point x="456" y="104"/>
    </contour>
    <contour>
      <point x="601" y="-190" type="curve"/>
      <point x="601" y="111" type="line"/>
      <point x="678" y="111"/>
      <point x="744" y="102"/>
      <point x="808" y="81" type="curve"/>
      <point x="767" y="-34"/>
      <point x="693" y="-132"/>
    </contour>
    <contour>
      <point x="127" y="286" type="line"/>
      <point x="127" y="395"/>
      <point x="164" y="496"/>
      <point x="225" y="575" type="curve"/>
      <point x="280" y="536"/>
      <point x="334" y="507"/>
      <point x="391" y="488" type="curve"/>
      <point x="369" y="424"/>
      <point x="357" y="356"/>
      <point x="357" y="286" type="curve"/>
    </contour>
    <contour>
      <point x="605" y="-190" type="curve"/>
      <point x="696" y="-132"/>
      <point x="769" y="-34"/>
      <point x="809" y="80" type="curve"/>
      <point x="866" y="61"/>
      <point x="920" y="33"/>
      <point x="975" y="-6" type="curve"/>
      <point x="890" y="-117"/>
      <point x="756" y="-189"/>
    </contour>
    <contour>
      <point x="359" y="286" type="line"/>
      <point x="359" y="356"/>
      <point x="371" y="424"/>
      <point x="393" y="487" type="curve"/>
      <point x="456" y="466"/>
      <point x="522" y="457"/>
      <point x="599" y="457" type="curve"/>
      <point x="599" y="286" type="line"/>
    </contour>
    <contour>
      <point x="808" y="83" type="curve"/>
      <point x="745" y="103"/>
      <point x="678" y="113"/>
      <point x="601" y="113" type="curve"/>
      <point x="601" y="284" type="line"/>
      <point x="843" y="284" type="line"/>
      <point x="843" y="214"/>
      <point x="831" y="146"/>
    </contour>
    <contour>
      <point x="392" y="490" type="curve"/>
      <point x="335" y="509"/>
      <point x="282" y="537"/>
      <point x="226" y="577" type="curve"/>
      <point x="312" y="687"/>
      <point x="445" y="759"/>
      <point x="595" y="760" type="curve"/>
      <point x="504" y="702"/>
      <point x="432" y="604"/>
    </contour>
    <contour>
      <point x="599" y="459" type="line"/>
      <point x="523" y="459"/>
      <point x="456" y="469"/>
      <point x="394" y="489" type="curve"/>
      <point x="434" y="604"/>
      <point x="507" y="702"/>
      <point x="599" y="760" type="curve"/>
    </contour>
    <contour>
      <point x="976" y="-4" type="curve"/>
      <point x="921" y="35"/>
      <point x="867" y="63"/>
      <point x="810" y="82" type="curve"/>
      <point x="833" y="146"/>
      <point x="845" y="214"/>
      <point x="845" y="284" type="curve"/>
      <point x="1073" y="284" type="line"/>
      <point x="1073" y="176"/>
      <point x="1037" y="76"/>
    </contour>
    <contour>
      <point x="601" y="286" type="line"/>
      <point x="601" y="457" type="line"/>
      <point x="678" y="457"/>
      <point x="745" y="467"/>
      <point x="808" y="488" type="curve"/>
      <point x="831" y="424"/>
      <point x="843" y="356"/>
      <point x="843" y="286" type="curve"/>
    </contour>
    <contour>
      <point x="601" y="459" type="curve"/>
      <point x="601" y="760" type="line"/>
      <point x="693" y="702"/>
      <point x="767" y="604"/>
      <point x="808" y="489" type="curve"/>
      <point x="744" y="468"/>
      <point x="678" y="459"/>
    </contour>
    <contour>
      <point x="845" y="286" type="line"/>
      <point x="845" y="356"/>
      <point x="833" y="425"/>
      <point x="810" y="488" type="curve"/>
      <point x="867" y="507"/>
      <point x="921" y="536"/>
      <point x="976" y="574" type="curve"/>
      <point x="1037" y="495"/>
      <point x="1073" y="395"/>
      <point x="1073" y="286" type="curve"/>
    </contour>
    <contour>
      <point x="810" y="490" type="curve"/>
      <point x="769" y="604"/>
      <point x="696" y="702"/>
      <point x="605" y="760" type="curve"/>
      <point x="756" y="759"/>
      <point x="890" y="687"/>
      <point x="975" y="576" type="curve"/>
      <point x="920" y="537"/>
      <point x="866" y="509"/>
    </contour>
  </outline>
</glyph>
<glyph name="Hturned.ss02" format="2">
  <advance width="561"/>
  <anchor x="280.5" y="0" name="bottom"/>
  <anchor x="280.5" y="680" name="top"/>
  <outline>
    <contour>
      <point x="429" y="0" type="line"/>
      <point x="431" y="0" type="line"/>
      <point x="431" y="680" type="line"/>
      <point x="429" y="680" type="line"/>
      <point x="429" y="292" type="line"/>
      <point x="74" y="292" type="line"/>
      <point x="74" y="680" type="line"/>
      <point x="72" y="680" type="line"/>
      <point x="72" y="290" type="line"/>
      <point x="429" y="290" type="line"/>
    </contour>
  </outline>
</glyph>
<glyph name="TseHelper-cy" format="2">
  <advance width="650"/>
  <anchor x="325" y="0" name="bottom"/>
  <anchor x="530" y="0" name="bottomright"/>
  <outline>
    <contour>
      <point x="520" y="0" type="line"/>
      <point x="520" y="680" type="line"/>
      <point x="518" y="680" type="line"/>
      <point x="518" y="2" type="line"/>
      <point x="132" y="2" type="line"/>
      <point x="132" y="680" type="line"/>
      <point x="130" y="680" type="line"/>
      <point x="130" y="0" type="line"/>
    </contour>
  </outline>
</glyph>
<glyph name="a.sc" format="2">
  <advance width="491"/>
  <anchor x="246" y="0" name="bottom"/>
  <anchor x="466" y="0" name="ogonek"/>
  <anchor x="244" y="557" name="top"/>
  <outline>
    <contour>
      <point x="245" y="557" type="line"/>
      <point x="243" y="557" type="line"/>
      <point x="35" y="0" type="line"/>
      <point x="37" y="0" type="line"/>
      <point x="244" y="554" type="line"/>
      <point x="454" y="0" type="line"/>
      <point x="456" y="0" type="line"/>
    </contour>
    <contour>
      <point x="389" y="176" type="line"/>
      <point x="102" y="176" type="line"/>
      <point x="101" y="174" type="line"/>
      <point x="389" y="174" type="line"/>
    </contour>
  </outline>
</glyph>
<glyph name="acute.case.loclPLK" format="2">
  <advance width="151"/>
  <anchor x="46" y="680" name="_top"/>
  <outline>
    <contour>
      <point x="119" y="868" type="line"/>
      <point x="30" y="736" type="line"/>
      <point x="32" y="735" type="line"/>
      <point x="121" y="867" type="line"/>
    </contour>
  </outline>
</glyph>
<glyph name="acute.loclPLK" format="2">
  <advance width="153"/>
  <anchor x="46" y="517" name="_top"/>
  <outline>
    <contour>
      <point x="121" y="725" type="line"/>
      <point x="30" y="583" type="line"/>
      <point x="32" y="582" type="line"/>
      <point x="123" y="724" type="line"/>
    </contour>
  </outline>
</glyph>
<glyph name="acute.sc.loclPLK" format="2">
  <advance width="153"/>
  <anchor x="46" y="557" name="_top"/>
  <outline>
    <contour>
      <point x="121" y="765" type="line"/>
      <point x="30" y="623" type="line"/>
      <point x="32" y="622" type="line"/>
      <point x="123" y="764" type="line"/>
    </contour>
  </outline>
</glyph>
<glyph name="acutecomb.case" format="2">
  <anchor x="116" y="680" name="_top"/>
  <anchor x="116" y="842" name="top"/>
  <outline>
    <contour>
      <point x="196" y="842" type="line"/>
      <point x="30" y="773" type="line"/>
      <point x="31" y="771" type="line"/>
      <point x="197" y="840" type="line"/>
    </contour>
  </outline>
</glyph>
<glyph name="acutedbl" format="2">
  <advance width="160"/>
  <anchor x="42" y="517" name="_top"/>
  <anchor x="23" y="517" name="_topright"/>
  <outline>
    <contour>
      <point x="119" y="772" type="line"/>
      <point x="30" y="664" type="line"/>
      <point x="32" y="663" type="line"/>
      <point x="121" y="770" type="line"/>
    </contour>
  </outline>
</glyph>
<glyph name="aleutka-cy.sc" format="2">
  <advance width="483"/>
  <anchor x="241.5" y="0.0" name="bottom"/>
  <anchor x="456" y="0" name="bottomright"/>
  <anchor x="281" y="557" name="top"/>
  <outline>
    <contour>
      <point x="223" y="490" type="line"/>
      <point x="439" y="351" type="line"/>
      <point x="440" y="353" type="line"/>
      <point x="224" y="492" type="line"/>
    </contour>
    <component base="ka-cy.sc"/>
  </outline>
</glyph>
<glyph name="archaicsampi.sc" format="2">
  <advance width="440"/>
  <anchor x="220" y="0" name="bottom"/>
  <anchor x="220" y="557" name="top"/>
  <outline>
    <contour>
      <point x="218" y="0" type="line"/>
      <point x="220" y="0" type="line"/>
      <point x="220" y="556" type="line"/>
      <point x="418" y="556" type="line"/>
      <point x="418" y="558" type="line"/>
      <point x="20" y="558" type="line"/>
      <point x="20" y="556" type="line"/>
      <point x="218" y="556" type="line"/>
    </contour>
    <contour>
      <point x="418" y="393" type="line"/>
      <point x="420" y="393" type="line"/>
      <point x="420" y="557" type="line"/>
      <point x="418" y="557" type="line"/>
    </contour>
    <contour>
      <point x="20" y="393" type="line"/>
      <point x="22" y="393" type="line"/>
      <point x="22" y="557" type="line"/>
      <point x="20" y="557" type="line"/>
    </contour>
  </outline>
</glyph>
<glyph name="astroke.sc" format="2">
  <advance width="491"/>
  <anchor x="245.5" y="0" name="bottom"/>
  <anchor x="245.5" y="557" name="top"/>
  <outline>
    <contour>
      <point x="334" y="597" type="line"/>
      <point x="157" y="-47" type="line"/>
      <point x="159" y="-47" type="line"/>
      <point x="336" y="597" type="line"/>
    </contour>
    <contour>
      <point x="245" y="557" type="line"/>
      <point x="243" y="557" type="line"/>
      <point x="35" y="0" type="line"/>
      <point x="37" y="0" type="line"/>
      <point x="244" y="555" type="line"/>
      <point x="454" y="0" type="line"/>
      <point x="456" y="0" type="line"/>
    </contour>
    <contour>
      <point x="388" y="176" type="line"/>
      <point x="101" y="176" type="line"/>
      <point x="101" y="174" type="line"/>
      <point x="388" y="174" type="line"/>
    </contour>
  </outline>
</glyph>
<glyph name="caron.alt" format="2">
  <advance width="144"/>
  <anchor x="30" y="680" name="_topright"/>
  <outline>
    <contour>
      <point x="82" y="683" type="line"/>
      <point x="63" y="546" type="line"/>
      <point x="65" y="546" type="line"/>
      <point x="84" y="683" type="line"/>
    </contour>
  </outline>
</glyph>
<glyph name="caroncomb.case" format="2">
  <anchor x="139" y="680" name="_top"/>
  <anchor x="141" y="845" name="top"/>
  <outline>
    <contour>
      <point x="246" y="845" type="line"/>
      <point x="138" y="767" type="line"/>
      <point x="32" y="845" type="line"/>
      <point x="30" y="844" type="line"/>
      <point x="137" y="765" type="line"/>
      <point x="139" y="765" type="line"/>
      <point x="248" y="844" type="line"/>
    </contour>
  </outline>
</glyph>
<glyph name="cheverticalstroke-cy.sc" format="2">
  <advance width="506"/>
  <anchor x="257.5" y="0.0" name="bottom"/>
  <anchor x="384" y="0" name="bottomleft"/>
  <anchor x="393" y="0" name="bottomright"/>
  <anchor x="223" y="557" name="top"/>
  <outline>
    <contour>
      <point x="213" y="407" type="line"/>
      <point x="211" y="407" type="line"/>
      <point x="211" y="107" type="line"/>
      <point x="213" y="107" type="line"/>
    </contour>
    <component base="che-cy.sc"/>
  </outline>
</glyph>
<glyph name="circumflexcomb.case" format="2">
  <anchor x="139" y="680" name="_top"/>
  <anchor x="138" y="850" name="top"/>
  <anchor x="67" y="700" name="topleft"/>
  <anchor x="209" y="700" name="topright"/>
  <outline>
    <contour>
      <point x="32" y="770" type="line"/>
      <point x="138" y="848" type="line"/>
      <point x="246" y="770" type="line"/>
      <point x="248" y="771" type="line"/>
      <point x="139" y="850" type="line"/>
      <point x="137" y="850" type="line"/>
      <point x="30" y="771" type="line"/>
    </contour>
  </outline>
</glyph>
<glyph name="cstroke.sc" format="2">
  <advance width="472"/>
  <anchor x="306" y="2" name="bottom"/>
  <anchor x="306" y="557" name="top"/>
  <outline>
    <contour>
      <point x="355" y="597" type="line"/>
      <point x="178" y="-47" type="line"/>
      <point x="180" y="-47" type="line"/>
      <point x="357" y="597" type="line"/>
    </contour>
    <component base="c.sc"/>
  </outline>
</glyph>
<glyph name="daggerdbl.tf" format="2">
  <advance width="560"/>
  <outline>
    <contour>
      <point x="468" y="225" type="line"/>
      <point x="92" y="225" type="line"/>
      <point x="92" y="223" type="line"/>
      <point x="468" y="223" type="line"/>
    </contour>
    <component base="dagger.tf"/>
  </outline>
</glyph>
<glyph name="dasiaperispomeni.case" format="2">
  <advance width="112"/>
  <anchor x="153" y="680" name="_topleft"/>
  <anchor x="63" y="685" name="top"/>
  <outline>
    <contour>
      <point x="70" y="530" type="line"/>
      <point x="56" y="603" type="line"/>
      <point x="60" y="603"/>
      <point x="62" y="605"/>
      <point x="62" y="608" type="curve" smooth="yes"/>
      <point x="62" y="611"/>
      <point x="60" y="613"/>
      <point x="57" y="613" type="curve" smooth="yes"/>
      <point x="54" y="613"/>
      <point x="52" y="611"/>
      <point x="52" y="608" type="curve"/>
      <point x="52" y="606"/>
      <point x="52" y="605"/>
      <point x="53" y="600" type="curve" smooth="yes"/>
      <point x="68" y="530" type="line"/>
    </contour>
    <component base="perispomeni" xOffset="-91" yOffset="-47"/>
  </outline>
</glyph>
<glyph name="de-cy.sc" format="2">
  <advance width="529"/>
  <anchor x="443" y="0" name="_bottom"/>
  <anchor x="264.5" y="-188" name="bottom"/>
  <anchor x="264.5" y="557" name="top"/>
  <outline>
    <contour>
      <point x="31" y="2" type="curve"/>
      <point x="34" y="2" type="line"/>
      <point x="82" y="36"/>
      <point x="102" y="78"/>
      <point x="130" y="288" type="curve" smooth="yes"/>
      <point x="165" y="555" type="line"/>
      <point x="397" y="555" type="line"/>
      <point x="397" y="2" type="line"/>
      <point x="31" y="2" type="line"/>
      <point x="31" y="0" type="line"/>
      <point x="399" y="0" type="line"/>
      <point x="399" y="557" type="line"/>
      <point x="163" y="557" type="line"/>
      <point x="128" y="288" type="line" smooth="yes"/>
      <point x="100" y="77"/>
      <point x="80" y="36"/>
    </contour>
    <component base="descStraight-cy" xOffset="379"/>
    <component base="descStraight-cy" xScale="-1" xOffset="65"/>
  </outline>
</glyph>
<glyph name="descStraight-cy.case" format="2">
  <advance width="150"/>
  <anchor x="64" y="0" name="_bottom"/>
  <anchor x="-1" y="0" name="_bottomleft"/>
  <anchor x="20" y="0" name="_bottomright"/>
  <outline>
    <contour>
      <point x="65" y="2" type="line"/>
      <point x="10" y="2" type="line"/>
      <point x="10" y="0" type="line"/>
      <point x="63" y="0" type="line"/>
      <point x="63" y="-131" type="line"/>
      <point x="65" y="-131" type="line"/>
    </contour>
  </outline>
</glyph>
<glyph name="descTail-cy" format="2">
  <advance width="150"/>
  <anchor x="64" y="0" name="_bottom"/>
  <anchor x="32" y="0" name="_bottomleft"/>
  <anchor x="20" y="0" name="_bottomright"/>
  <outline>
    <contour>
      <point x="66" y="2" type="line"/>
      <point x="10" y="2" type="line"/>
      <point x="10" y="0" type="line"/>
      <point x="63" y="0" type="line"/>
      <point x="33" y="-131" type="line"/>
      <point x="35" y="-131" type="line"/>
    </contour>
  </outline>
</glyph>
<glyph name="dieresiscaroncomb.case" format="2">
  <advance width="221"/>
  <anchor x="113" y="848" name="top"/>
  <anchor x="111" y="680" name="_top"/>
  <outline>
    <contour>
      <point x="185" y="754" type="curve" smooth="yes"/>
      <point x="181" y="754"/>
      <point x="179" y="751"/>
      <point x="179" y="748" type="curve" smooth="yes"/>
      <point x="179" y="745"/>
      <point x="181" y="742"/>
      <point x="185" y="742" type="curve" smooth="yes"/>
      <point x="189" y="742"/>
      <point x="191" y="745"/>
      <point x="191" y="748" type="curve" smooth="yes"/>
      <point x="191" y="751"/>
      <point x="189" y="754"/>
    </contour>
    <contour>
      <point x="36" y="754" type="curve" smooth="yes"/>
      <point x="32" y="754"/>
      <point x="30" y="751"/>
      <point x="30" y="748" type="curve" smooth="yes"/>
      <point x="30" y="745"/>
      <point x="32" y="742"/>
      <point x="36" y="742" type="curve" smooth="yes"/>
      <point x="40" y="742"/>
      <point x="42" y="745"/>
      <point x="42" y="748" type="curve" smooth="yes"/>
      <point x="42" y="751"/>
      <point x="40" y="754"/>
    </contour>
    <component base="caroncomb.case" xOffset="-28" yOffset="3"/>
  </outline>
</glyph>
<glyph name="digamma.sc" format="2">
  <advance width="431"/>
  <anchor x="131" y="0" name="bottom"/>
  <anchor x="140" y="0" name="bottomright"/>
  <anchor x="269" y="557" name="top"/>
  <outline>
    <contour>
      <point x="355" y="277" type="curve"/>
      <point x="356" y="279" type="line"/>
      <point x="341" y="285"/>
      <point x="321" y="287"/>
      <point x="295" y="287" type="curve" smooth="yes"/>
      <point x="131" y="287" type="line"/>
      <point x="131" y="285" type="line"/>
      <point x="295" y="285" type="line" smooth="yes"/>
      <point x="321" y="285"/>
      <point x="340" y="283"/>
    </contour>
    <component base="gamma.sc"/>
  </outline>
</glyph>
<glyph name="dzzhe-cy.sc" format="2">
  <advance width="725"/>
  <anchor x="1" y="0" name="_bottom"/>
  <anchor x="362.5" y="-188" name="bottom"/>
  <anchor x="362.5" y="557" name="top"/>
  <outline>
    <contour>
      <point x="333" y="0" type="line"/>
      <point x="434" y="0" type="line"/>
      <point x="434" y="2" type="line"/>
      <point x="333" y="2" type="line"/>
    </contour>
    <contour>
      <point x="333" y="294" type="line"/>
      <point x="434" y="294" type="line"/>
      <point x="434" y="296" type="line"/>
      <point x="333" y="296" type="line"/>
    </contour>
    <contour>
      <point x="433" y="0" type="line"/>
      <point x="435" y="0" type="line"/>
      <point x="435" y="294" type="line"/>
      <point x="514" y="294" type="line"/>
      <point x="687" y="0" type="line"/>
      <point x="690" y="0" type="line"/>
      <point x="515" y="295" type="line"/>
      <point x="675" y="557" type="line"/>
      <point x="672" y="557" type="line"/>
      <point x="514" y="296" type="line"/>
      <point x="435" y="296" type="line"/>
      <point x="435" y="557" type="line"/>
      <point x="433" y="557" type="line"/>
    </contour>
    <contour>
      <point x="39" y="2" type="line"/>
      <point x="87" y="36"/>
      <point x="107" y="79"/>
      <point x="134" y="288" type="curve" smooth="yes"/>
      <point x="169" y="555" type="line"/>
      <point x="332" y="555" type="line"/>
      <point x="332" y="2" type="line"/>
    </contour>
    <contour>
      <point x="36" y="0" type="line"/>
      <point x="334" y="0" type="line"/>
      <point x="334" y="557" type="line"/>
      <point x="167" y="557" type="line"/>
      <point x="132" y="288" type="line" smooth="yes"/>
      <point x="105" y="78"/>
      <point x="85" y="36"/>
      <point x="36" y="2" type="curve"/>
    </contour>
    <component base="descStraight-cy" xScale="-1" xOffset="65"/>
    <component base="descStraight-cy" xOffset="320"/>
  </outline>
</glyph>
<glyph name="e.sc" format="2">
  <advance width="453"/>
  <anchor x="267" y="0" name="bottom"/>
  <anchor x="383" y="0" name="ogonek"/>
  <anchor x="262" y="557" name="top"/>
  <outline>
    <contour>
      <point x="394" y="557" type="line"/>
      <point x="130" y="557" type="line"/>
      <point x="130" y="0" type="line"/>
      <point x="403" y="0" type="line"/>
      <point x="403" y="2" type="line"/>
      <point x="132" y="2" type="line"/>
      <point x="132" y="295" type="line"/>
      <point x="357" y="295" type="line"/>
      <point x="357" y="297" type="line"/>
      <point x="132" y="297" type="line"/>
      <point x="132" y="555" type="line"/>
      <point x="394" y="555" type="line"/>
    </contour>
  </outline>
</glyph>
<glyph name="elmiddlehook-cy.sc" format="2">
  <advance width="855"/>
  <anchor x="427.5" y="-188" name="bottom"/>
  <anchor x="460" y="0" name="bottomright"/>
  <anchor x="427.5" y="557" name="top"/>
  <outline>
    <contour>
      <point x="631" y="349" type="curve" smooth="yes"/>
      <point x="552" y="349"/>
      <point x="498" y="316"/>
      <point x="449" y="254" type="curve"/>
      <point x="450" y="252" type="line"/>
      <point x="499" y="315"/>
      <point x="553" y="347"/>
      <point x="631" y="347" type="curve" smooth="yes"/>
      <point x="733" y="347"/>
      <point x="773" y="290"/>
      <point x="773" y="213" type="curve" smooth="yes"/>
      <point x="773" y="0" type="line"/>
      <point x="775" y="0" type="line"/>
      <point x="775" y="213" type="line" smooth="yes"/>
      <point x="775" y="291"/>
      <point x="734" y="349"/>
    </contour>
    <component base="el-cy.sc"/>
    <component base="hookHELPER" xOffset="569"/>
  </outline>
</glyph>
<glyph name="ertick-cy.sc" format="2">
  <advance width="504"/>
  <anchor x="252" y="0" name="bottom"/>
  <anchor x="252" y="557" name="top"/>
  <outline>
    <contour>
      <point x="262" y="393" type="line"/>
      <point x="418" y="138" type="line"/>
      <point x="420" y="138" type="line"/>
      <point x="264" y="393" type="line"/>
    </contour>
    <contour>
      <point x="236" y="557" type="curve" smooth="yes"/>
      <point x="130" y="557" type="line"/>
      <point x="130" y="0" type="line"/>
      <point x="132" y="0" type="line"/>
      <point x="132" y="555" type="line"/>
      <point x="236" y="555" type="line" smooth="yes"/>
      <point x="372" y="555"/>
      <point x="437" y="508"/>
      <point x="437" y="398" type="curve" smooth="yes"/>
      <point x="437" y="285"/>
      <point x="359" y="240"/>
      <point x="233" y="240" type="curve" smooth="yes"/>
      <point x="131" y="240" type="line"/>
      <point x="131" y="238" type="line"/>
      <point x="233" y="238" type="line" smooth="yes"/>
      <point x="361" y="238"/>
      <point x="439" y="284"/>
      <point x="439" y="398" type="curve" smooth="yes"/>
      <point x="439" y="509"/>
      <point x="373" y="557"/>
    </contour>
  </outline>
</glyph>
<glyph name="estroke.sc" format="2">
  <advance width="453"/>
  <anchor x="267" y="0" name="bottom"/>
  <anchor x="383" y="0" name="ogonek"/>
  <anchor x="262" y="557" name="top"/>
  <outline>
    <contour>
      <point x="345" y="597" type="line"/>
      <point x="168" y="-47" type="line"/>
      <point x="170" y="-47" type="line"/>
      <point x="347" y="597" type="line"/>
    </contour>
    <component base="e.sc"/>
  </outline>
</glyph>
<glyph name="eth.sc" format="2">
  <advance width="559"/>
  <anchor x="278" y="0" name="bottom"/>
  <anchor x="284" y="279" name="center"/>
  <anchor x="262" y="557" name="top"/>
  <outline>
    <contour>
      <point x="75" y="291" type="line"/>
      <point x="287" y="291" type="line"/>
      <point x="287" y="293" type="line"/>
      <point x="129" y="293" type="line"/>
      <point x="75" y="293" type="line"/>
    </contour>
    <component base="d.sc" xOffset="-1"/>
  </outline>
</glyph>
<glyph name="f.sc" format="2">
  <advance width="430"/>
  <anchor x="131" y="0" name="bottom"/>
  <anchor x="260" y="557" name="top"/>
  <outline>
    <contour>
      <point x="390" y="557" type="line"/>
      <point x="130" y="557" type="line"/>
      <point x="130" y="0" type="line"/>
      <point x="132" y="0" type="line"/>
      <point x="132" y="283" type="line"/>
      <point x="356" y="283" type="line"/>
      <point x="356" y="285" type="line"/>
      <point x="132" y="285" type="line"/>
      <point x="132" y="555" type="line"/>
      <point x="390" y="555" type="line"/>
    </contour>
  </outline>
</glyph>
<glyph name="ge-cy.sc" format="2">
  <advance width="411"/>
  <anchor x="131" y="0" name="bottom"/>
  <anchor x="140" y="0" name="bottomright"/>
  <anchor x="269" y="557" name="top"/>
  <outline>
    <contour>
      <point x="130" y="557" type="line"/>
      <point x="130" y="0" type="line"/>
      <point x="132" y="0" type="line"/>
      <point x="132" y="556" type="line"/>
    </contour>
    <contour>
      <point x="391" y="557" type="line"/>
      <point x="130" y="557" type="line"/>
      <point x="131" y="555" type="line"/>
      <point x="391" y="555" type="line"/>
    </contour>
  </outline>
</glyph>
<glyph name="gestrokehook-cy.sc" format="2">
  <advance width="383"/>
  <anchor x="103" y="0" name="bottom"/>
  <anchor x="112" y="0" name="bottomright"/>
  <anchor x="241" y="557" name="top"/>
  <outline>
    <contour>
      <point x="103" y="2" type="line"/>
      <point x="104" y="0" type="line"/>
      <point x="157" y="0" type="line"/>
      <point x="157" y="2" type="line"/>
    </contour>
    <component base="ghestroke-cy.sc"/>
    <component base="hookHELPER" xOffset="-49"/>
  </outline>
</glyph>
<glyph name="ghestroke-cy.sc" format="2">
  <advance width="383"/>
  <anchor x="103" y="0" name="bottom"/>
  <anchor x="112" y="0" name="bottomright"/>
  <anchor x="241" y="557" name="top"/>
  <outline>
    <contour>
      <point x="280" y="322" type="line"/>
      <point x="102" y="322" type="line"/>
      <point x="35" y="322" type="line"/>
      <point x="35" y="320" type="line"/>
      <point x="280" y="320" type="line"/>
    </contour>
    <component base="ge-cy.sc" xOffset="-28"/>
  </outline>
</glyph>
<glyph name="gheupturn-cy.sc" format="2">
  <advance width="411"/>
  <anchor x="131" y="0" name="bottom"/>
  <anchor x="140" y="0" name="bottomright"/>
  <anchor x="269" y="557" name="top"/>
  <outline>
    <contour>
      <point x="389" y="556" type="line"/>
      <point x="391" y="557" type="line"/>
      <point x="391" y="653" type="line"/>
      <point x="389" y="653" type="line"/>
    </contour>
    <component base="ge-cy.sc"/>
  </outline>
</glyph>
<glyph name="gravecomb.case" format="2">
  <anchor x="107" y="680" name="_top"/>
  <anchor x="108" y="842" name="top"/>
  <outline>
    <contour>
      <point x="31" y="842" type="line"/>
      <point x="30" y="840" type="line"/>
      <point x="196" y="771" type="line"/>
      <point x="197" y="773" type="line"/>
    </contour>
  </outline>
</glyph>
<glyph name="gravedbl" format="2">
  <advance width="160"/>
  <anchor x="119" y="517" name="_top"/>
  <anchor x="138" y="517" name="_topleft"/>
  <outline>
    <contour>
      <point x="41" y="772" type="line"/>
      <point x="39" y="770" type="line"/>
      <point x="128" y="663" type="line"/>
      <point x="130" y="664" type="line"/>
    </contour>
  </outline>
</glyph>
<glyph name="h.sc" format="2">
  <advance width="601"/>
  <anchor x="301" y="0" name="bottom"/>
  <anchor x="479" y="0" name="bottomright"/>
  <anchor x="300" y="279" name="center"/>
  <anchor x="300" y="557" name="top"/>
  <outline>
    <contour>
      <point x="471" y="557" type="line"/>
      <point x="469" y="557" type="line"/>
      <point x="469" y="297" type="line"/>
      <point x="132" y="297" type="line"/>
      <point x="132" y="557" type="line"/>
      <point x="130" y="557" type="line"/>
      <point x="130" y="0" type="line"/>
      <point x="132" y="0" type="line"/>
      <point x="132" y="295" type="line"/>
      <point x="469" y="295" type="line"/>
      <point x="469" y="0" type="line"/>
      <point x="471" y="0" type="line"/>
    </contour>
  </outline>
</glyph>
<glyph name="hahook-cy.sc" format="2">
  <advance width="438"/>
  <anchor x="219" y="-188" name="bottom"/>
  <anchor x="396" y="0" name="bottomright"/>
  <anchor x="205" y="557" name="top"/>
  <outline>
    <contour>
      <point x="388" y="2" type="line"/>
      <point x="388" y="0" type="line"/>
      <point x="443" y="0" type="line"/>
      <point x="443" y="2" type="line"/>
    </contour>
    <component base="hookHELPER" xOffset="237"/>
    <component base="x.sc"/>
  </outline>
</glyph>
<glyph name="hardsign-cy.sc" format="2">
  <advance width="511"/>
  <anchor x="260.5" y="0.0" name="bottom"/>
  <anchor x="260.5" y="557.0" name="top"/>
  <outline>
    <contour>
      <point x="140" y="555" type="line"/>
      <point x="142" y="557" type="line"/>
      <point x="0" y="557" type="line"/>
      <point x="0" y="555" type="line"/>
    </contour>
    <component base="softsign-cy.sc" xOffset="10"/>
  </outline>
</glyph>
<glyph name="hastroke-cy.sc" format="2">
  <advance width="410"/>
  <anchor x="205" y="0" name="bottom"/>
  <anchor x="205" y="557" name="top"/>
  <outline>
    <contour>
      <point x="49" y="557" type="line"/>
      <point x="47" y="557" type="line"/>
      <point x="202" y="303" type="line"/>
      <point x="203" y="302" type="line"/>
      <point x="388" y="0" type="line"/>
      <point x="390" y="0" type="line"/>
      <point x="204" y="303" type="line"/>
      <point x="203" y="304" type="line"/>
    </contour>
    <contour>
      <point x="363" y="557" type="line"/>
      <point x="361" y="557" type="line"/>
      <point x="203" y="304" type="line"/>
      <point x="202" y="303" type="line"/>
      <point x="20" y="0" type="line"/>
      <point x="22" y="0" type="line"/>
      <point x="203" y="302" type="line"/>
      <point x="204" y="303" type="line"/>
    </contour>
    <component base="hyphen" xScale="1.3" xOffset="-55" yOffset="-9"/>
  </outline>
</glyph>
<glyph name="hbar.sc" format="2">
  <advance width="606"/>
  <anchor x="306" y="0" name="bottom"/>
  <anchor x="484" y="0" name="bottomright"/>
  <anchor x="305" y="279" name="center"/>
  <anchor x="305" y="557" name="top"/>
  <outline>
    <contour>
      <point x="519" y="434" type="line"/>
      <point x="476" y="434" type="line"/>
      <point x="87" y="434" type="line"/>
      <point x="87" y="432" type="line"/>
      <point x="135" y="432" type="line"/>
      <point x="519" y="432" type="line"/>
    </contour>
    <component base="h.sc" xOffset="5"/>
  </outline>
</glyph>
<glyph name="heta.sc" format="2">
  <advance width="467"/>
  <anchor x="233.5" y="0" name="bottom"/>
  <anchor x="233.5" y="557" name="top"/>
  <outline>
    <contour>
      <point x="427" y="295" type="line"/>
      <point x="427" y="297" type="line"/>
      <point x="132" y="297" type="line"/>
      <point x="132" y="558" type="line"/>
      <point x="130" y="558" type="line"/>
      <point x="130" y="0" type="line"/>
      <point x="132" y="0" type="line"/>
      <point x="132" y="295" type="line"/>
    </contour>
  </outline>
</glyph>
<glyph name="horncomb.case" format="2">
  <anchor x="40" y="680" name="_topright"/>
  <anchor x="92" y="680" name="topright"/>
  <outline>
    <contour>
      <point x="30" y="625" type="line"/>
      <point x="70" y="628"/>
      <point x="93" y="647"/>
      <point x="93" y="687" type="curve" smooth="yes"/>
      <point x="93" y="716"/>
      <point x="87" y="739"/>
      <point x="79" y="759" type="curve"/>
      <point x="77" y="759" type="line"/>
      <point x="85" y="739"/>
      <point x="91" y="716"/>
      <point x="91" y="687" type="curve" smooth="yes"/>
      <point x="91" y="648"/>
      <point x="69" y="630"/>
      <point x="29" y="627" type="curve"/>
    </contour>
  </outline>
</glyph>
<glyph name="ka-cy.sc" format="2">
  <advance width="483"/>
  <anchor x="241.5" y="0" name="bottom"/>
  <anchor x="456" y="0" name="bottomright"/>
  <anchor x="281" y="557" name="top"/>
  <outline>
    <contour>
      <point x="433" y="557" type="line"/>
      <point x="431" y="557" type="line"/>
      <point x="244" y="296" type="line"/>
      <point x="132" y="296" type="line"/>
      <point x="132" y="557" type="line"/>
      <point x="130" y="557" type="line"/>
      <point x="130" y="1" type="line"/>
      <point x="132" y="1" type="line"/>
      <point x="132" y="294" type="line"/>
      <point x="244" y="294" type="line"/>
      <point x="446" y="0" type="line"/>
      <point x="448" y="0" type="line"/>
      <point x="246" y="295" type="line"/>
    </contour>
  </outline>
</glyph>
<glyph name="kabashkir-cy.sc" format="2">
  <advance width="493"/>
  <anchor x="251.5" y="0.0" name="bottom"/>
  <anchor x="466" y="0" name="bottomright"/>
  <anchor x="291" y="557" name="top"/>
  <outline>
    <contour>
      <point x="140" y="555" type="line"/>
      <point x="142" y="557" type="line"/>
      <point x="0" y="557" type="line"/>
      <point x="0" y="555" type="line"/>
    </contour>
    <component base="ka-cy.sc" xOffset="10"/>
  </outline>
</glyph>
<glyph name="kaiSymbol.sc" format="2">
  <advance width="503"/>
  <anchor x="251.5" y="-188" name="bottom"/>
  <anchor x="264" y="557" name="top"/>
  <outline>
    <contour>
      <point x="438" y="2" type="line"/>
      <point x="438" y="0" type="line"/>
      <point x="493" y="0" type="line"/>
      <point x="493" y="2" type="line"/>
    </contour>
    <component base="k.sc"/>
    <component base="hookHELPER" xOffset="287"/>
  </outline>
</glyph>
<glyph name="kastroke-cy.sc" format="2">
  <advance width="437"/>
  <anchor x="195.5" y="0.0" name="bottom"/>
  <anchor x="410" y="0" name="bottomright"/>
  <anchor x="235" y="557" name="top"/>
  <outline>
    <contour>
      <point x="30" y="455" type="line"/>
      <point x="212" y="455" type="line"/>
      <point x="212" y="457" type="line"/>
      <point x="84" y="457" type="line"/>
      <point x="30" y="457" type="line"/>
    </contour>
    <component base="ka-cy.sc" xOffset="-46"/>
  </outline>
</glyph>
<glyph name="komide-cy.sc" format="2">
  <advance width="501"/>
  <anchor x="250.5" y="0" name="bottom"/>
  <anchor x="250.5" y="557" name="top"/>
  <outline>
    <contour>
      <point x="371" y="557" type="line"/>
      <point x="369" y="557" type="line"/>
      <point x="369" y="2" type="line"/>
      <point x="241" y="2" type="line" smooth="yes"/>
      <point x="130" y="2"/>
      <point x="62" y="57"/>
      <point x="62" y="160" type="curve" smooth="yes"/>
      <point x="62" y="264"/>
      <point x="128" y="325"/>
      <point x="244" y="325" type="curve" smooth="yes"/>
      <point x="370" y="325" type="line"/>
      <point x="370" y="327" type="line"/>
      <point x="244" y="327" type="line" smooth="yes"/>
      <point x="127" y="327"/>
      <point x="60" y="265"/>
      <point x="60" y="160" type="curve" smooth="yes"/>
      <point x="60" y="56"/>
      <point x="129" y="0"/>
      <point x="241" y="0" type="curve" smooth="yes"/>
      <point x="371" y="0" type="line"/>
    </contour>
  </outline>
</glyph>
<glyph name="komidzje-cy.sc" format="2">
  <advance width="435"/>
  <anchor x="439" y="0" name="_bottom"/>
  <anchor x="217.5" y="-188" name="bottom"/>
  <anchor x="217.5" y="557" name="top"/>
  <outline>
    <contour>
      <point x="107" y="274" type="line"/>
      <point x="219" y="274" type="line"/>
      <point x="290" y="276"/>
      <point x="366" y="313"/>
      <point x="366" y="415" type="curve" smooth="yes"/>
      <point x="366" y="501"/>
      <point x="318" y="557"/>
      <point x="179" y="557" type="curve" smooth="yes"/>
      <point x="80" y="557" type="line"/>
      <point x="80" y="555" type="line"/>
      <point x="179" y="555" type="line" smooth="yes"/>
      <point x="317" y="555"/>
      <point x="364" y="500"/>
      <point x="364" y="415" type="curve" smooth="yes"/>
      <point x="364" y="314"/>
      <point x="288" y="276"/>
      <point x="213" y="276" type="curve" smooth="yes"/>
      <point x="107" y="276" type="line"/>
    </contour>
    <contour>
      <point x="383" y="0" type="line"/>
      <point x="386" y="0" type="line"/>
      <point x="220" y="275" type="line"/>
      <point x="218" y="275" type="line"/>
    </contour>
    <component base="descStraight-cy.case" xOffset="375"/>
  </outline>
</glyph>
<glyph name="koppa.sc" format="2">
  <advance width="392"/>
  <anchor x="196" y="0" name="bottom"/>
  <anchor x="196" y="557" name="top"/>
  <outline>
    <contour>
      <point x="173" y="0" type="line"/>
      <point x="176" y="0" type="line"/>
      <point x="342" y="279" type="line"/>
      <point x="340" y="280" type="line"/>
    </contour>
    <contour>
      <point x="51" y="279" type="line"/>
      <point x="342" y="279" type="line"/>
      <point x="341" y="281" type="line"/>
      <point x="50" y="281" type="line"/>
    </contour>
    <contour>
      <point x="52" y="280" type="line"/>
      <point x="218" y="557" type="line"/>
      <point x="215" y="557" type="line"/>
      <point x="50" y="281" type="line"/>
    </contour>
  </outline>
</glyph>
<glyph name="koppaArchaic.sc" format="2">
  <advance width="618"/>
  <anchor x="309" y="-188" name="bottom"/>
  <anchor x="372" y="0" name="ogonek"/>
  <anchor x="308" y="557" name="top"/>
  <anchor x="99" y="557" name="topleft"/>
  <anchor x="470" y="557" name="topright"/>
  <outline>
    <contour>
      <point x="308" y="-188" type="line"/>
      <point x="310" y="-188" type="line"/>
      <point x="310" y="-6" type="line"/>
      <point x="308" y="-6" type="line"/>
    </contour>
    <component base="o.sc"/>
  </outline>
</glyph>
<glyph name="l.sc" format="2">
  <advance width="406"/>
  <anchor x="256" y="0" name="bottom"/>
  <anchor x="327" y="285" name="center"/>
  <anchor x="131" y="557" name="top"/>
  <anchor x="192" y="557" name="topright"/>
  <outline>
    <contour>
      <point x="132" y="557" type="line"/>
      <point x="130" y="557" type="line"/>
      <point x="130" y="0" type="line"/>
      <point x="381" y="0" type="line"/>
      <point x="381" y="2" type="line"/>
      <point x="132" y="2" type="line"/>
    </contour>
  </outline>
</glyph>
<glyph name="lambda.sc" format="2">
  <advance width="491"/>
  <anchor x="245.5" y="0" name="bottom"/>
  <anchor x="245.5" y="557" name="top"/>
  <outline>
    <contour>
      <point x="245" y="557" type="line"/>
      <point x="243" y="557" type="line"/>
      <point x="35" y="0" type="line"/>
      <point x="37" y="0" type="line"/>
      <point x="244" y="554" type="line"/>
      <point x="454" y="0" type="line"/>
      <point x="456" y="0" type="line"/>
    </contour>
  </outline>
</glyph>
<glyph name="lozenge.tosf" format="2">
  <advance width="560"/>
  <outline>
    <contour>
      <point x="281" y="660" type="line"/>
      <point x="279" y="660" type="line"/>
      <point x="102" y="332" type="line"/>
      <point x="279" y="0" type="line"/>
      <point x="281" y="0" type="line"/>
      <point x="458" y="332" type="line"/>
    </contour>
    <contour>
      <point x="280" y="658" type="line"/>
      <point x="456" y="332" type="line"/>
      <point x="280" y="2" type="line"/>
      <point x="104" y="332" type="line"/>
    </contour>
  </outline>
</glyph>
<glyph name="lslash.sc" format="2">
  <advance width="401"/>
  <anchor x="251" y="0" name="bottom"/>
  <anchor x="322" y="285" name="center"/>
  <anchor x="126" y="557" name="top"/>
  <anchor x="187" y="557" name="topright"/>
  <outline>
    <contour>
      <point x="315" y="363" type="line"/>
      <point x="125" y="246" type="line"/>
      <point x="52" y="201" type="line"/>
      <point x="52" y="199" type="line"/>
      <point x="315" y="361" type="line"/>
    </contour>
    <component base="l.sc" xOffset="-5"/>
  </outline>
</glyph>
<glyph name="pe-cy.sc" format="2">
  <advance width="601"/>
  <anchor x="300.5" y="0" name="bottom"/>
  <anchor x="480" y="0" name="bottomright"/>
  <anchor x="300.5" y="557" name="top"/>
  <outline>
    <contour>
      <point x="471" y="557" type="line"/>
      <point x="130" y="557" type="line"/>
      <point x="130" y="0" type="line"/>
      <point x="132" y="0" type="line"/>
      <point x="132" y="555" type="line"/>
      <point x="469" y="555" type="line"/>
      <point x="469" y="0" type="line"/>
      <point x="471" y="0" type="line"/>
    </contour>
  </outline>
</glyph>
<glyph name="pemiddlehook-cy.sc" format="2">
  <advance width="876"/>
  <anchor x="438" y="-188" name="bottom"/>
  <anchor x="480" y="0" name="bottomright"/>
  <anchor x="438" y="557" name="top"/>
  <outline>
    <contour>
      <point x="652" y="349" type="curve" smooth="yes"/>
      <point x="573" y="349"/>
      <point x="519" y="316"/>
      <point x="470" y="254" type="curve"/>
      <point x="471" y="252" type="line"/>
      <point x="520" y="315"/>
      <point x="574" y="347"/>
      <point x="652" y="347" type="curve" smooth="yes"/>
      <point x="754" y="347"/>
      <point x="794" y="290"/>
      <point x="794" y="213" type="curve" smooth="yes"/>
      <point x="794" y="0" type="line"/>
      <point x="796" y="0" type="line"/>
      <point x="796" y="213" type="line" smooth="yes"/>
      <point x="796" y="291"/>
      <point x="755" y="349"/>
    </contour>
    <component base="pe-cy.sc"/>
    <component base="hookHELPER" xOffset="590"/>
  </outline>
</glyph>
<glyph name="product.tosf" format="2">
  <advance width="560"/>
  <outline>
    <contour>
      <point x="483" y="658" type="line"/>
      <point x="483" y="660" type="line"/>
      <point x="76" y="660" type="line"/>
      <point x="76" y="658" type="line"/>
      <point x="152" y="658" type="line"/>
      <point x="152" y="-190" type="line"/>
      <point x="154" y="-190" type="line"/>
      <point x="154" y="658" type="line"/>
      <point x="405" y="658" type="line"/>
      <point x="405" y="-190" type="line"/>
      <point x="407" y="-190" type="line"/>
      <point x="407" y="658" type="line"/>
    </contour>
  </outline>
</glyph>
<glyph name="psili.case" format="2">
  <advance width="22"/>
  <anchor x="69" y="680" name="_topleft"/>
  <anchor x="52" y="682" name="top"/>
  <outline>
    <contour>
      <point x="52" y="682" type="curve" smooth="yes"/>
      <point x="49" y="682"/>
      <point x="47" y="680"/>
      <point x="47" y="677" type="curve" smooth="yes"/>
      <point x="47" y="674"/>
      <point x="49" y="672"/>
      <point x="53" y="672" type="curve"/>
      <point x="30" y="550" type="line"/>
      <point x="31" y="550" type="line"/>
      <point x="56" y="669" type="line" smooth="yes"/>
      <point x="57" y="674"/>
      <point x="57" y="675"/>
      <point x="57" y="677" type="curve"/>
      <point x="57" y="680"/>
      <point x="55" y="682"/>
    </contour>
  </outline>
</glyph>
<glyph name="rhoStrokeSymbol.sc" format="2">
  <advance width="524"/>
  <anchor x="151" y="0" name="bottom"/>
  <anchor x="272" y="557" name="top"/>
  <outline>
    <contour>
      <point x="75" y="150" type="line"/>
      <point x="75" y="148" type="line"/>
      <point x="150" y="148" type="line"/>
      <point x="332" y="148" type="line"/>
      <point x="332" y="150" type="line"/>
    </contour>
    <component base="rho.sc" xOffset="20"/>
  </outline>
</glyph>
<glyph name="rstroke.sc" format="2">
  <advance width="511"/>
  <anchor x="279" y="0" name="bottom"/>
  <anchor x="262" y="557" name="top"/>
  <outline>
    <contour>
      <point x="257" y="274" type="line"/>
      <point x="252" y="276" type="line"/>
      <point x="131" y="276" type="line"/>
      <point x="50" y="276" type="line"/>
      <point x="50" y="274" type="line"/>
    </contour>
    <component base="r.sc" xOffset="1"/>
  </outline>
</glyph>
<glyph name="ruble.tosf" format="2">
  <advance width="560"/>
  <outline>
    <contour>
      <point x="161" y="0" type="line"/>
      <point x="161" y="658" type="line"/>
      <point x="251" y="658" type="line" smooth="yes"/>
      <point x="399" y="658"/>
      <point x="474" y="601"/>
      <point x="474" y="475" type="curve" smooth="yes"/>
      <point x="474" y="347"/>
      <point x="383" y="293"/>
      <point x="248" y="293" type="curve" smooth="yes"/>
      <point x="160" y="293" type="line"/>
      <point x="160" y="291" type="line"/>
      <point x="248" y="291" type="line" smooth="yes"/>
      <point x="385" y="291"/>
      <point x="476" y="346"/>
      <point x="476" y="475" type="curve" smooth="yes"/>
      <point x="476" y="602"/>
      <point x="400" y="660"/>
      <point x="251" y="660" type="curve" smooth="yes"/>
      <point x="159" y="660" type="line"/>
      <point x="159" y="0" type="line"/>
    </contour>
    <contour>
      <point x="307" y="159" type="line"/>
      <point x="75" y="159" type="line"/>
      <point x="75" y="157" type="line"/>
      <point x="307" y="157" type="line"/>
    </contour>
    <contour>
      <point x="207" y="293" type="line"/>
      <point x="75" y="293" type="line"/>
      <point x="75" y="291" type="line"/>
      <point x="207" y="291" type="line"/>
    </contour>
  </outline>
</glyph>
<glyph name="rupeeIndian.tf" format="2">
  <advance width="560"/>
  <outline>
    <contour>
      <point x="433" y="0" type="line"/>
      <point x="436" y="0" type="line"/>
      <point x="243" y="325" type="line"/>
      <point x="241" y="325" type="line"/>
    </contour>
    <contour>
      <point x="122" y="544" type="line"/>
      <point x="494" y="544" type="line"/>
      <point x="494" y="546" type="line"/>
      <point x="122" y="546" type="line"/>
    </contour>
    <contour>
      <point x="494" y="680" type="line"/>
      <point x="122" y="680" type="line"/>
      <point x="122" y="678" type="line"/>
      <point x="197" y="678" type="line" smooth="yes"/>
      <point x="356" y="678"/>
      <point x="410" y="611"/>
      <point x="410" y="501" type="curve" smooth="yes"/>
      <point x="410" y="373"/>
      <point x="322" y="326"/>
      <point x="236" y="326" type="curve" smooth="yes"/>
      <point x="121" y="326" type="line"/>
      <point x="121" y="324" type="line"/>
      <point x="242" y="324" type="line" smooth="yes"/>
      <point x="323" y="326"/>
      <point x="412" y="372"/>
      <point x="412" y="501" type="curve" smooth="yes"/>
      <point x="412" y="602"/>
      <point x="367" y="668"/>
      <point x="238" y="678" type="curve"/>
      <point x="494" y="678" type="line"/>
    </contour>
  </outline>
</glyph>
<glyph name="rupeeIndian.tosf" format="2">
  <advance width="560"/>
  <outline>
    <contour>
      <point x="433" y="0" type="line"/>
      <point x="436" y="0" type="line"/>
      <point x="243" y="305" type="line"/>
      <point x="241" y="305" type="line"/>
    </contour>
    <contour>
      <point x="122" y="524" type="line"/>
      <point x="494" y="524" type="line"/>
      <point x="494" y="526" type="line"/>
      <point x="122" y="526" type="line"/>
    </contour>
    <contour>
      <point x="494" y="660" type="line"/>
      <point x="122" y="660" type="line"/>
      <point x="122" y="658" type="line"/>
      <point x="197" y="658" type="line" smooth="yes"/>
      <point x="356" y="658"/>
      <point x="410" y="591"/>
      <point x="410" y="481" type="curve" smooth="yes"/>
      <point x="410" y="353"/>
      <point x="322" y="306"/>
      <point x="236" y="306" type="curve" smooth="yes"/>
      <point x="121" y="306" type="line"/>
      <point x="121" y="304" type="line"/>
      <point x="242" y="304" type="line" smooth="yes"/>
      <point x="323" y="304"/>
      <point x="412" y="352"/>
      <point x="412" y="481" type="curve" smooth="yes"/>
      <point x="412" y="582"/>
      <point x="367" y="648"/>
      <point x="238" y="658" type="curve"/>
      <point x="494" y="658" type="line"/>
    </contour>
  </outline>
</glyph>
<glyph name="sampi.sc" format="2">
  <advance width="488"/>
  <anchor x="244" y="0" name="bottom"/>
  <anchor x="244" y="557" name="top"/>
  <outline>
    <contour>
      <point x="451" y="0" type="line"/>
      <point x="453" y="0" type="line"/>
      <point x="223" y="557" type="line"/>
      <point x="221" y="557" type="line"/>
      <point x="246" y="497" type="line"/>
    </contour>
    <contour>
      <point x="35" y="0" type="line"/>
      <point x="37" y="0" type="line"/>
      <point x="247" y="498" type="line"/>
      <point x="246" y="499" type="line"/>
    </contour>
    <contour>
      <point x="216" y="0" type="line"/>
      <point x="218" y="0" type="line"/>
      <point x="328" y="302" type="line"/>
      <point x="327" y="304" type="line"/>
    </contour>
  </outline>
</glyph>
<glyph name="schwa-cy.sc" format="2">
  <advance width="579"/>
  <anchor x="289.5" y="0" name="bottom"/>
  <anchor x="286" y="557" name="top"/>
  <outline>
    <contour>
      <point x="492" y="286" type="curve"/>
      <point x="492" y="285" type="line"/>
      <point x="495" y="87"/>
      <point x="411" y="-5"/>
      <point x="286" y="-5" type="curve" smooth="yes"/>
      <point x="156" y="-5"/>
      <point x="72" y="94"/>
      <point x="77" y="285" type="curve"/>
      <point x="493" y="285" type="line"/>
      <point x="493" y="287" type="line"/>
      <point x="75" y="287" type="line"/>
      <point x="75" y="279"/>
      <point x="75" y="276"/>
      <point x="75" y="267" type="curve" smooth="yes"/>
      <point x="75" y="88"/>
      <point x="157" y="-7"/>
      <point x="286" y="-7" type="curve" smooth="yes"/>
      <point x="412" y="-7"/>
      <point x="494" y="84"/>
      <point x="494" y="275" type="curve" smooth="yes"/>
      <point x="494" y="482"/>
      <point x="412" y="567"/>
      <point x="285" y="567" type="curve" smooth="yes"/>
      <point x="216" y="567"/>
      <point x="167" y="544"/>
      <point x="115" y="502" type="curve"/>
      <point x="117" y="500" type="line"/>
      <point x="168" y="542"/>
      <point x="217" y="565"/>
      <point x="285" y="565" type="curve" smooth="yes"/>
      <point x="411" y="565"/>
      <point x="489" y="481"/>
    </contour>
  </outline>
</glyph>
<glyph name="sha-cy.sc" format="2">
  <advance width="804"/>
  <anchor x="402" y="0" name="bottom"/>
  <anchor x="684" y="0" name="bottomright"/>
  <anchor x="402" y="557" name="top"/>
  <outline>
    <contour>
      <point x="674" y="557" type="line"/>
      <point x="672" y="557" type="line"/>
      <point x="672" y="2" type="line"/>
      <point x="403" y="2" type="line"/>
      <point x="403" y="557" type="line"/>
      <point x="401" y="557" type="line"/>
      <point x="401" y="2" type="line"/>
      <point x="132" y="2" type="line"/>
      <point x="132" y="557" type="line"/>
      <point x="130" y="557" type="line"/>
      <point x="130" y="0" type="line"/>
      <point x="674" y="0" type="line"/>
    </contour>
  </outline>
</glyph>
<glyph name="sigma.sc" format="2">
  <advance width="433"/>
  <anchor x="216.5" y="0" name="bottom"/>
  <anchor x="216.5" y="557" name="top"/>
  <outline>
    <contour>
      <point x="373" y="557" type="line"/>
      <point x="60" y="557" type="line"/>
      <point x="60" y="554" type="line"/>
      <point x="270" y="278" type="line"/>
      <point x="60" y="3" type="line"/>
      <point x="60" y="0" type="line"/>
      <point x="373" y="0" type="line"/>
      <point x="373" y="2" type="line"/>
      <point x="62" y="2" type="line"/>
      <point x="272" y="277" type="line"/>
      <point x="272" y="279" type="line"/>
      <point x="62" y="555" type="line"/>
      <point x="373" y="555" type="line"/>
    </contour>
  </outline>
</glyph>
<glyph name="t.sc" format="2">
  <advance width="414"/>
  <anchor x="207" y="0" name="bottom"/>
  <anchor x="218" y="0" name="bottomright"/>
  <anchor x="207" y="340" name="center"/>
  <anchor x="207" y="557" name="top"/>
  <outline>
    <contour>
      <point x="394" y="557" type="line"/>
      <point x="20" y="557" type="line"/>
      <point x="20" y="555" type="line"/>
      <point x="206" y="555" type="line"/>
      <point x="206" y="0" type="line"/>
      <point x="208" y="0" type="line"/>
      <point x="208" y="555" type="line"/>
      <point x="394" y="555" type="line"/>
    </contour>
  </outline>
</glyph>
<glyph name="tbar.sc" format="2">
  <advance width="414"/>
  <anchor x="207" y="0" name="bottom"/>
  <anchor x="218" y="0" name="bottomright"/>
  <anchor x="207" y="340" name="center"/>
  <anchor x="207" y="557" name="top"/>
  <outline>
    <contour>
      <point x="315" y="309" type="line"/>
      <point x="315" y="311" type="line"/>
      <point x="208" y="311" type="line"/>
      <point x="99" y="311" type="line"/>
      <point x="99" y="309" type="line"/>
      <point x="206" y="309" type="line"/>
    </contour>
    <component base="t.sc"/>
  </outline>
</glyph>
<glyph name="tonos.case" format="2">
  <advance width="22"/>
  <anchor x="82" y="680" name="_topleft"/>
  <outline>
    <contour>
      <point x="60" y="680" type="line"/>
      <point x="30" y="572" type="line"/>
      <point x="32" y="572" type="line"/>
      <point x="62" y="680" type="line"/>
    </contour>
  </outline>
</glyph>
